ply
format ascii 1.0
comment VCGLIB generated
element vertex 1050
property float x
property float y
property float z
element face 350
property list uchar int vertex_indices
property uchar red
property uchar green
property uchar blue
property uchar alpha
end_header
0.774382 -0.4086741 1.034893 
0.774382 -0.250477 1.131602 
0.961729 -0.250477 1.131602 
0.961729 -0.250477 1.131602 
0.961729 -0.4086741 1.034893 
0.774382 -0.4086741 1.034893 
0.774382 -0.506786 -2.215232e-08 
0.774382 -0.5059391 0.862051 
0.961729 -0.5059391 0.862051 
0.961729 -0.5059391 0.862051 
0.961729 -0.506786 -2.215232e-08 
0.774382 -0.506786 -2.215232e-08 
-0.774382 0.506786 2.215232e-08 
-0.774382 0.5059389 0.862051 
-0.961729 0.5059389 0.862051 
-0.961729 0.5059389 0.862051 
-0.961729 0.506786 2.215232e-08 
-0.774382 0.506786 2.215232e-08 
-0.961729 0.2504769 1.131602 
-0.774382 0.2504769 1.131602 
-0.774382 0.08146895 1.174867 
-0.774382 0.08146895 1.174867 
-0.961729 0.08146895 1.174867 
-0.961729 0.2504769 1.131602 
-0.961729 -0.08146905 1.174867 
-0.774382 -0.08146905 1.174867 
-0.774382 -0.250477 1.131602 
-0.774382 -0.250477 1.131602 
-0.961729 -0.250477 1.131602 
-0.961729 -0.08146905 1.174867 
-0.961729 0.4086749 1.034893 
-0.774382 0.4086749 1.034893 
-0.774382 0.2504769 1.131602 
-0.774382 0.2504769 1.131602 
-0.961729 0.2504769 1.131602 
-0.961729 0.4086749 1.034893 
0.961729 -0.5059391 0.862051 
0.774382 -0.5059391 0.862051 
0.774382 -0.4086741 1.034893 
0.774382 -0.4086741 1.034893 
0.961729 -0.4086741 1.034893 
0.961729 -0.5059391 0.862051 
-0.961729 0.5059389 0.862051 
-0.774382 0.5059389 0.862051 
-0.774382 0.4086749 1.034893 
-0.774382 0.4086749 1.034893 
-0.961729 0.4086749 1.034893 
-0.961729 0.5059389 0.862051 
-0.961729 0.08146895 1.174867 
-0.774382 0.08146895 1.174867 
-0.774382 -0.08146905 1.174867 
-0.774382 -0.08146905 1.174867 
-0.961729 -0.08146905 1.174867 
-0.961729 0.08146895 1.174867 
-0.961729 -0.4086741 1.034893 
-0.961729 -0.250477 1.131602 
-0.774382 -0.250477 1.131602 
-0.774382 -0.250477 1.131602 
-0.774382 -0.4086741 1.034893 
-0.961729 -0.4086741 1.034893 
-0.961729 -0.506786 -2.215232e-08 
-0.961729 -0.5059391 0.862051 
-0.774382 -0.5059391 0.862051 
-0.774382 -0.5059391 0.862051 
-0.774382 -0.506786 -2.215232e-08 
-0.961729 -0.506786 -2.215232e-08 
0.961729 0.506786 2.215232e-08 
0.961729 0.5059389 0.862051 
0.774382 0.5059389 0.862051 
0.774382 0.5059389 0.862051 
0.774382 0.506786 2.215232e-08 
0.961729 0.506786 2.215232e-08 
0.961729 0.2504769 1.131602 
0.961729 0.08146895 1.174867 
0.774382 0.08146895 1.174867 
0.774382 0.08146895 1.174867 
0.774382 0.2504769 1.131602 
0.961729 0.2504769 1.131602 
0.961729 -0.08146905 1.174867 
0.961729 -0.250477 1.131602 
0.774382 -0.250477 1.131602 
0.774382 -0.250477 1.131602 
0.774382 -0.08146905 1.174867 
0.961729 -0.08146905 1.174867 
0.961729 0.4086749 1.034893 
0.961729 0.2504769 1.131602 
0.774382 0.2504769 1.131602 
0.774382 0.2504769 1.131602 
0.774382 0.4086749 1.034893 
0.961729 0.4086749 1.034893 
-0.961729 -0.5059391 0.862051 
-0.961729 -0.4086741 1.034893 
-0.774382 -0.4086741 1.034893 
-0.774382 -0.4086741 1.034893 
-0.774382 -0.5059391 0.862051 
-0.961729 -0.5059391 0.862051 
0.961729 0.5059389 0.862051 
0.961729 0.4086749 1.034893 
0.774382 0.4086749 1.034893 
0.774382 0.4086749 1.034893 
0.774382 0.5059389 0.862051 
0.961729 0.5059389 0.862051 
0.961729 0.08146895 1.174867 
0.961729 -0.08146905 1.174867 
0.774382 -0.08146905 1.174867 
0.774382 -0.08146905 1.174867 
0.774382 0.08146895 1.174867 
0.961729 0.08146895 1.174867 
0.387036 -0.390045 1.016869 
0.387036 -0.240432 1.107705 
0.774382 -0.240432 1.107705 
0.774382 -0.240432 1.107705 
0.774382 -0.390045 1.016869 
0.387036 -0.390045 1.016869 
0.387036 -0.480865 -2.101928e-08 
0.387036 -0.480865 0.855481 
0.774382 -0.480865 0.855481 
0.774382 -0.480865 0.855481 
0.774382 -0.480865 -2.101928e-08 
0.387036 -0.480865 -2.101928e-08 
-0.387036 0.480865 2.101928e-08 
-0.387036 0.480865 0.855481 
-0.774382 0.480865 0.855481 
-0.774382 0.480865 0.855481 
-0.774382 0.480865 2.101928e-08 
-0.387036 0.480865 2.101928e-08 
-0.387036 0.2404319 1.107705 
-0.387036 0.07823495 1.149148 
-0.774382 0.07823495 1.149148 
-0.774382 0.07823495 1.149148 
-0.774382 0.2404319 1.107705 
-0.387036 0.2404319 1.107705 
-0.387036 -0.07823505 1.149148 
-0.387036 -0.240432 1.107705 
-0.774382 -0.240432 1.107705 
-0.774382 -0.240432 1.107705 
-0.774382 -0.07823505 1.149148 
-0.387036 -0.07823505 1.149148 
-0.387036 0.390045 1.016869 
-0.387036 0.2404319 1.107705 
-0.774382 0.2404319 1.107705 
-0.774382 0.2404319 1.107705 
-0.774382 0.390045 1.016869 
-0.387036 0.390045 1.016869 
0.387036 -0.480865 0.855481 
0.387036 -0.390045 1.016869 
0.774382 -0.390045 1.016869 
0.774382 -0.390045 1.016869 
0.774382 -0.480865 0.855481 
0.387036 -0.480865 0.855481 
-0.387036 0.480865 0.855481 
-0.387036 0.390045 1.016869 
-0.774382 0.390045 1.016869 
-0.774382 0.390045 1.016869 
-0.774382 0.480865 0.855481 
-0.387036 0.480865 0.855481 
-0.387036 0.07823495 1.149148 
-0.387036 -0.07823505 1.149148 
-0.774382 -0.07823505 1.149148 
-0.774382 -0.07823505 1.149148 
-0.774382 0.07823495 1.149148 
-0.387036 0.07823495 1.149148 
-0.774382 -0.390045 1.016869 
-0.774382 -0.240432 1.107705 
-0.387036 -0.240432 1.107705 
-0.387036 -0.240432 1.107705 
-0.387036 -0.390045 1.016869 
-0.774382 -0.390045 1.016869 
-0.774382 -0.480865 -2.101928e-08 
-0.774382 -0.480865 0.855481 
-0.387036 -0.480865 0.855481 
-0.387036 -0.480865 0.855481 
-0.387036 -0.480865 -2.101928e-08 
-0.774382 -0.480865 -2.101928e-08 
0.774382 0.480865 2.101928e-08 
0.774382 0.480865 0.855481 
0.387036 0.480865 0.855481 
0.387036 0.480865 0.855481 
0.387036 0.480865 2.101928e-08 
0.774382 0.480865 2.101928e-08 
0.774382 0.2404319 1.107705 
0.774382 0.07823495 1.149148 
0.387036 0.07823495 1.149148 
0.387036 0.07823495 1.149148 
0.387036 0.2404319 1.107705 
0.774382 0.2404319 1.107705 
0.774382 -0.07823505 1.149148 
0.774382 -0.240432 1.107705 
0.387036 -0.240432 1.107705 
0.387036 -0.240432 1.107705 
0.387036 -0.07823505 1.149148 
0.774382 -0.07823505 1.149148 
0.774382 0.390045 1.016869 
0.774382 0.2404319 1.107705 
0.387036 0.2404319 1.107705 
0.387036 0.2404319 1.107705 
0.387036 0.390045 1.016869 
0.774382 0.390045 1.016869 
-0.774382 -0.480865 0.855481 
-0.774382 -0.390045 1.016869 
-0.387036 -0.390045 1.016869 
-0.387036 -0.390045 1.016869 
-0.387036 -0.480865 0.855481 
-0.774382 -0.480865 0.855481 
0.774382 0.480865 0.855481 
0.774382 0.390045 1.016869 
0.387036 0.390045 1.016869 
0.387036 0.390045 1.016869 
0.387036 0.480865 0.855481 
0.774382 0.480865 0.855481 
0.774382 0.07823495 1.149148 
0.774382 -0.07823505 1.149148 
0.387036 -0.07823505 1.149148 
0.387036 -0.07823505 1.149148 
0.387036 0.07823495 1.149148 
0.774382 0.07823495 1.149148 
0.263445 -0.390045 1.016869 
-0.263445 -0.390045 1.016869 
-0.263445 -0.240432 1.107705 
-0.263445 -0.240432 1.107705 
0.263445 -0.240432 1.107705 
0.263445 -0.390045 1.016869 
0.263445 -0.480865 -2.101928e-08 
-0.263445 -0.480865 -2.101928e-08 
-0.263445 -0.480865 0.855481 
-0.263445 -0.480865 0.855481 
0.263445 -0.480865 0.855481 
0.263445 -0.480865 -2.101928e-08 
-0.263445 0.480865 2.101928e-08 
0.263445 0.480865 2.101928e-08 
0.263445 0.480865 0.855481 
0.263445 0.480865 0.855481 
-0.263445 0.480865 0.855481 
-0.263445 0.480865 2.101928e-08 
-0.263445 0.2404319 1.107705 
0.263445 0.2404319 1.107705 
0.263445 0.07823495 1.149148 
0.263445 0.07823495 1.149148 
-0.263445 0.07823495 1.149148 
-0.263445 0.2404319 1.107705 
-0.263445 -0.07823505 1.149148 
0.263445 -0.07823505 1.149148 
0.263445 -0.240432 1.107705 
0.263445 -0.240432 1.107705 
-0.263445 -0.240432 1.107705 
-0.263445 -0.07823505 1.149148 
-0.263445 0.390045 1.016869 
0.263445 0.390045 1.016869 
0.263445 0.2404319 1.107705 
0.263445 0.2404319 1.107705 
-0.263445 0.2404319 1.107705 
-0.263445 0.390045 1.016869 
0.263445 -0.480865 0.855481 
-0.263445 -0.480865 0.855481 
-0.263445 -0.390045 1.016869 
-0.263445 -0.390045 1.016869 
0.263445 -0.390045 1.016869 
0.263445 -0.480865 0.855481 
-0.263445 0.480865 0.855481 
0.263445 0.480865 0.855481 
0.263445 0.390045 1.016869 
0.263445 0.390045 1.016869 
-0.263445 0.390045 1.016869 
-0.263445 0.480865 0.855481 
-0.263445 0.07823495 1.149148 
0.263445 0.07823495 1.149148 
0.263445 -0.07823505 1.149148 
0.263445 -0.07823505 1.149148 
-0.263445 -0.07823505 1.149148 
-0.263445 0.07823495 1.149148 
0.387036 -0.398145 1.024706 
0.263445 -0.398145 1.024706 
0.263445 -0.244799 1.118095 
0.263445 -0.244799 1.118095 
0.387036 -0.244799 1.118095 
0.387036 -0.398145 1.024706 
0.387036 -0.492135 -2.15119e-08 
0.263445 -0.492135 -2.15119e-08 
0.263445 -0.491767 0.858337 
0.263445 -0.491767 0.858337 
0.387036 -0.491767 0.858337 
0.387036 -0.492135 -2.15119e-08 
-0.387036 0.492135 2.15119e-08 
-0.263445 0.492135 2.15119e-08 
-0.263445 0.491767 0.858337 
-0.263445 0.491767 0.858337 
-0.387036 0.491767 0.858337 
-0.387036 0.492135 2.15119e-08 
-0.387036 0.244799 1.118095 
-0.263445 0.244799 1.118095 
-0.263445 0.07964095 1.16033 
-0.263445 0.07964095 1.16033 
-0.387036 0.07964095 1.16033 
-0.387036 0.244799 1.118095 
-0.387036 -0.07964105 1.16033 
-0.263445 -0.07964105 1.16033 
-0.263445 -0.244799 1.118095 
-0.263445 -0.244799 1.118095 
-0.387036 -0.244799 1.118095 
-0.387036 -0.07964105 1.16033 
-0.387036 0.3981449 1.024706 
-0.263445 0.3981449 1.024706 
-0.263445 0.244799 1.118095 
-0.263445 0.244799 1.118095 
-0.387036 0.244799 1.118095 
-0.387036 0.3981449 1.024706 
0.387036 -0.491767 0.858337 
0.263445 -0.491767 0.858337 
0.263445 -0.398145 1.024706 
0.263445 -0.398145 1.024706 
0.387036 -0.398145 1.024706 
0.387036 -0.491767 0.858337 
-0.387036 0.491767 0.858337 
-0.263445 0.491767 0.858337 
-0.263445 0.3981449 1.024706 
-0.263445 0.3981449 1.024706 
-0.387036 0.3981449 1.024706 
-0.387036 0.491767 0.858337 
-0.387036 0.07964095 1.16033 
-0.263445 0.07964095 1.16033 
-0.263445 -0.07964105 1.16033 
-0.263445 -0.07964105 1.16033 
-0.387036 -0.07964105 1.16033 
-0.387036 0.07964095 1.16033 
-0.263445 -0.398145 1.024706 
-0.387036 -0.398145 1.024706 
-0.387036 -0.244799 1.118095 
-0.387036 -0.244799 1.118095 
-0.263445 -0.244799 1.118095 
-0.263445 -0.398145 1.024706 
-0.263445 -0.492135 -2.15119e-08 
-0.387036 -0.492135 -2.15119e-08 
-0.387036 -0.491767 0.858337 
-0.387036 -0.491767 0.858337 
-0.263445 -0.491767 0.858337 
-0.263445 -0.492135 -2.15119e-08 
0.263445 0.492135 2.15119e-08 
0.387036 0.492135 2.15119e-08 
0.387036 0.491767 0.858337 
0.387036 0.491767 0.858337 
0.263445 0.491767 0.858337 
0.263445 0.492135 2.15119e-08 
0.263445 0.244799 1.118095 
0.387036 0.244799 1.118095 
0.387036 0.07964095 1.16033 
0.387036 0.07964095 1.16033 
0.263445 0.07964095 1.16033 
0.263445 0.244799 1.118095 
0.263445 -0.07964105 1.16033 
0.387036 -0.07964105 1.16033 
0.387036 -0.244799 1.118095 
0.387036 -0.244799 1.118095 
0.263445 -0.244799 1.118095 
0.263445 -0.07964105 1.16033 
0.263445 0.3981449 1.024706 
0.387036 0.3981449 1.024706 
0.387036 0.244799 1.118095 
0.387036 0.244799 1.118095 
0.263445 0.244799 1.118095 
0.263445 0.3981449 1.024706 
-0.263445 -0.491767 0.858337 
-0.387036 -0.491767 0.858337 
-0.387036 -0.398145 1.024706 
-0.387036 -0.398145 1.024706 
-0.263445 -0.398145 1.024706 
-0.263445 -0.491767 0.858337 
0.263445 0.491767 0.858337 
0.387036 0.491767 0.858337 
0.387036 0.3981449 1.024706 
0.387036 0.3981449 1.024706 
0.263445 0.3981449 1.024706 
0.263445 0.491767 0.858337 
0.263445 0.07964095 1.16033 
0.387036 0.07964095 1.16033 
0.387036 -0.07964105 1.16033 
0.387036 -0.07964105 1.16033 
0.263445 -0.07964105 1.16033 
0.263445 0.07964095 1.16033 
0.387036 -0.240432 1.107705 
0.387036 -0.390045 1.016869 
0.387036 -0.398145 1.024706 
0.387036 -0.398145 1.024706 
0.387036 -0.244799 1.118095 
0.387036 -0.240432 1.107705 
0.387036 -0.390045 1.016869 
0.387036 -0.480865 0.855481 
0.387036 -0.491767 0.858337 
0.387036 -0.491767 0.858337 
0.387036 -0.398145 1.024706 
0.387036 -0.390045 1.016869 
0.387036 -0.480865 0.855481 
0.387036 -0.480865 -2.101928e-08 
0.387036 -0.492135 -2.15119e-08 
0.387036 -0.492135 -2.15119e-08 
0.387036 -0.491767 0.858337 
0.387036 -0.480865 0.855481 
0.263445 -0.480865 -2.101928e-08 
0.263445 -0.480865 0.855481 
0.263445 -0.491767 0.858337 
0.263445 -0.491767 0.858337 
0.263445 -0.492135 -2.15119e-08 
0.263445 -0.480865 -2.101928e-08 
0.263445 -0.480865 0.855481 
0.263445 -0.390045 1.016869 
0.263445 -0.398145 1.024706 
0.263445 -0.398145 1.024706 
0.263445 -0.491767 0.858337 
0.263445 -0.480865 0.855481 
0.263445 -0.390045 1.016869 
0.263445 -0.240432 1.107705 
0.263445 -0.244799 1.118095 
0.263445 -0.244799 1.118095 
0.263445 -0.398145 1.024706 
0.263445 -0.390045 1.016869 
0.263445 -0.240432 1.107705 
0.263445 -0.07823505 1.149148 
0.263445 -0.07964105 1.16033 
0.263445 -0.07964105 1.16033 
0.263445 -0.244799 1.118095 
0.263445 -0.240432 1.107705 
0.263445 -0.07823505 1.149148 
0.263445 0.07823495 1.149148 
0.263445 0.07964095 1.16033 
0.263445 0.07964095 1.16033 
0.263445 -0.07964105 1.16033 
0.263445 -0.07823505 1.149148 
0.263445 0.07823495 1.149148 
0.263445 0.2404319 1.107705 
0.263445 0.244799 1.118095 
0.263445 0.244799 1.118095 
0.263445 0.07964095 1.16033 
0.263445 0.07823495 1.149148 
0.263445 0.2404319 1.107705 
0.263445 0.390045 1.016869 
0.263445 0.3981449 1.024706 
0.263445 0.3981449 1.024706 
0.263445 0.244799 1.118095 
0.263445 0.2404319 1.107705 
0.263445 0.390045 1.016869 
0.263445 0.480865 0.855481 
0.263445 0.491767 0.858337 
0.263445 0.491767 0.858337 
0.263445 0.3981449 1.024706 
0.263445 0.390045 1.016869 
0.263445 0.480865 0.855481 
0.263445 0.480865 2.101928e-08 
0.263445 0.492135 2.15119e-08 
0.263445 0.492135 2.15119e-08 
0.263445 0.491767 0.858337 
0.263445 0.480865 0.855481 
0.387036 0.480865 2.101928e-08 
0.387036 0.480865 0.855481 
0.387036 0.491767 0.858337 
0.387036 0.491767 0.858337 
0.387036 0.492135 2.15119e-08 
0.387036 0.480865 2.101928e-08 
0.387036 0.480865 0.855481 
0.387036 0.390045 1.016869 
0.387036 0.3981449 1.024706 
0.387036 0.3981449 1.024706 
0.387036 0.491767 0.858337 
0.387036 0.480865 0.855481 
0.387036 0.390045 1.016869 
0.387036 0.2404319 1.107705 
0.387036 0.244799 1.118095 
0.387036 0.244799 1.118095 
0.387036 0.3981449 1.024706 
0.387036 0.390045 1.016869 
0.387036 0.2404319 1.107705 
0.387036 0.07823495 1.149148 
0.387036 0.07964095 1.16033 
0.387036 0.07964095 1.16033 
0.387036 0.244799 1.118095 
0.387036 0.2404319 1.107705 
0.387036 0.07823495 1.149148 
0.387036 -0.07823505 1.149148 
0.387036 -0.07964105 1.16033 
0.387036 -0.07964105 1.16033 
0.387036 0.07964095 1.16033 
0.387036 0.07823495 1.149148 
0.387036 -0.07823505 1.149148 
0.387036 -0.240432 1.107705 
0.387036 -0.244799 1.118095 
0.387036 -0.244799 1.118095 
0.387036 -0.07964105 1.16033 
0.387036 -0.07823505 1.149148 
-0.387036 0.480865 0.855481 
-0.387036 0.480865 2.101928e-08 
-0.387036 0.492135 2.15119e-08 
-0.387036 0.492135 2.15119e-08 
-0.387036 0.491767 0.858337 
-0.387036 0.480865 0.855481 
-0.263445 0.480865 2.101928e-08 
-0.263445 0.480865 0.855481 
-0.263445 0.491767 0.858337 
-0.263445 0.491767 0.858337 
-0.263445 0.492135 2.15119e-08 
-0.263445 0.480865 2.101928e-08 
-0.263445 0.480865 0.855481 
-0.263445 0.390045 1.016869 
-0.263445 0.3981449 1.024706 
-0.263445 0.3981449 1.024706 
-0.263445 0.491767 0.858337 
-0.263445 0.480865 0.855481 
-0.263445 0.390045 1.016869 
-0.263445 0.2404319 1.107705 
-0.263445 0.244799 1.118095 
-0.263445 0.244799 1.118095 
-0.263445 0.3981449 1.024706 
-0.263445 0.390045 1.016869 
-0.263445 0.2404319 1.107705 
-0.263445 0.07823495 1.149148 
-0.263445 0.07964095 1.16033 
-0.263445 0.07964095 1.16033 
-0.263445 0.244799 1.118095 
-0.263445 0.2404319 1.107705 
-0.263445 0.07823495 1.149148 
-0.263445 -0.07823505 1.149148 
-0.263445 -0.07964105 1.16033 
-0.263445 -0.07964105 1.16033 
-0.263445 0.07964095 1.16033 
-0.263445 0.07823495 1.149148 
-0.263445 -0.07823505 1.149148 
-0.263445 -0.240432 1.107705 
-0.263445 -0.244799 1.118095 
-0.263445 -0.244799 1.118095 
-0.263445 -0.07964105 1.16033 
-0.263445 -0.07823505 1.149148 
-0.263445 -0.240432 1.107705 
-0.263445 -0.390045 1.016869 
-0.263445 -0.398145 1.024706 
-0.263445 -0.398145 1.024706 
-0.263445 -0.244799 1.118095 
-0.263445 -0.240432 1.107705 
-0.263445 -0.390045 1.016869 
-0.263445 -0.480865 0.855481 
-0.263445 -0.491767 0.858337 
-0.263445 -0.491767 0.858337 
-0.263445 -0.398145 1.024706 
-0.263445 -0.390045 1.016869 
-0.263445 -0.480865 0.855481 
-0.263445 -0.480865 -2.101928e-08 
-0.263445 -0.492135 -2.15119e-08 
-0.263445 -0.492135 -2.15119e-08 
-0.263445 -0.491767 0.858337 
-0.263445 -0.480865 0.855481 
-0.387036 -0.480865 -2.101928e-08 
-0.387036 -0.480865 0.855481 
-0.387036 -0.491767 0.858337 
-0.387036 -0.491767 0.858337 
-0.387036 -0.492135 -2.15119e-08 
-0.387036 -0.480865 -2.101928e-08 
-0.387036 -0.480865 0.855481 
-0.387036 -0.390045 1.016869 
-0.387036 -0.398145 1.024706 
-0.387036 -0.398145 1.024706 
-0.387036 -0.491767 0.858337 
-0.387036 -0.480865 0.855481 
-0.387036 -0.390045 1.016869 
-0.387036 -0.240432 1.107705 
-0.387036 -0.244799 1.118095 
-0.387036 -0.244799 1.118095 
-0.387036 -0.398145 1.024706 
-0.387036 -0.390045 1.016869 
-0.387036 -0.240432 1.107705 
-0.387036 -0.07823505 1.149148 
-0.387036 -0.07964105 1.16033 
-0.387036 -0.07964105 1.16033 
-0.387036 -0.244799 1.118095 
-0.387036 -0.240432 1.107705 
-0.387036 -0.07823505 1.149148 
-0.387036 0.07823495 1.149148 
-0.387036 0.07964095 1.16033 
-0.387036 0.07964095 1.16033 
-0.387036 -0.07964105 1.16033 
-0.387036 -0.07823505 1.149148 
-0.387036 0.07823495 1.149148 
-0.387036 0.2404319 1.107705 
-0.387036 0.244799 1.118095 
-0.387036 0.244799 1.118095 
-0.387036 0.07964095 1.16033 
-0.387036 0.07823495 1.149148 
-0.387036 0.2404319 1.107705 
-0.387036 0.390045 1.016869 
-0.387036 0.3981449 1.024706 
-0.387036 0.3981449 1.024706 
-0.387036 0.244799 1.118095 
-0.387036 0.2404319 1.107705 
-0.387036 0.390045 1.016869 
-0.387036 0.480865 0.855481 
-0.387036 0.491767 0.858337 
-0.387036 0.491767 0.858337 
-0.387036 0.3981449 1.024706 
-0.387036 0.390045 1.016869 
0.961729 0.21876 1.056512 
0.961729 0.348719 0.977066 
0.961729 0.42535 0.840891 
0.961729 0.42535 0.840891 
0.961729 -0.218759 1.056512 
0.961729 0.21876 1.056512 
0.961729 0.42535 0.840891 
0.961729 0.426097 9.601863e-05 
0.961729 -0.426097 9.598138e-05 
0.961729 -0.426097 9.598138e-05 
0.961729 -0.218759 1.056512 
0.961729 0.42535 0.840891 
0.961729 -0.426097 9.598138e-05 
0.961729 -0.42535 0.840891 
0.961729 -0.348719 0.977066 
0.961729 -0.348719 0.977066 
0.961729 -0.218759 1.056512 
0.961729 -0.426097 9.598138e-05 
0.961729 0.07131495 1.094257 
0.961729 0.21876 1.056512 
0.961729 -0.218759 1.056512 
0.961729 -0.218759 1.056512 
0.961729 -0.07131504 1.094257 
0.961729 0.07131495 1.094257 
0.774382 -0.480865 -2.101928e-08 
0.774382 -0.480865 0.855481 
0.774382 -0.5059391 0.862051 
0.774382 -0.5059391 0.862051 
0.774382 -0.506786 -2.215232e-08 
0.774382 -0.480865 -2.101928e-08 
0.774382 -0.480865 0.855481 
0.774382 -0.390045 1.016869 
0.774382 -0.4086741 1.034893 
0.774382 -0.4086741 1.034893 
0.774382 -0.5059391 0.862051 
0.774382 -0.480865 0.855481 
0.774382 -0.390045 1.016869 
0.774382 -0.240432 1.107705 
0.774382 -0.250477 1.131602 
0.774382 -0.250477 1.131602 
0.774382 -0.4086741 1.034893 
0.774382 -0.390045 1.016869 
0.774382 -0.240432 1.107705 
0.774382 -0.07823505 1.149148 
0.774382 -0.08146905 1.174867 
0.774382 -0.08146905 1.174867 
0.774382 -0.250477 1.131602 
0.774382 -0.240432 1.107705 
0.774382 -0.07823505 1.149148 
0.774382 0.07823495 1.149148 
0.774382 0.08146895 1.174867 
0.774382 0.08146895 1.174867 
0.774382 -0.08146905 1.174867 
0.774382 -0.07823505 1.149148 
0.774382 0.07823495 1.149148 
0.774382 0.2404319 1.107705 
0.774382 0.2504769 1.131602 
0.774382 0.2504769 1.131602 
0.774382 0.08146895 1.174867 
0.774382 0.07823495 1.149148 
0.774382 0.2404319 1.107705 
0.774382 0.390045 1.016869 
0.774382 0.4086749 1.034893 
0.774382 0.4086749 1.034893 
0.774382 0.2504769 1.131602 
0.774382 0.2404319 1.107705 
0.774382 0.390045 1.016869 
0.774382 0.480865 0.855481 
0.774382 0.5059389 0.862051 
0.774382 0.5059389 0.862051 
0.774382 0.4086749 1.034893 
0.774382 0.390045 1.016869 
0.774382 0.480865 0.855481 
0.774382 0.480865 2.101928e-08 
0.774382 0.506786 2.215232e-08 
0.774382 0.506786 2.215232e-08 
0.774382 0.5059389 0.862051 
0.774382 0.480865 0.855481 
-0.961729 -0.218759 1.056512 
-0.961729 -0.348719 0.977066 
-0.961729 -0.42535 0.840891 
-0.961729 -0.42535 0.840891 
-0.961729 0.21876 1.056512 
-0.961729 -0.218759 1.056512 
-0.961729 -0.42535 0.840891 
-0.961729 -0.426097 9.598138e-05 
-0.961729 0.426097 9.601863e-05 
-0.961729 0.426097 9.601863e-05 
-0.961729 0.21876 1.056512 
-0.961729 -0.42535 0.840891 
-0.961729 0.426097 9.601863e-05 
-0.961729 0.42535 0.840891 
-0.961729 0.348719 0.977066 
-0.961729 0.348719 0.977066 
-0.961729 0.21876 1.056512 
-0.961729 0.426097 9.601863e-05 
-0.961729 -0.07131504 1.094257 
-0.961729 -0.218759 1.056512 
-0.961729 0.21876 1.056512 
-0.961729 0.21876 1.056512 
-0.961729 0.07131495 1.094257 
-0.961729 -0.07131504 1.094257 
-0.774382 0.480865 2.101928e-08 
-0.774382 0.480865 0.855481 
-0.774382 0.5059389 0.862051 
-0.774382 0.5059389 0.862051 
-0.774382 0.506786 2.215232e-08 
-0.774382 0.480865 2.101928e-08 
-0.774382 0.480865 0.855481 
-0.774382 0.390045 1.016869 
-0.774382 0.4086749 1.034893 
-0.774382 0.4086749 1.034893 
-0.774382 0.5059389 0.862051 
-0.774382 0.480865 0.855481 
-0.774382 0.390045 1.016869 
-0.774382 0.2404319 1.107705 
-0.774382 0.2504769 1.131602 
-0.774382 0.2504769 1.131602 
-0.774382 0.4086749 1.034893 
-0.774382 0.390045 1.016869 
-0.774382 0.2404319 1.107705 
-0.774382 0.07823495 1.149148 
-0.774382 0.08146895 1.174867 
-0.774382 0.08146895 1.174867 
-0.774382 0.2504769 1.131602 
-0.774382 0.2404319 1.107705 
-0.774382 0.07823495 1.149148 
-0.774382 -0.07823505 1.149148 
-0.774382 -0.08146905 1.174867 
-0.774382 -0.08146905 1.174867 
-0.774382 0.08146895 1.174867 
-0.774382 0.07823495 1.149148 
-0.774382 -0.07823505 1.149148 
-0.774382 -0.240432 1.107705 
-0.774382 -0.250477 1.131602 
-0.774382 -0.250477 1.131602 
-0.774382 -0.08146905 1.174867 
-0.774382 -0.07823505 1.149148 
-0.774382 -0.240432 1.107705 
-0.774382 -0.390045 1.016869 
-0.774382 -0.4086741 1.034893 
-0.774382 -0.4086741 1.034893 
-0.774382 -0.250477 1.131602 
-0.774382 -0.240432 1.107705 
-0.774382 -0.390045 1.016869 
-0.774382 -0.480865 0.855481 
-0.774382 -0.5059391 0.862051 
-0.774382 -0.5059391 0.862051 
-0.774382 -0.4086741 1.034893 
-0.774382 -0.390045 1.016869 
-0.774382 -0.480865 0.855481 
-0.774382 -0.480865 -2.101928e-08 
-0.774382 -0.506786 -2.215232e-08 
-0.774382 -0.506786 -2.215232e-08 
-0.774382 -0.5059391 0.862051 
-0.774382 -0.480865 0.855481 
0.961729 0.506786 2.215232e-08 
0.961729 0.426097 9.601863e-05 
0.961729 0.42535 0.840891 
0.961729 0.42535 0.840891 
0.961729 0.5059389 0.862051 
0.961729 0.506786 2.215232e-08 
0.961729 0.5059389 0.862051 
0.961729 0.42535 0.840891 
0.961729 0.348719 0.977066 
0.961729 0.348719 0.977066 
0.961729 0.4086749 1.034893 
0.961729 0.5059389 0.862051 
0.961729 0.4086749 1.034893 
0.961729 0.348719 0.977066 
0.961729 0.21876 1.056512 
0.961729 0.21876 1.056512 
0.961729 0.2504769 1.131602 
0.961729 0.4086749 1.034893 
0.961729 0.2504769 1.131602 
0.961729 0.21876 1.056512 
0.961729 0.07131495 1.094257 
0.961729 0.07131495 1.094257 
0.961729 0.08146895 1.174867 
0.961729 0.2504769 1.131602 
0.961729 0.08146895 1.174867 
0.961729 0.07131495 1.094257 
0.961729 -0.07131504 1.094257 
0.961729 -0.07131504 1.094257 
0.961729 -0.08146905 1.174867 
0.961729 0.08146895 1.174867 
0.961729 -0.08146905 1.174867 
0.961729 -0.07131504 1.094257 
0.961729 -0.218759 1.056512 
0.961729 -0.218759 1.056512 
0.961729 -0.250477 1.131602 
0.961729 -0.08146905 1.174867 
0.961729 -0.250477 1.131602 
0.961729 -0.218759 1.056512 
0.961729 -0.348719 0.977066 
0.961729 -0.348719 0.977066 
0.961729 -0.4086741 1.034893 
0.961729 -0.250477 1.131602 
0.961729 -0.4086741 1.034893 
0.961729 -0.348719 0.977066 
0.961729 -0.42535 0.840891 
0.961729 -0.42535 0.840891 
0.961729 -0.5059391 0.862051 
0.961729 -0.4086741 1.034893 
0.961729 -0.5059391 0.862051 
0.961729 -0.42535 0.840891 
0.961729 -0.426097 9.598138e-05 
0.961729 -0.426097 9.598138e-05 
0.961729 -0.506786 -2.215232e-08 
0.961729 -0.5059391 0.862051 
-0.961729 -0.506786 -2.215232e-08 
-0.961729 -0.426097 9.598138e-05 
-0.961729 -0.42535 0.840891 
-0.961729 -0.42535 0.840891 
-0.961729 -0.5059391 0.862051 
-0.961729 -0.506786 -2.215232e-08 
-0.961729 -0.5059391 0.862051 
-0.961729 -0.42535 0.840891 
-0.961729 -0.348719 0.977066 
-0.961729 -0.348719 0.977066 
-0.961729 -0.4086741 1.034893 
-0.961729 -0.5059391 0.862051 
-0.961729 -0.4086741 1.034893 
-0.961729 -0.348719 0.977066 
-0.961729 -0.218759 1.056512 
-0.961729 -0.218759 1.056512 
-0.961729 -0.250477 1.131602 
-0.961729 -0.4086741 1.034893 
-0.961729 -0.250477 1.131602 
-0.961729 -0.218759 1.056512 
-0.961729 -0.07131504 1.094257 
-0.961729 -0.07131504 1.094257 
-0.961729 -0.08146905 1.174867 
-0.961729 -0.250477 1.131602 
-0.961729 -0.08146905 1.174867 
-0.961729 -0.07131504 1.094257 
-0.961729 0.07131495 1.094257 
-0.961729 0.07131495 1.094257 
-0.961729 0.08146895 1.174867 
-0.961729 -0.08146905 1.174867 
-0.961729 0.08146895 1.174867 
-0.961729 0.07131495 1.094257 
-0.961729 0.21876 1.056512 
-0.961729 0.21876 1.056512 
-0.961729 0.2504769 1.131602 
-0.961729 0.08146895 1.174867 
-0.961729 0.2504769 1.131602 
-0.961729 0.21876 1.056512 
-0.961729 0.348719 0.977066 
-0.961729 0.348719 0.977066 
-0.961729 0.4086749 1.034893 
-0.961729 0.2504769 1.131602 
-0.961729 0.4086749 1.034893 
-0.961729 0.348719 0.977066 
-0.961729 0.42535 0.840891 
-0.961729 0.42535 0.840891 
-0.961729 0.5059389 0.862051 
-0.961729 0.4086749 1.034893 
-0.961729 0.5059389 0.862051 
-0.961729 0.42535 0.840891 
-0.961729 0.426097 9.601863e-05 
-0.961729 0.426097 9.601863e-05 
-0.961729 0.506786 2.215232e-08 
-0.961729 0.5059389 0.862051 
-0.774382 0.480865 2.101928e-08 
-0.774382 0.506786 2.215232e-08 
-0.961729 0.506786 2.215232e-08 
-0.961729 0.506786 2.215232e-08 
-0.961729 0.426097 9.601863e-05 
-0.774382 0.480865 2.101928e-08 
-0.961729 -0.426097 9.598138e-05 
-0.961729 -0.506786 -2.215232e-08 
-0.774382 -0.506786 -2.215232e-08 
-0.774382 -0.506786 -2.215232e-08 
-0.961729 0.426097 9.601863e-05 
-0.961729 -0.426097 9.598138e-05 
-0.961729 0.426097 9.601863e-05 
-0.774382 -0.506786 -2.215232e-08 
-0.774382 -0.480865 -2.101928e-08 
-0.774382 -0.480865 -2.101928e-08 
-0.387036 -0.480865 -2.101928e-08 
-0.961729 0.426097 9.601863e-05 
-0.387036 -0.480865 -2.101928e-08 
-0.387036 -0.492135 -2.15119e-08 
-0.263445 -0.492135 -2.15119e-08 
-0.263445 -0.492135 -2.15119e-08 
-0.263445 -0.480865 -2.101928e-08 
-0.387036 -0.480865 -2.101928e-08 
-0.961729 0.426097 9.601863e-05 
-0.387036 -0.480865 -2.101928e-08 
-0.263445 -0.480865 -2.101928e-08 
-0.263445 -0.480865 -2.101928e-08 
0.263445 0.480865 2.101928e-08 
-0.961729 0.426097 9.601863e-05 
0.263445 -0.480865 -2.101928e-08 
0.263445 -0.492135 -2.15119e-08 
0.387036 -0.492135 -2.15119e-08 
0.387036 -0.492135 -2.15119e-08 
0.387036 -0.480865 -2.101928e-08 
0.263445 -0.480865 -2.101928e-08 
0.774382 -0.480865 -2.101928e-08 
0.774382 -0.506786 -2.215232e-08 
0.961729 -0.506786 -2.215232e-08 
0.961729 -0.506786 -2.215232e-08 
0.961729 -0.426097 9.598138e-05 
0.774382 -0.480865 -2.101928e-08 
0.387036 -0.480865 -2.101928e-08 
0.774382 -0.480865 -2.101928e-08 
0.961729 -0.426097 9.598138e-05 
0.961729 -0.426097 9.598138e-05 
0.263445 -0.480865 -2.101928e-08 
0.387036 -0.480865 -2.101928e-08 
-0.263445 -0.480865 -2.101928e-08 
0.263445 -0.480865 -2.101928e-08 
0.961729 -0.426097 9.598138e-05 
0.961729 -0.426097 9.598138e-05 
0.263445 0.480865 2.101928e-08 
-0.263445 -0.480865 -2.101928e-08 
0.961729 0.426097 9.601863e-05 
0.961729 0.506786 2.215232e-08 
0.774382 0.506786 2.215232e-08 
0.774382 0.506786 2.215232e-08 
0.961729 -0.426097 9.598138e-05 
0.961729 0.426097 9.601863e-05 
0.961729 -0.426097 9.598138e-05 
0.774382 0.506786 2.215232e-08 
0.774382 0.480865 2.101928e-08 
0.774382 0.480865 2.101928e-08 
0.387036 0.480865 2.101928e-08 
0.961729 -0.426097 9.598138e-05 
0.387036 0.480865 2.101928e-08 
0.387036 0.492135 2.15119e-08 
0.263445 0.492135 2.15119e-08 
0.263445 0.492135 2.15119e-08 
0.263445 0.480865 2.101928e-08 
0.387036 0.480865 2.101928e-08 
0.961729 -0.426097 9.598138e-05 
0.387036 0.480865 2.101928e-08 
0.263445 0.480865 2.101928e-08 
-0.961729 0.426097 9.601863e-05 
0.263445 0.480865 2.101928e-08 
-0.263445 0.480865 2.101928e-08 
-0.263445 0.480865 2.101928e-08 
-0.387036 0.480865 2.101928e-08 
-0.961729 0.426097 9.601863e-05 
-0.263445 0.480865 2.101928e-08 
-0.263445 0.492135 2.15119e-08 
-0.387036 0.492135 2.15119e-08 
-0.387036 0.492135 2.15119e-08 
-0.387036 0.480865 2.101928e-08 
-0.263445 0.480865 2.101928e-08 
-0.774382 0.480865 2.101928e-08 
-0.961729 0.426097 9.601863e-05 
-0.387036 0.480865 2.101928e-08 
-0.104977 0.478512 0.735752 
-0.089038 0.478512 0.676265 
-0.089038 0.494456 0.676265 
-0.089038 0.494456 0.676265 
-0.104977 0.494456 0.735752 
-0.104977 0.478512 0.735752 
-0.089038 0.478512 0.676265 
-0.04549 0.478512 0.632717 
-0.04549 0.494456 0.632717 
-0.04549 0.494456 0.632717 
-0.089038 0.494456 0.676265 
-0.089038 0.478512 0.676265 
-0.04549 0.478512 0.632717 
0.013997 0.478512 0.616777 
0.013997 0.494456 0.616777 
0.013997 0.494456 0.616777 
-0.04549 0.494456 0.632717 
-0.04549 0.478512 0.632717 
0.013997 0.478512 0.616777 
0.073484 0.478512 0.632717 
0.073484 0.494456 0.632717 
0.073484 0.494456 0.632717 
0.013997 0.494456 0.616777 
0.013997 0.478512 0.616777 
0.073484 0.478512 0.632717 
0.117032 0.478512 0.676265 
0.117032 0.494456 0.676265 
0.117032 0.494456 0.676265 
0.073484 0.494456 0.632717 
0.073484 0.478512 0.632717 
0.117032 0.478512 0.676265 
0.132971 0.478512 0.735752 
0.132971 0.494456 0.735752 
0.132971 0.494456 0.735752 
0.117032 0.494456 0.676265 
0.117032 0.478512 0.676265 
0.132971 0.478512 0.735752 
0.117032 0.478512 0.795239 
0.117032 0.494456 0.795239 
0.117032 0.494456 0.795239 
0.132971 0.494456 0.735752 
0.132971 0.478512 0.735752 
0.117032 0.478512 0.795239 
0.073484 0.478512 0.838787 
0.073484 0.494456 0.838787 
0.073484 0.494456 0.838787 
0.117032 0.494456 0.795239 
0.117032 0.478512 0.795239 
0.073484 0.478512 0.838787 
0.013997 0.478512 0.854726 
0.013997 0.494456 0.854726 
0.013997 0.494456 0.854726 
0.073484 0.494456 0.838787 
0.073484 0.478512 0.838787 
0.013997 0.478512 0.854726 
-0.04549 0.478512 0.838787 
-0.04549 0.494456 0.838787 
-0.04549 0.494456 0.838787 
0.013997 0.494456 0.854726 
0.013997 0.478512 0.854726 
-0.04549 0.478512 0.838787 
-0.089038 0.478512 0.795239 
-0.089038 0.494456 0.795239 
-0.089038 0.494456 0.795239 
-0.04549 0.494456 0.838787 
-0.04549 0.478512 0.838787 
-0.089038 0.478512 0.795239 
-0.104977 0.478512 0.735752 
-0.104977 0.494456 0.735752 
-0.104977 0.494456 0.735752 
-0.089038 0.494456 0.795239 
-0.089038 0.478512 0.795239 
-0.089038 0.494456 0.676265 
-0.04549 0.494456 0.632717 
0.013997 0.494456 0.616777 
0.013997 0.494456 0.616777 
-0.089038 0.494456 0.795239 
-0.089038 0.494456 0.676265 
0.013997 0.494456 0.616777 
0.073484 0.494456 0.632717 
0.117032 0.494456 0.676265 
0.117032 0.494456 0.676265 
0.117032 0.494456 0.795239 
0.013997 0.494456 0.616777 
0.117032 0.494456 0.676265 
0.132971 0.494456 0.735752 
0.117032 0.494456 0.795239 
0.117032 0.494456 0.795239 
0.073484 0.494456 0.838787 
0.013997 0.494456 0.854726 
0.013997 0.494456 0.854726 
-0.089038 0.494456 0.795239 
0.117032 0.494456 0.795239 
0.013997 0.494456 0.854726 
-0.04549 0.494456 0.838787 
-0.089038 0.494456 0.795239 
0.013997 0.494456 0.616777 
0.117032 0.494456 0.795239 
-0.089038 0.494456 0.795239 
-0.104977 0.494456 0.735752 
-0.089038 0.494456 0.676265 
-0.089038 0.494456 0.795239 
3 0 2 1 200 200 200 255 
3 3 5 4 200 200 200 255 
3 6 8 7 200 200 200 255 
3 9 11 10 200 200 200 255 
3 12 14 13 200 200 200 255 
3 15 17 16 200 200 200 255 
3 18 20 19 200 200 200 255 
3 21 23 22 200 200 200 255 
3 24 26 25 200 200 200 255 
3 27 29 28 200 200 200 255 
3 30 32 31 200 200 200 255 
3 33 35 34 200 200 200 255 
3 36 38 37 200 200 200 255 
3 39 41 40 200 200 200 255 
3 42 44 43 200 200 200 255 
3 45 47 46 200 200 200 255 
3 48 50 49 200 200 200 255 
3 51 53 52 200 200 200 255 
3 54 56 55 200 200 200 255 
3 57 59 58 200 200 200 255 
3 60 62 61 200 200 200 255 
3 63 65 64 200 200 200 255 
3 66 68 67 200 200 200 255 
3 69 71 70 200 200 200 255 
3 72 74 73 200 200 200 255 
3 75 77 76 200 200 200 255 
3 78 80 79 200 200 200 255 
3 81 83 82 200 200 200 255 
3 84 86 85 200 200 200 255 
3 87 89 88 200 200 200 255 
3 90 92 91 200 200 200 255 
3 93 95 94 200 200 200 255 
3 96 98 97 200 200 200 255 
3 99 101 100 200 200 200 255 
3 102 104 103 200 200 200 255 
3 105 107 106 200 200 200 255 
3 108 110 109 200 200 200 255 
3 111 113 112 200 200 200 255 
3 114 116 115 200 200 200 255 
3 117 119 118 200 200 200 255 
3 120 122 121 200 200 200 255 
3 123 125 124 200 200 200 255 
3 126 128 127 200 200 200 255 
3 129 131 130 200 200 200 255 
3 132 134 133 200 200 200 255 
3 135 137 136 200 200 200 255 
3 138 140 139 200 200 200 255 
3 141 143 142 200 200 200 255 
3 144 146 145 200 200 200 255 
3 147 149 148 200 200 200 255 
3 150 152 151 200 200 200 255 
3 153 155 154 200 200 200 255 
3 156 158 157 200 200 200 255 
3 159 161 160 200 200 200 255 
3 162 164 163 200 200 200 255 
3 165 167 166 200 200 200 255 
3 168 170 169 200 200 200 255 
3 171 173 172 200 200 200 255 
3 174 176 175 200 200 200 255 
3 177 179 178 200 200 200 255 
3 180 182 181 200 200 200 255 
3 183 185 184 200 200 200 255 
3 186 188 187 200 200 200 255 
3 189 191 190 200 200 200 255 
3 192 194 193 200 200 200 255 
3 195 197 196 200 200 200 255 
3 198 200 199 200 200 200 255 
3 201 203 202 200 200 200 255 
3 204 206 205 200 200 200 255 
3 207 209 208 200 200 200 255 
3 210 212 211 200 200 200 255 
3 213 215 214 200 200 200 255 
3 216 218 217 200 200 200 255 
3 219 221 220 200 200 200 255 
3 222 224 223 200 200 200 255 
3 225 227 226 200 200 200 255 
3 228 230 229 200 200 200 255 
3 231 233 232 200 200 200 255 
3 234 236 235 200 200 200 255 
3 237 239 238 200 200 200 255 
3 240 242 241 200 200 200 255 
3 243 245 244 200 200 200 255 
3 246 248 247 200 200 200 255 
3 249 251 250 200 200 200 255 
3 252 254 253 200 200 200 255 
3 255 257 256 200 200 200 255 
3 258 260 259 200 200 200 255 
3 261 263 262 200 200 200 255 
3 264 266 265 200 200 200 255 
3 267 269 268 200 200 200 255 
3 270 272 271 200 200 200 255 
3 273 275 274 200 200 200 255 
3 276 278 277 200 200 200 255 
3 279 281 280 200 200 200 255 
3 282 284 283 200 200 200 255 
3 285 287 286 200 200 200 255 
3 288 290 289 200 200 200 255 
3 291 293 292 200 200 200 255 
3 294 296 295 200 200 200 255 
3 297 299 298 200 200 200 255 
3 300 302 301 200 200 200 255 
3 303 305 304 200 200 200 255 
3 306 308 307 200 200 200 255 
3 309 311 310 200 200 200 255 
3 312 314 313 200 200 200 255 
3 315 317 316 200 200 200 255 
3 318 320 319 200 200 200 255 
3 321 323 322 200 200 200 255 
3 324 326 325 200 200 200 255 
3 327 329 328 200 200 200 255 
3 330 332 331 200 200 200 255 
3 333 335 334 200 200 200 255 
3 336 338 337 200 200 200 255 
3 339 341 340 200 200 200 255 
3 342 344 343 200 200 200 255 
3 345 347 346 200 200 200 255 
3 348 350 349 200 200 200 255 
3 351 353 352 200 200 200 255 
3 354 356 355 200 200 200 255 
3 357 359 358 200 200 200 255 
3 360 362 361 200 200 200 255 
3 363 365 364 200 200 200 255 
3 366 368 367 200 200 200 255 
3 369 371 370 200 200 200 255 
3 372 374 373 200 200 200 255 
3 375 377 376 200 200 200 255 
3 378 380 379 200 200 200 255 
3 381 383 382 200 200 200 255 
3 384 386 385 200 200 200 255 
3 387 389 388 200 200 200 255 
3 390 392 391 200 200 200 255 
3 393 395 394 200 200 200 255 
3 396 398 397 200 200 200 255 
3 399 401 400 200 200 200 255 
3 402 404 403 200 200 200 255 
3 405 407 406 200 200 200 255 
3 408 410 409 200 200 200 255 
3 411 413 412 200 200 200 255 
3 414 416 415 200 200 200 255 
3 417 419 418 200 200 200 255 
3 420 422 421 200 200 200 255 
3 423 425 424 200 200 200 255 
3 426 428 427 200 200 200 255 
3 429 431 430 200 200 200 255 
3 432 434 433 200 200 200 255 
3 435 437 436 200 200 200 255 
3 438 440 439 200 200 200 255 
3 441 443 442 200 200 200 255 
3 444 446 445 200 200 200 255 
3 447 449 448 200 200 200 255 
3 450 452 451 200 200 200 255 
3 453 455 454 200 200 200 255 
3 456 458 457 200 200 200 255 
3 459 461 460 200 200 200 255 
3 462 464 463 200 200 200 255 
3 465 467 466 200 200 200 255 
3 468 470 469 200 200 200 255 
3 471 473 472 200 200 200 255 
3 474 476 475 200 200 200 255 
3 477 479 478 200 200 200 255 
3 480 482 481 200 200 200 255 
3 483 485 484 200 200 200 255 
3 486 488 487 200 200 200 255 
3 489 491 490 200 200 200 255 
3 492 494 493 200 200 200 255 
3 495 497 496 200 200 200 255 
3 498 500 499 200 200 200 255 
3 501 503 502 200 200 200 255 
3 504 506 505 200 200 200 255 
3 507 509 508 200 200 200 255 
3 510 512 511 200 200 200 255 
3 513 515 514 200 200 200 255 
3 516 518 517 200 200 200 255 
3 519 521 520 200 200 200 255 
3 522 524 523 200 200 200 255 
3 525 527 526 200 200 200 255 
3 528 530 529 200 200 200 255 
3 531 533 532 200 200 200 255 
3 534 536 535 200 200 200 255 
3 537 539 538 200 200 200 255 
3 540 542 541 200 200 200 255 
3 543 545 544 200 200 200 255 
3 546 548 547 200 200 200 255 
3 549 551 550 200 200 200 255 
3 552 554 553 200 200 200 255 
3 555 557 556 200 200 200 255 
3 558 560 559 200 200 200 255 
3 561 563 562 200 200 200 255 
3 564 566 565 200 200 200 255 
3 567 569 568 200 200 200 255 
3 570 572 571 200 200 200 255 
3 573 575 574 200 200 200 255 
3 576 578 577 200 200 200 255 
3 579 581 580 200 200 200 255 
3 582 584 583 200 200 200 255 
3 585 587 586 200 200 200 255 
3 588 590 589 200 200 200 255 
3 591 593 592 200 200 200 255 
3 594 596 595 200 200 200 255 
3 597 599 598 200 200 200 255 
3 600 602 601 200 200 200 255 
3 603 605 604 200 200 200 255 
3 606 608 607 200 200 200 255 
3 609 611 610 200 200 200 255 
3 612 614 613 200 200 200 255 
3 615 617 616 200 200 200 255 
3 618 620 619 200 200 200 255 
3 621 623 622 200 200 200 255 
3 624 626 625 200 200 200 255 
3 627 629 628 200 200 200 255 
3 630 632 631 200 200 200 255 
3 633 635 634 200 200 200 255 
3 636 638 637 200 200 200 255 
3 639 641 640 200 200 200 255 
3 642 644 643 200 200 200 255 
3 645 647 646 200 200 200 255 
3 648 650 649 200 200 200 255 
3 651 653 652 200 200 200 255 
3 654 656 655 200 200 200 255 
3 657 659 658 200 200 200 255 
3 660 662 661 200 200 200 255 
3 663 665 664 200 200 200 255 
3 666 668 667 200 200 200 255 
3 669 671 670 200 200 200 255 
3 672 674 673 200 200 200 255 
3 675 677 676 200 200 200 255 
3 678 680 679 200 200 200 255 
3 681 683 682 200 200 200 255 
3 684 686 685 200 200 200 255 
3 687 689 688 200 200 200 255 
3 690 692 691 200 200 200 255 
3 693 695 694 200 200 200 255 
3 696 698 697 200 200 200 255 
3 699 701 700 200 200 200 255 
3 702 704 703 200 200 200 255 
3 705 707 706 200 200 200 255 
3 708 710 709 200 200 200 255 
3 711 713 712 200 200 200 255 
3 714 716 715 200 200 200 255 
3 717 719 718 200 200 200 255 
3 720 722 721 200 200 200 255 
3 723 725 724 200 200 200 255 
3 726 728 727 200 200 200 255 
3 729 731 730 200 200 200 255 
3 732 734 733 200 200 200 255 
3 735 737 736 200 200 200 255 
3 738 740 739 200 200 200 255 
3 741 743 742 200 200 200 255 
3 744 746 745 200 200 200 255 
3 747 749 748 200 200 200 255 
3 750 752 751 200 200 200 255 
3 753 755 754 200 200 200 255 
3 756 758 757 200 200 200 255 
3 759 761 760 200 200 200 255 
3 762 764 763 200 200 200 255 
3 765 767 766 200 200 200 255 
3 768 770 769 200 200 200 255 
3 771 773 772 200 200 200 255 
3 774 776 775 200 200 200 255 
3 777 779 778 200 200 200 255 
3 780 782 781 200 200 200 255 
3 783 785 784 200 200 200 255 
3 786 788 787 200 200 200 255 
3 789 791 790 200 200 200 255 
3 792 794 793 200 200 200 255 
3 795 797 796 200 200 200 255 
3 798 800 799 200 200 200 255 
3 801 803 802 200 200 200 255 
3 804 806 805 200 200 200 255 
3 807 809 808 200 200 200 255 
3 810 812 811 200 200 200 255 
3 813 815 814 200 200 200 255 
3 816 818 817 200 200 200 255 
3 819 821 820 200 200 200 255 
3 822 824 823 200 200 200 255 
3 825 827 826 200 200 200 255 
3 828 830 829 200 200 200 255 
3 831 833 832 200 200 200 255 
3 834 836 835 200 200 200 255 
3 837 839 838 200 200 200 255 
3 840 842 841 200 200 200 255 
3 843 845 844 200 200 200 255 
3 846 848 847 200 200 200 255 
3 849 851 850 200 200 200 255 
3 852 854 853 200 200 200 255 
3 855 857 856 200 200 200 255 
3 858 860 859 200 200 200 255 
3 861 863 862 200 200 200 255 
3 864 866 865 200 200 200 255 
3 867 869 868 200 200 200 255 
3 870 872 871 200 200 200 255 
3 873 875 874 200 200 200 255 
3 876 878 877 200 200 200 255 
3 879 881 880 200 200 200 255 
3 882 884 883 200 200 200 255 
3 885 887 886 200 200 200 255 
3 888 890 889 200 200 200 255 
3 891 893 892 200 200 200 255 
3 894 896 895 200 200 200 255 
3 897 899 898 200 200 200 255 
3 900 902 901 200 200 200 255 
3 903 905 904 200 200 200 255 
3 906 908 907 200 200 200 255 
3 909 911 910 200 200 200 255 
3 912 914 913 200 200 200 255 
3 915 917 916 200 200 200 255 
3 918 920 919 200 200 200 255 
3 921 923 922 200 200 200 255 
3 924 926 925 200 200 200 255 
3 927 929 928 200 200 200 255 
3 930 932 931 200 200 200 255 
3 933 935 934 200 200 200 255 
3 936 938 937 200 200 200 255 
3 939 941 940 200 200 200 255 
3 942 944 943 200 200 200 255 
3 945 947 946 200 200 200 255 
3 948 950 949 200 200 200 255 
3 951 953 952 200 200 200 255 
3 954 956 955 200 200 200 255 
3 957 959 958 200 200 200 255 
3 960 962 961 200 200 200 255 
3 963 965 964 200 200 200 255 
3 966 968 967 200 200 200 255 
3 969 971 970 200 200 200 255 
3 972 974 973 200 200 200 255 
3 975 977 976 200 200 200 255 
3 978 980 979 200 200 200 255 
3 981 983 982 200 200 200 255 
3 984 986 985 200 200 200 255 
3 987 989 988 200 200 200 255 
3 990 992 991 200 200 200 255 
3 993 995 994 200 200 200 255 
3 996 998 997 200 200 200 255 
3 999 1001 1000 200 200 200 255 
3 1002 1004 1003 200 200 200 255 
3 1005 1007 1006 200 200 200 255 
3 1008 1010 1009 200 200 200 255 
3 1011 1013 1012 200 200 200 255 
3 1014 1016 1015 200 200 200 255 
3 1017 1019 1018 200 200 200 255 
3 1020 1022 1021 200 200 200 255 
3 1023 1025 1024 200 200 200 255 
3 1026 1028 1027 200 200 200 255 
3 1029 1031 1030 200 200 200 255 
3 1032 1034 1033 200 200 200 255 
3 1035 1037 1036 200 200 200 255 
3 1038 1040 1039 200 200 200 255 
3 1041 1043 1042 200 200 200 255 
3 1044 1046 1045 200 200 200 255 
3 1047 1049 1048 200 200 200 255 
