ply
format ascii 1.0
comment Created by Open Asset Import Library - http://assimp.sf.net (v5.0.1588609223)
element vertex 706
property float x
property float y
property float z
property float nx
property float ny
property float nz
property float s
property float t
element face 178
property list uchar int vertex_index
end_header
-0.774382 1.034893 0.408674 0 0.69422001 0.71976298 0.29152301 0.81075698
-0.774382 1.131602 0.25047699 0 0.92119497 0.389101 0.169396 0.81075603
-0.96172899 1.131602 0.25047699 0 0.92119497 0.389101 0.169394 0.99840701
-0.96172899 1.034893 0.408674 0 0.69422001 0.71976298 0.29152101 0.99840897
-0.774382 0 0.50678599 0 0.00098200003 1 0.99980801 0.81076401
-0.774382 0.86205101 0.50593901 0 0.25396499 0.96721399 0.42337501 0.81075799
-0.96172899 0.86205101 0.50593901 0 0.25396499 0.96721399 0.42337301 0.99840999
-0.96172899 0 0.50678599 0 0.00098200003 1 0.999807 0.99841601
0.774382 0 -0.50678599 0 0.00098200003 -1 0.999955 0.81087798
0.774382 0.86205101 -0.50593901 0 0.25396401 -0.96721399 0.42066699 0.81086397
0.96172899 0.86205101 -0.50593901 0 0.25396401 -0.96721399 0.420665 0.99884498
0.96172899 0 -0.50678599 0 0.00098200003 -1 0.99995202 0.99885798
0.96172899 1.131602 -0.25047699 0 0.92119497 -0.389101 0.171546 0.99883801
0.774382 1.131602 -0.25047699 0 0.92119497 -0.389101 0.17154799 0.810857
0.774382 1.174867 -0.081468999 0 0.99215901 -0.124979 0.056325 0.81085497
0.96172899 1.174867 -0.081468999 0 0.99215901 -0.124979 0.056322999 0.99883598
0.96172899 1.174867 0.081468999 0 0.99215901 0.12498 -0.052142002 0.998833
0.774382 1.174867 0.081468999 0 0.99215901 0.12498 -0.052140001 0.81085199
0.774382 1.131602 0.25047699 0 0.92119497 0.389101 -0.168605 0.81085098
0.96172899 1.131602 0.25047699 0 0.92119497 0.389101 -0.168606 0.99883199
0.96172899 1.034893 -0.40867499 0 0.69422001 -0.71976298 0.29143301 0.99884099
0.774382 1.034893 -0.40867499 0 0.69422001 -0.71976298 0.291435 0.81085998
0.774382 1.131602 -0.25047699 0 0.92119497 -0.389101 0.17154799 0.810857
0.96172899 1.131602 -0.25047699 0 0.92119497 -0.389101 0.171546 0.99883801
-0.96172899 0.86205101 0.50593901 0 0.25396499 0.96721399 0.42337301 0.99840999
-0.774382 0.86205101 0.50593901 0 0.25396499 0.96721399 0.42337501 0.81075799
-0.774382 1.034893 0.408674 0 0.69422001 0.71976298 0.29152301 0.81075698
-0.96172899 1.034893 0.408674 0 0.69422001 0.71976298 0.29152101 0.99840897
0.96172899 0.86205101 -0.50593901 0 0.25396401 -0.96721399 0.420665 0.99884498
0.774382 0.86205101 -0.50593901 0 0.25396401 -0.96721399 0.42066699 0.81086397
0.774382 1.034893 -0.40867499 0 0.69422001 -0.71976298 0.291435 0.81085998
0.96172899 1.034893 -0.40867499 0 0.69422001 -0.71976298 0.29143301 0.99884099
0.96172899 1.174867 -0.081468999 0 0.99215901 -0.124979 0.056322999 0.99883598
0.774382 1.174867 -0.081468999 0 0.99215901 -0.124979 0.056325 0.81085497
0.774382 1.174867 0.081468999 0 0.99215901 0.12498 -0.052140001 0.81085199
0.96172899 1.174867 0.081468999 0 0.99215901 0.12498 -0.052142002 0.998833
0.96172899 1.034893 0.408674 0 0.69422001 0.71976298 -0.29073599 0.99883097
0.96172899 1.131602 0.25047699 0 0.92119497 0.389101 -0.168606 0.99883199
0.774382 1.131602 0.25047699 0 0.92119497 0.389101 -0.168605 0.81085098
0.774382 1.034893 0.408674 0 0.69422001 0.71976298 -0.29073501 0.81085002
0.96172899 0 0.50678599 0 0.00098200003 1 -0.99904001 0.998824
0.96172899 0.86205101 0.50593901 0 0.25396499 0.96721399 -0.42259201 0.99882901
0.774382 0.86205101 0.50593901 0 0.25396499 0.96721399 -0.42258999 0.810848
0.774382 0 0.50678599 0 0.00098200003 1 -0.99903899 0.81084299
-0.96172899 0 -0.50678599 0 0.00098200003 -1 -0.999134 0.99838102
-0.96172899 0.86205101 -0.50593901 0 0.25396401 -0.96721399 -0.419862 0.99839503
-0.774382 0.86205101 -0.50593901 0 0.25396401 -0.96721399 -0.41986001 0.81074399
-0.774382 0 -0.50678599 0 0.00098200003 -1 -0.99913198 0.81072998
-0.96172899 1.131602 -0.25047699 0 0.92119497 -0.389101 -0.17074899 0.99840099
-0.96172899 1.174867 -0.081468999 0 0.99215901 -0.124979 -0.05553 0.99840498
-0.774382 1.174867 -0.081468999 0 0.99215901 -0.124979 -0.055528 0.81075299
-0.774382 1.131602 -0.25047699 0 0.92119497 -0.389101 -0.170747 0.81074899
-0.96172899 1.174867 0.081468999 0 0.99215901 0.12498 0.052933 0.99840599
-0.96172899 1.131602 0.25047699 0 0.92119497 0.389101 0.169394 0.99840701
-0.774382 1.131602 0.25047699 0 0.92119497 0.389101 0.169396 0.81075603
-0.774382 1.174867 0.081468999 0 0.99215901 0.12498 0.052933998 0.81075501
-0.96172899 1.034893 -0.40867499 0 0.69422001 -0.71976298 -0.29063401 0.99839801
-0.96172899 1.131602 -0.25047699 0 0.92119497 -0.389101 -0.17074899 0.99840099
-0.774382 1.131602 -0.25047699 0 0.92119497 -0.389101 -0.170747 0.81074899
-0.774382 1.034893 -0.40867499 0 0.69422001 -0.71976298 -0.29063201 0.81074703
0.96172899 0.86205101 0.50593901 0 0.25396499 0.96721399 -0.42259201 0.99882901
0.96172899 1.034893 0.408674 0 0.69422001 0.71976298 -0.29073599 0.99883097
0.774382 1.034893 0.408674 0 0.69422001 0.71976298 -0.29073501 0.81085002
0.774382 0.86205101 0.50593901 0 0.25396499 0.96721399 -0.42258999 0.810848
-0.96172899 0.86205101 -0.50593901 0 0.25396401 -0.96721399 -0.419862 0.99839503
-0.96172899 1.034893 -0.40867499 0 0.69422001 -0.71976298 -0.29063401 0.99839801
-0.774382 1.034893 -0.40867499 0 0.69422001 -0.71976298 -0.29063201 0.81074703
-0.774382 0.86205101 -0.50593901 0 0.25396401 -0.96721399 -0.41986001 0.81074399
-0.96172899 1.174867 -0.081468999 0 0.99215901 -0.124979 -0.05553 0.99840498
-0.96172899 1.174867 0.081468999 0 0.99215901 0.12498 0.052933 0.99840599
-0.774382 1.174867 0.081468999 0 0.99215901 0.12498 0.052933998 0.81075501
-0.774382 1.174867 -0.081468999 0 0.99215901 -0.124979 -0.055528 0.81075299
-0.387036 1.0168689 0.39004499 0 0.695315 0.71870601 1.483708 0.49057901
-0.387036 1.107705 0.24043199 0 0.921875 0.38748801 1.483708 0.57499802
-0.774382 1.107705 0.24043199 0 0.921875 0.38748801 1.6217279 0.57499897
-0.774382 1.0168689 0.39004499 0 0.695315 0.71870601 1.6217279 0.49057999
-0.387036 0 0.480865 0 0 1 1.483709 0.00098500005
-0.387036 0.85548103 0.480865 0 0.25349 0.96733803 1.483708 0.39943799
-0.774382 0.85548103 0.480865 0 0.25349 0.96733803 1.6217279 0.39943901
-0.774382 0 0.480865 0 0 1 1.621729 0.00098699995
0.387036 0 -0.480865 0 0 -1 1.4837101 0.001073
0.387036 0.85548103 -0.480865 0 0.25349 -0.96733803 1.483707 0.40148699
0.774382 0.85548103 -0.480865 0 0.25349 -0.96733803 1.621727 0.40148899
0.774382 0 -0.480865 0 0 -1 1.621731 0.001075
0.387036 1.107705 -0.24043199 0 0.921875 -0.38748801 1.483705 0.57368302
0.387036 1.149148 -0.078235 0 0.99218798 -0.124752 1.483705 0.65332699
0.774382 1.149148 -0.078235 0 0.99218798 -0.124752 1.6217251 0.65333003
0.774382 1.107705 -0.24043199 0 0.921875 -0.38748801 1.6217251 0.573686
0.387036 1.149148 0.078235 0 0.99218798 0.124752 1.207888 0.65549701
0.387036 1.107705 0.24043199 0 0.921875 0.38748801 1.207888 0.57499498
0.774382 1.107705 0.24043199 0 0.921875 0.38748801 1.069868 0.57499403
0.774382 1.149148 0.078235 0 0.99218798 0.124752 1.069868 0.655496
0.387036 1.0168689 -0.39004499 0 0.695315 -0.71870601 1.483706 0.49081501
0.387036 1.107705 -0.24043199 0 0.921875 -0.38748801 1.483705 0.57368302
0.774382 1.107705 -0.24043199 0 0.921875 -0.38748801 1.6217251 0.573686
0.774382 1.0168689 -0.39004499 0 0.695315 -0.71870601 1.621726 0.49081701
-0.387036 0.85548103 0.480865 0 0.25349 0.96733803 1.483708 0.39943799
-0.387036 1.0168689 0.39004499 0 0.695315 0.71870601 1.483708 0.49057901
-0.774382 1.0168689 0.39004499 0 0.695315 0.71870601 1.6217279 0.49057999
-0.774382 0.85548103 0.480865 0 0.25349 0.96733803 1.6217279 0.39943901
0.387036 0.85548103 -0.480865 0 0.25349 -0.96733803 1.483707 0.40148699
0.387036 1.0168689 -0.39004499 0 0.695315 -0.71870601 1.483706 0.49081501
0.774382 1.0168689 -0.39004499 0 0.695315 -0.71870601 1.621726 0.49081701
0.774382 0.85548103 -0.480865 0 0.25349 -0.96733803 1.621727 0.40148899
0.387036 1.149148 -0.078235 0 0.99218798 -0.124752 1.483705 0.592951
0.387036 1.149148 0.078235 0 0.99218798 0.124752 1.483704 0.66792399
0.774382 1.149148 0.078235 0 0.99218798 0.124752 1.621724 0.66792703
0.774382 1.149148 -0.078235 0 0.99218798 -0.124752 1.6217251 0.59295303
0.774382 1.0168689 0.39004499 0 0.695315 0.71870601 1.069868 0.49057499
0.774382 1.107705 0.24043199 0 0.921875 0.38748801 1.069868 0.57499403
0.387036 1.107705 0.24043199 0 0.921875 0.38748801 1.207888 0.57499498
0.387036 1.0168689 0.39004499 0 0.695315 0.71870601 1.207888 0.490576
0.774382 0 0.480865 0 0 1 1.069869 0.00098200003
0.774382 0.85548103 0.480865 0 0.25349 0.96733803 1.069868 0.399434
0.387036 0.85548103 0.480865 0 0.25349 0.96733803 1.207889 0.39943501
0.387036 0 0.480865 0 0 1 1.207889 0.00098300003
-0.774382 0 -0.480865 0 0 -1 1.06987 0.001066
-0.774382 0.85548103 -0.480865 0 0.25349 -0.96733803 1.069867 0.40147999
-0.387036 0.85548103 -0.480865 0 0.25349 -0.96733803 1.2078869 0.40148199
-0.387036 0 -0.480865 0 0 -1 1.207891 0.001068
-0.774382 1.107705 -0.24043199 0 0.921875 -0.38748801 1.0698659 0.57367599
-0.774382 1.149148 -0.078235 0 0.99218798 -0.124752 1.069865 0.65332103
-0.387036 1.149148 -0.078235 0 0.99218798 -0.124752 1.207885 0.65332299
-0.387036 1.107705 -0.24043199 0 0.921875 -0.38748801 1.207886 0.57367897
-0.774382 1.149148 0.078235 0 0.99218798 0.124752 1.6217279 0.65550101
-0.774382 1.107705 0.24043199 0 0.921875 0.38748801 1.6217279 0.57499897
-0.387036 1.107705 0.24043199 0 0.921875 0.38748801 1.483708 0.57499802
-0.387036 1.149148 0.078235 0 0.99218798 0.124752 1.483708 0.65549999
-0.774382 1.0168689 -0.39004499 0 0.695315 -0.71870601 1.0698659 0.49080801
-0.774382 1.107705 -0.24043199 0 0.921875 -0.38748801 1.0698659 0.57367599
-0.387036 1.107705 -0.24043199 0 0.921875 -0.38748801 1.207886 0.57367897
-0.387036 1.0168689 -0.39004499 0 0.695315 -0.71870601 1.207886 0.49081001
0.774382 0.85548103 0.480865 0 0.25349 0.96733803 1.069868 0.399434
0.774382 1.0168689 0.39004499 0 0.695315 0.71870601 1.069868 0.49057499
0.387036 1.0168689 0.39004499 0 0.695315 0.71870601 1.207888 0.490576
0.387036 0.85548103 0.480865 0 0.25349 0.96733803 1.207889 0.39943501
-0.774382 0.85548103 -0.480865 0 0.25349 -0.96733803 1.069867 0.40147999
-0.774382 1.0168689 -0.39004499 0 0.695315 -0.71870601 1.0698659 0.49080801
-0.387036 1.0168689 -0.39004499 0 0.695315 -0.71870601 1.207886 0.49081001
-0.387036 0.85548103 -0.480865 0 0.25349 -0.96733803 1.2078869 0.40148199
-0.774382 1.149148 -0.078235 0 0.99218798 -0.124752 1.069865 0.59294403
-0.774382 1.149148 0.078235 0 0.99218798 0.124752 1.069864 0.66791803
-0.387036 1.149148 0.078235 0 0.99218798 0.124752 1.207884 0.66791999
-0.387036 1.149148 -0.078235 0 0.99218798 -0.124752 1.207885 0.59294599
-0.26344499 1.0168689 0.39004499 0 0.695315 0.71870601 1.43967 0.49057901
0.26344499 1.0168689 0.39004499 0 0.695315 0.71870601 1.251927 0.49057701
0.26344499 1.107705 0.24043199 0 0.921875 0.38748801 1.251927 0.57499498
-0.26344499 1.107705 0.24043199 0 0.921875 0.38748801 1.439669 0.57499701
-0.26344499 0 0.480865 0 0 1 1.43967 0.00098500005
0.26344499 0 0.480865 0 0 1 1.251927 0.00098300003
0.26344499 0.85548103 0.480865 0 0.25349 0.96733803 1.251927 0.399436
-0.26344499 0.85548103 0.480865 0 0.25349 0.96733803 1.43967 0.39943701
0.26344499 0 -0.480865 0 0 -1 1.439672 0.001072
-0.26344499 0 -0.480865 0 0 -1 1.251929 0.001069
-0.26344499 0.85548103 -0.480865 0 0.25349 -0.96733803 1.2519259 0.401483
0.26344499 0.85548103 -0.480865 0 0.25349 -0.96733803 1.439669 0.40148601
0.26344499 1.107705 -0.24043199 0 0.921875 -0.38748801 1.439667 0.57368302
-0.26344499 1.107705 -0.24043199 0 0.921875 -0.38748801 1.251924 0.57367897
-0.26344499 1.149148 -0.078235 0 0.99218798 -0.124752 1.251923 0.65332299
0.26344499 1.149148 -0.078235 0 0.99218798 -0.124752 1.439666 0.65332699
0.26344499 1.149148 0.078235 0 0.99218798 0.124752 1.251927 0.65549803
-0.26344499 1.149148 0.078235 0 0.99218798 0.124752 1.439669 0.65549999
-0.26344499 1.107705 0.24043199 0 0.921875 0.38748801 1.439669 0.57499701
0.26344499 1.107705 0.24043199 0 0.921875 0.38748801 1.251927 0.57499498
0.26344499 1.0168689 -0.39004499 0 0.695315 -0.71870601 1.4396679 0.490814
-0.26344499 1.0168689 -0.39004499 0 0.695315 -0.718705 1.251925 0.49081099
-0.26344499 1.107705 -0.24043199 0 0.921875 -0.38748801 1.251924 0.57367897
0.26344499 1.107705 -0.24043199 0 0.921875 -0.38748801 1.439667 0.57368302
-0.26344499 0.85548103 0.480865 0 0.25349 0.96733803 1.43967 0.39943701
0.26344499 0.85548103 0.480865 0 0.25349 0.96733803 1.251927 0.399436
0.26344499 1.0168689 0.39004499 0 0.695315 0.71870601 1.251927 0.49057701
-0.26344499 1.0168689 0.39004499 0 0.695315 0.71870601 1.43967 0.49057901
0.26344499 0.85548103 -0.480865 0 0.25349 -0.96733803 1.439669 0.40148601
-0.26344499 0.85548103 -0.480865 0 0.25349 -0.96733803 1.2519259 0.401483
-0.26344499 1.0168689 -0.39004499 0 0.695315 -0.718705 1.251925 0.49081099
0.26344499 1.0168689 -0.39004499 0 0.695315 -0.71870601 1.4396679 0.490814
0.26344499 1.149148 -0.078235 0 0.99218798 -0.124752 1.439666 0.59294999
-0.26344499 1.149148 -0.078235 0 0.99218798 -0.124752 1.251923 0.59294701
-0.26344499 1.149148 0.078235 0 0.99218798 0.124752 1.251923 0.66791999
0.26344499 1.149148 0.078235 0 0.99218798 0.124752 1.439666 0.66792399
-0.387036 1.024706 0.39814499 0 0.69482398 0.71917999 0.35445401 0.68721098
-0.26344499 1.024706 0.39814499 0 0.69482398 0.71917999 0.35445401 0.78039002
-0.26344499 1.118095 0.244799 0 0.92157 0.38821101 0.41549799 0.78039002
-0.387036 1.118095 0.244799 0 0.92157 0.38821101 0.41549799 0.68721199
-0.387036 0 0.49213499 0 0.00042900001 1 0.000424 0.68721002
-0.26344499 0 0.49213499 0 0.00042900001 1 0.000424 0.78038901
-0.26344499 0.85833699 0.49176699 0 0.25369701 0.96728402 0.28854901 0.78039002
-0.387036 0.85833699 0.49176699 0 0.25369701 0.96728402 0.28854901 0.68721098
0.387036 0 -0.49213499 0 0.00042900001 -1 0.99956697 0.78046298
0.26344499 0 -0.49213499 0 0.00042900001 -1 0.99956799 0.6875
0.26344499 0.85833699 -0.49176699 0 0.25369701 -0.96728402 0.71004099 0.68749303
0.387036 0.85833699 -0.49176699 0 0.25369701 -0.96728402 0.71003997 0.78045601
0.387036 1.118095 -0.244799 0 0.92157 -0.38821101 0.58552998 0.78045201
0.26344499 1.118095 -0.244799 0 0.92157 -0.38821101 0.585531 0.68748999
0.26344499 1.1603301 -0.079640999 0 0.99217498 -0.124853 0.52794302 0.68748802
0.387036 1.1603301 -0.079640999 0 0.99217498 -0.124853 0.527942 0.780451
0.387036 1.1603301 0.079640999 0 0.99217498 0.124854 0.47373199 0.78044999
0.26344499 1.1603301 0.079640999 0 0.99217498 0.124854 0.47373199 0.68748701
0.26344499 1.118095 0.244799 0 0.92157 0.38821101 0.41552299 0.68748599
0.387036 1.118095 0.244799 0 0.92157 0.38821101 0.41552299 0.78044999
0.387036 1.024706 -0.39814499 0 0.69482398 -0.71917999 0.64545 0.78045398
0.26344499 1.024706 -0.39814499 0 0.69482398 -0.71917999 0.64545101 0.687491
0.26344499 1.118095 -0.244799 0 0.92157 -0.38821101 0.585531 0.68748999
0.387036 1.118095 -0.244799 0 0.92157 -0.38821101 0.58552998 0.78045201
-0.387036 0.85833699 0.49176699 0 0.25369701 0.96728402 0.28854901 0.68721098
-0.26344499 0.85833699 0.49176699 0 0.25369701 0.96728402 0.28854901 0.78039002
-0.26344499 1.024706 0.39814499 0 0.69482398 0.71917999 0.35445401 0.78039002
-0.387036 1.024706 0.39814499 0 0.69482398 0.71917999 0.35445401 0.68721098
0.387036 0.85833699 -0.49176699 0 0.25369701 -0.96728402 0.71003997 0.78045601
0.26344499 0.85833699 -0.49176699 0 0.25369701 -0.96728402 0.71004099 0.68749303
0.26344499 1.024706 -0.39814499 0 0.69482398 -0.71917999 0.64545101 0.687491
0.387036 1.024706 -0.39814499 0 0.69482398 -0.71917999 0.64545 0.78045398
0.387036 1.1603301 -0.079640999 0 0.99217498 -0.124853 0.527942 0.780451
0.26344499 1.1603301 -0.079640999 0 0.99217498 -0.124853 0.52794302 0.68748802
0.26344499 1.1603301 0.079640999 0 0.99217498 0.124854 0.47373199 0.68748701
0.387036 1.1603301 0.079640999 0 0.99217498 0.124854 0.47373199 0.78044999
0.26344499 1.024706 0.39814499 0 0.69482398 0.71917999 0.35448301 0.68748599
0.387036 1.024706 0.39814499 0 0.69482398 0.71917999 0.35448301 0.78044999
0.387036 1.118095 0.244799 0 0.92157 0.38821101 0.41552299 0.78044999
0.26344499 1.118095 0.244799 0 0.92157 0.38821101 0.41552299 0.68748599
0.26344499 0 0.49213499 0 0.00042900001 1 0.00047299999 0.68748498
0.387036 0 0.49213499 0 0.00042900001 1 0.00047299999 0.78044802
0.387036 0.85833699 0.49176699 0 0.25369701 0.96728402 0.28858101 0.78044897
0.26344499 0.85833699 0.49176699 0 0.25369701 0.96728402 0.28858101 0.68748599
-0.26344499 0 -0.49213499 0 0.00042900001 -1 0.99957502 0.78040397
-0.387036 0 -0.49213499 0 0.00042900001 -1 0.99957597 0.68722498
-0.387036 0.85833699 -0.49176699 0 0.25369701 -0.96728402 0.71003199 0.68721801
-0.26344499 0.85833699 -0.49176699 0 0.25369701 -0.96728402 0.71003199 0.78039598
-0.26344499 1.118095 -0.244799 0 0.92157 -0.38821101 0.58551502 0.78039402
-0.387036 1.118095 -0.244799 0 0.92157 -0.38821101 0.58551502 0.68721497
-0.387036 1.1603301 -0.079640999 0 0.99217498 -0.124853 0.527924 0.687213
-0.26344499 1.1603301 -0.079640999 0 0.99217498 -0.124853 0.52792299 0.78039199
-0.26344499 1.1603301 0.079640999 0 0.99217498 0.124854 0.47371 0.78039098
-0.387036 1.1603301 0.079640999 0 0.99217498 0.124854 0.47371 0.68721199
-0.387036 1.118095 0.244799 0 0.92157 0.38821101 0.41549799 0.68721199
-0.26344499 1.118095 0.244799 0 0.92157 0.38821101 0.41549799 0.78039002
-0.26344499 1.024706 -0.39814499 0 0.69482398 -0.71917999 0.64543802 0.78039402
-0.387036 1.024706 -0.39814499 0 0.69482398 -0.71917999 0.64543802 0.68721598
-0.387036 1.118095 -0.244799 0 0.92157 -0.38821101 0.58551502 0.68721497
-0.26344499 1.118095 -0.244799 0 0.92157 -0.38821101 0.58551502 0.78039402
0.26344499 0.85833699 0.49176699 0 0.25369701 0.96728402 0.28858101 0.68748599
0.387036 0.85833699 0.49176699 0 0.25369701 0.96728402 0.28858101 0.78044897
0.387036 1.024706 0.39814499 0 0.69482398 0.71917999 0.35448301 0.78044999
0.26344499 1.024706 0.39814499 0 0.69482398 0.71917999 0.35448301 0.68748599
-0.26344499 0.85833699 -0.49176699 0 0.25369701 -0.96728402 0.71003199 0.78039598
-0.387036 0.85833699 -0.49176699 0 0.25369701 -0.96728402 0.71003199 0.68721801
-0.387036 1.024706 -0.39814499 0 0.69482398 -0.71917999 0.64543802 0.68721598
-0.26344499 1.024706 -0.39814499 0 0.69482398 -0.71917999 0.64543802 0.78039402
-0.26344499 1.1603301 -0.079640999 0 0.99217498 -0.124853 0.52792299 0.78039199
-0.387036 1.1603301 -0.079640999 0 0.99217498 -0.124853 0.527924 0.687213
-0.387036 1.1603301 0.079640999 0 0.99217498 0.124854 0.47371 0.68721199
-0.26344499 1.1603301 0.079640999 0 0.99217498 0.124854 0.47371 0.78039098
-0.387036 1.107705 0.24043199 -1 0 -0 1.483708 0.57499802
-0.387036 1.0168689 0.39004499 -1 0 -0 1.483708 0.49057901
-0.387036 1.024706 0.39814499 -1 0 -0 0.35445401 0.68721098
-0.387036 1.118095 0.244799 -1 0 -0 0.41549799 0.68721199
-0.387036 1.0168689 0.39004499 -1 0 -0 1.483708 0.49057901
-0.387036 0.85548103 0.480865 -1 0 -0 1.483708 0.39943799
-0.387036 0.85833699 0.49176699 -1 0 -0 0.28854901 0.68721098
-0.387036 1.024706 0.39814499 -1 0 -0 0.35445401 0.68721098
-0.387036 0.85548103 0.480865 -1 0 -0 1.483708 0.39943799
-0.387036 0 0.480865 -1 0 -0 1.483709 0.00098500005
-0.387036 0 0.49213499 -1 0 -0 0.000424 0.68721002
-0.387036 0.85833699 0.49176699 -1 0 -0 0.28854901 0.68721098
-0.26344499 0 0.480865 1 0 -0 1.43967 0.00098500005
-0.26344499 0.85548103 0.480865 1 0 -0 1.43967 0.39943701
-0.26344499 0.85833699 0.49176699 1 0 -0 0.28854901 0.78039002
-0.26344499 0 0.49213499 1 0 -0 0.000424 0.78038901
-0.26344499 0.85548103 0.480865 1 0 -0 1.43967 0.39943701
-0.26344499 1.0168689 0.39004499 1 0 -0 1.43967 0.49057901
-0.26344499 1.024706 0.39814499 1 0 -0 0.35445401 0.78039002
-0.26344499 0.85833699 0.49176699 1 0 -0 0.28854901 0.78039002
-0.26344499 1.0168689 0.39004499 1 0 -0 1.43967 0.49057901
-0.26344499 1.107705 0.24043199 1 0 -0 1.439669 0.57499701
-0.26344499 1.118095 0.244799 1 0 -0 0.41549799 0.78039002
-0.26344499 1.024706 0.39814499 1 0 -0 0.35445401 0.78039002
-0.26344499 1.107705 0.24043199 1 0 -0 1.439669 0.57499701
-0.26344499 1.149148 0.078235 1 0 -0 1.439669 0.65549999
-0.26344499 1.1603301 0.079640999 1 0 -0 0.47371 0.78039098
-0.26344499 1.118095 0.244799 1 0 -0 0.41549799 0.78039002
-0.26344499 1.149148 0.078235 1 0 -0 1.251923 0.66791999
-0.26344499 1.149148 -0.078235 1 0 -0 1.251923 0.59294701
-0.26344499 1.1603301 -0.079640999 1 0 -0 0.52792299 0.78039199
-0.26344499 1.1603301 0.079640999 1 0 -0 0.47371 0.78039098
-0.26344499 1.149148 -0.078235 1 0 -0 1.251923 0.65332299
-0.26344499 1.107705 -0.24043199 1 0 -0 1.251924 0.57367897
-0.26344499 1.118095 -0.244799 1 0 -0 0.58551502 0.78039402
-0.26344499 1.1603301 -0.079640999 1 0 -0 0.52792299 0.78039199
-0.26344499 1.107705 -0.24043199 1 0 -0 1.251924 0.57367897
-0.26344499 1.0168689 -0.39004499 1 0 -0 1.251925 0.49081099
-0.26344499 1.024706 -0.39814499 1 0 -0 0.64543802 0.78039402
-0.26344499 1.118095 -0.244799 1 0 -0 0.58551502 0.78039402
-0.26344499 1.0168689 -0.39004499 1 0 -0 1.251925 0.49081099
-0.26344499 0.85548103 -0.480865 1 0 -0 1.2519259 0.401483
-0.26344499 0.85833699 -0.49176699 1 0 -0 0.71003199 0.78039598
-0.26344499 1.024706 -0.39814499 1 0 -0 0.64543802 0.78039402
-0.26344499 0.85548103 -0.480865 1 0 -0 1.2519259 0.401483
-0.26344499 0 -0.480865 1 0 -0 1.251929 0.001069
-0.26344499 0 -0.49213499 1 0 -0 0.99957502 0.78040397
-0.26344499 0.85833699 -0.49176699 1 0 -0 0.71003199 0.78039598
-0.387036 0 -0.480865 -1 0 -0 1.207891 0.001068
-0.387036 0.85548103 -0.480865 -1 0 -0 1.2078869 0.40148199
-0.387036 0.85833699 -0.49176699 -1 0 -0 0.71003199 0.68721801
-0.387036 0 -0.49213499 -1 0 -0 0.99957597 0.68722498
-0.387036 0.85548103 -0.480865 -1 0 -0 1.2078869 0.40148199
-0.387036 1.0168689 -0.39004499 -1 0 -0 1.207886 0.49081001
-0.387036 1.024706 -0.39814499 -1 0 -0 0.64543802 0.68721598
-0.387036 0.85833699 -0.49176699 -1 0 -0 0.71003199 0.68721801
-0.387036 1.0168689 -0.39004499 -1 0 -0 1.207886 0.49081001
-0.387036 1.107705 -0.24043199 -1 0 -0 1.207886 0.57367897
-0.387036 1.118095 -0.244799 -1 0 -0 0.58551502 0.68721497
-0.387036 1.024706 -0.39814499 -1 0 -0 0.64543802 0.68721598
-0.387036 1.107705 -0.24043199 -1 0 -0 1.207886 0.57367897
-0.387036 1.149148 -0.078235 -1 0 -0 1.207885 0.65332299
-0.387036 1.1603301 -0.079640999 -1 0 -0 0.527924 0.687213
-0.387036 1.118095 -0.244799 -1 0 -0 0.58551502 0.68721497
-0.387036 1.149148 -0.078235 -1 0 -0 1.207885 0.59294599
-0.387036 1.149148 0.078235 -1 0 -0 1.207884 0.66791999
-0.387036 1.1603301 0.079640999 -1 0 -0 0.47371 0.68721199
-0.387036 1.1603301 -0.079640999 -1 0 -0 0.527924 0.687213
-0.387036 1.149148 0.078235 -1 0 -0 1.483708 0.65549999
-0.387036 1.107705 0.24043199 -1 0 -0 1.483708 0.57499802
-0.387036 1.118095 0.244799 -1 0 -0 0.41549799 0.68721199
-0.387036 1.1603301 0.079640999 -1 0 -0 0.47371 0.68721199
0.387036 0.85548103 -0.480865 1 0 -0 1.483707 0.40148699
0.387036 0 -0.480865 1 0 -0 1.4837101 0.001073
0.387036 0 -0.49213499 1 0 -0 0.99956697 0.78046298
0.387036 0.85833699 -0.49176699 1 0 -0 0.71003997 0.78045601
0.26344499 0 -0.480865 -1 0 -0 1.439672 0.001072
0.26344499 0.85548103 -0.480865 -1 0 -0 1.439669 0.40148601
0.26344499 0.85833699 -0.49176699 -1 0 -0 0.71004099 0.68749303
0.26344499 0 -0.49213499 -1 0 -0 0.99956799 0.6875
0.26344499 0.85548103 -0.480865 -1 0 -0 1.439669 0.40148601
0.26344499 1.0168689 -0.39004499 -1 0 -0 1.4396679 0.490814
0.26344499 1.024706 -0.39814499 -1 0 -0 0.64545101 0.687491
0.26344499 0.85833699 -0.49176699 -1 0 -0 0.71004099 0.68749303
0.26344499 1.0168689 -0.39004499 -1 0 -0 1.4396679 0.490814
0.26344499 1.107705 -0.24043199 -1 0 -0 1.439667 0.57368302
0.26344499 1.118095 -0.244799 -1 0 -0 0.585531 0.68748999
0.26344499 1.024706 -0.39814499 -1 0 -0 0.64545101 0.687491
0.26344499 1.107705 -0.24043199 -1 0 -0 1.439667 0.57368302
0.26344499 1.149148 -0.078235 -1 0 -0 1.439666 0.65332699
0.26344499 1.1603301 -0.079640999 -1 0 -0 0.52794302 0.68748802
0.26344499 1.118095 -0.244799 -1 0 -0 0.585531 0.68748999
0.26344499 1.149148 -0.078235 -1 0 -0 1.439666 0.59294999
0.26344499 1.149148 0.078235 -1 0 -0 1.439666 0.66792399
0.26344499 1.1603301 0.079640999 -1 0 -0 0.47373199 0.68748701
0.26344499 1.1603301 -0.079640999 -1 0 -0 0.52794302 0.68748802
0.26344499 1.149148 0.078235 -1 0 -0 1.251927 0.65549803
0.26344499 1.107705 0.24043199 -1 0 -0 1.251927 0.57499498
0.26344499 1.118095 0.244799 -1 0 -0 0.41552299 0.68748599
0.26344499 1.1603301 0.079640999 -1 0 -0 0.47373199 0.68748701
0.26344499 1.107705 0.24043199 -1 0 -0 1.251927 0.57499498
0.26344499 1.0168689 0.39004499 -1 0 -0 1.251927 0.49057701
0.26344499 1.024706 0.39814499 -1 0 -0 0.35448301 0.68748599
0.26344499 1.118095 0.244799 -1 0 -0 0.41552299 0.68748599
0.26344499 1.0168689 0.39004499 -1 0 -0 1.251927 0.49057701
0.26344499 0.85548103 0.480865 -1 0 -0 1.251927 0.399436
0.26344499 0.85833699 0.49176699 -1 0 -0 0.28858101 0.68748599
0.26344499 1.024706 0.39814499 -1 0 -0 0.35448301 0.68748599
0.26344499 0.85548103 0.480865 -1 0 -0 1.251927 0.399436
0.26344499 0 0.480865 -1 0 -0 1.251927 0.00098300003
0.26344499 0 0.49213499 -1 0 -0 0.00047299999 0.68748498
0.26344499 0.85833699 0.49176699 -1 0 -0 0.28858101 0.68748599
0.387036 0 0.480865 1 0 -0 1.207889 0.00098300003
0.387036 0.85548103 0.480865 1 0 -0 1.207889 0.39943501
0.387036 0.85833699 0.49176699 1 0 -0 0.28858101 0.78044897
0.387036 0 0.49213499 1 0 -0 0.00047299999 0.78044802
0.387036 0.85548103 0.480865 1 0 -0 1.207889 0.39943501
0.387036 1.0168689 0.39004499 1 0 -0 1.207888 0.490576
0.387036 1.024706 0.39814499 1 0 -0 0.35448301 0.78044999
0.387036 0.85833699 0.49176699 1 0 -0 0.28858101 0.78044897
0.387036 1.0168689 0.39004499 1 0 -0 1.207888 0.490576
0.387036 1.107705 0.24043199 1 0 -0 1.207888 0.57499498
0.387036 1.118095 0.244799 1 0 -0 0.41552299 0.78044999
0.387036 1.024706 0.39814499 1 0 -0 0.35448301 0.78044999
0.387036 1.107705 0.24043199 1 0 -0 1.207888 0.57499498
0.387036 1.149148 0.078235 1 0 -0 1.207888 0.65549701
0.387036 1.1603301 0.079640999 1 0 -0 0.47373199 0.78044999
0.387036 1.118095 0.244799 1 0 -0 0.41552299 0.78044999
0.387036 1.149148 0.078235 1 0 -0 1.483704 0.66792399
0.387036 1.149148 -0.078235 1 0 -0 1.483705 0.592951
0.387036 1.1603301 -0.079640999 1 0 -0 0.527942 0.780451
0.387036 1.1603301 0.079640999 1 0 -0 0.47373199 0.78044999
0.387036 1.149148 -0.078235 1 0 -0 1.483705 0.65332699
0.387036 1.107705 -0.24043199 1 0 -0 1.483705 0.57368302
0.387036 1.118095 -0.244799 1 0 -0 0.58552998 0.78045201
0.387036 1.1603301 -0.079640999 1 0 -0 0.527942 0.780451
0.387036 1.107705 -0.24043199 1 0 -0 1.483705 0.57368302
0.387036 1.0168689 -0.39004499 1 0 -0 1.483706 0.49081501
0.387036 1.024706 -0.39814499 1 0 -0 0.64545 0.78045398
0.387036 1.118095 -0.244799 1 0 -0 0.58552998 0.78045201
0.387036 1.0168689 -0.39004499 1 0 -0 1.483706 0.49081501
0.387036 0.85548103 -0.480865 1 0 -0 1.483707 0.40148699
0.387036 0.85833699 -0.49176699 1 0 -0 0.71003997 0.78045601
0.387036 1.024706 -0.39814499 1 0 -0 0.64545 0.78045398
-0.96172899 1.056512 -0.21876 -1 0 -0 0.029498 0.12678
-0.96172899 0.97706598 -0.348719 -1 0 -0 0.079271004 0.043646999
-0.96172899 0.840891 -0.42535001 -1 0 -0 0.16458599 -0.0053719999
-0.96172899 1.056512 0.218759 -1 0 -0 0.029498 0.406652
-0.96172899 0.840891 -0.42535001 -1 0 -0 0.16458599 -0.0053719999
-0.96172899 9.6000003e-05 -0.42609701 -1 0 -0 0.69135398 -0.0058499998
-0.96172899 9.6000003e-05 0.42609701 -1 0 -0 0.69135398 0.53928101
-0.96172899 1.056512 0.218759 -1 0 -0 0.029498 0.406652
-0.96172899 9.6000003e-05 0.42609701 -1 0 -0 0.69135398 0.53928101
-0.96172899 0.840891 0.42535001 -1 0 -0 0.16458599 0.53880399
-0.96172899 0.97706598 0.348719 -1 0 -0 0.079271004 0.489784
-0.96172899 1.056512 0.218759 -1 0 -0 0.029498 0.406652
-0.96172899 1.094257 -0.071314998 -1 0 -0 0.0058499998 0.22109701
-0.96172899 1.056512 -0.21876 -1 0 -0 0.029498 0.12678
-0.96172899 1.056512 0.218759 -1 0 -0 0.029498 0.406652
-0.96172899 1.094257 0.071314998 -1 0 -0 0.0058499998 0.31233501
-0.774382 0 0.480865 1 0 -0 1.621729 0.00098699995
-0.774382 0.85548103 0.480865 1 0 -0 1.6217279 0.39943901
-0.774382 0.86205101 0.50593901 1 0 -0 0.42337501 0.81075799
-0.774382 0 0.50678599 1 0 -0 0.99980801 0.81076401
-0.774382 0.85548103 0.480865 1 0 -0 1.6217279 0.39943901
-0.774382 1.0168689 0.39004499 1 0 -0 1.6217279 0.49057999
-0.774382 1.034893 0.408674 1 0 -0 0.29152301 0.81075698
-0.774382 0.86205101 0.50593901 1 0 -0 0.42337501 0.81075799
-0.774382 1.0168689 0.39004499 1 0 -0 1.6217279 0.49057999
-0.774382 1.107705 0.24043199 1 0 -0 1.6217279 0.57499897
-0.774382 1.131602 0.25047699 1 0 -0 0.169396 0.81075603
-0.774382 1.034893 0.408674 1 0 -0 0.29152301 0.81075698
-0.774382 1.107705 0.24043199 1 0 -0 1.6217279 0.57499897
-0.774382 1.149148 0.078235 1 0 -0 1.6217279 0.65550101
-0.774382 1.174867 0.081468999 1 0 -0 0.052933998 0.81075501
-0.774382 1.131602 0.25047699 1 0 -0 0.169396 0.81075603
-0.774382 1.149148 0.078235 1 0 -0 1.069864 0.66791803
-0.774382 1.149148 -0.078235 1 0 -0 1.069865 0.59294403
-0.774382 1.174867 -0.081468999 1 0 -0 -0.055528 0.81075299
-0.774382 1.174867 0.081468999 1 0 -0 0.052933998 0.81075501
-0.774382 1.149148 -0.078235 1 0 -0 1.069865 0.65332103
-0.774382 1.107705 -0.24043199 1 0 -0 1.0698659 0.57367599
-0.774382 1.131602 -0.25047699 1 0 -0 -0.170747 0.81074899
-0.774382 1.174867 -0.081468999 1 0 -0 -0.055528 0.81075299
-0.774382 1.107705 -0.24043199 1 0 -0 1.0698659 0.57367599
-0.774382 1.0168689 -0.39004499 1 0 -0 1.0698659 0.49080801
-0.774382 1.034893 -0.40867499 1 0 -0 -0.29063201 0.81074703
-0.774382 1.131602 -0.25047699 1 0 -0 -0.170747 0.81074899
-0.774382 1.0168689 -0.39004499 1 0 -0 1.0698659 0.49080801
-0.774382 0.85548103 -0.480865 1 0 -0 1.069867 0.40147999
-0.774382 0.86205101 -0.50593901 1 0 -0 -0.41986001 0.81074399
-0.774382 1.034893 -0.40867499 1 0 -0 -0.29063201 0.81074703
-0.774382 0.85548103 -0.480865 1 0 -0 1.069867 0.40147999
-0.774382 0 -0.480865 1 0 -0 1.06987 0.001066
-0.774382 0 -0.50678599 1 0 -0 -0.99913198 0.81072998
-0.774382 0.86205101 -0.50593901 1 0 -0 -0.41986001 0.81074399
0.96172899 1.056512 0.218759 1 0 -0 0.029498 0.406652
0.96172899 0.97706598 0.348719 1 0 -0 0.079272002 0.489784
0.96172899 0.840891 0.42535001 1 0 -0 0.16458701 0.53880399
0.96172899 1.056512 -0.21876 1 0 -0 0.029498 0.12678
0.96172899 0.840891 0.42535001 1 0 -0 0.16458701 0.53880399
0.96172899 9.6000003e-05 0.42609701 1 0 -0 0.69135398 0.53928101
0.96172899 9.6000003e-05 -0.42609701 1 0 -0 0.69135398 -0.0058499998
0.96172899 1.056512 -0.21876 1 0 -0 0.029498 0.12678
0.96172899 9.6000003e-05 -0.42609701 1 0 -0 0.69135398 -0.0058499998
0.96172899 0.840891 -0.42535001 1 0 -0 0.16458701 -0.0053719999
0.96172899 0.97706598 -0.348719 1 0 -0 0.079272002 0.043646999
0.96172899 1.056512 -0.21876 1 0 -0 0.029498 0.12678
0.96172899 1.094257 0.071314998 1 0 -0 0.0058499998 0.31233501
0.96172899 1.056512 0.218759 1 0 -0 0.029498 0.406652
0.96172899 1.056512 -0.21876 1 0 -0 0.029498 0.12678
0.96172899 1.094257 -0.071314998 1 0 -0 0.0058499998 0.22109701
0.774382 0 -0.480865 -1 0 -0 1.621731 0.001075
0.774382 0.85548103 -0.480865 -1 0 -0 1.621727 0.40148899
0.774382 0.86205101 -0.50593901 -1 0 -0 0.42066699 0.81086397
0.774382 0 -0.50678599 -1 0 -0 0.999955 0.81087798
0.774382 0.85548103 -0.480865 -1 0 -0 1.621727 0.40148899
0.774382 1.0168689 -0.39004499 -1 0 -0 1.621726 0.49081701
0.774382 1.034893 -0.40867499 -1 0 -0 0.291435 0.81085998
0.774382 0.86205101 -0.50593901 -1 0 -0 0.42066699 0.81086397
0.774382 1.0168689 -0.39004499 -1 0 -0 1.621726 0.49081701
0.774382 1.107705 -0.24043199 -1 0 -0 1.6217251 0.573686
0.774382 1.131602 -0.25047699 -1 0 -0 0.17154799 0.810857
0.774382 1.034893 -0.40867499 -1 0 -0 0.291435 0.81085998
0.774382 1.107705 -0.24043199 -1 0 -0 1.6217251 0.573686
0.774382 1.149148 -0.078235 -1 0 -0 1.6217251 0.65333003
0.774382 1.174867 -0.081468999 -1 0 -0 0.056325 0.81085497
0.774382 1.131602 -0.25047699 -1 0 -0 0.17154799 0.810857
0.774382 1.149148 -0.078235 -1 0 -0 1.6217251 0.59295303
0.774382 1.149148 0.078235 -1 0 -0 1.621724 0.66792703
0.774382 1.174867 0.081468999 -1 0 -0 -0.052140001 0.81085199
0.774382 1.174867 -0.081468999 -1 0 -0 0.056325 0.81085497
0.774382 1.149148 0.078235 -1 0 -0 1.069868 0.655496
0.774382 1.107705 0.24043199 -1 0 -0 1.069868 0.57499403
0.774382 1.131602 0.25047699 -1 0 -0 -0.168605 0.81085098
0.774382 1.174867 0.081468999 -1 0 -0 -0.052140001 0.81085199
0.774382 1.107705 0.24043199 -1 0 -0 1.069868 0.57499403
0.774382 1.0168689 0.39004499 -1 0 -0 1.069868 0.49057499
0.774382 1.034893 0.408674 -1 0 -0 -0.29073501 0.81085002
0.774382 1.131602 0.25047699 -1 0 -0 -0.168605 0.81085098
0.774382 1.0168689 0.39004499 -1 0 -0 1.069868 0.49057499
0.774382 0.85548103 0.480865 -1 0 -0 1.069868 0.399434
0.774382 0.86205101 0.50593901 -1 0 -0 -0.42258999 0.810848
0.774382 1.034893 0.408674 -1 0 -0 -0.29073501 0.81085002
0.774382 0.85548103 0.480865 -1 0 -0 1.069868 0.399434
0.774382 0 0.480865 -1 0 -0 1.069869 0.00098200003
0.774382 0 0.50678599 -1 0 -0 -0.99903899 0.81084299
0.774382 0.86205101 0.50593901 -1 0 -0 -0.42258999 0.810848
-0.96172899 0 -0.50678599 -1 0 -0 -0.999134 0.99838102
-0.96172899 9.6000003e-05 -0.42609701 -1 0 -0 -0.999134 0.80811501
-0.96172899 0.840891 -0.42535001 -1 0 -0 -0.419862 0.80812901
-0.96172899 0.86205101 -0.50593901 -1 0 -0 -0.419862 0.99839503
-0.96172899 0.86205101 -0.50593901 -1 0 -0 -0.419862 0.99839503
-0.96172899 0.840891 -0.42535001 -1 0 -0 -0.419862 0.80812901
-0.96172899 0.97706598 -0.348719 -1 0 -0 -0.29063401 0.80813199
-0.96172899 1.034893 -0.40867499 -1 0 -0 -0.29063401 0.99839801
-0.96172899 1.034893 -0.40867499 -1 0 -0 -0.29063401 0.99839801
-0.96172899 0.97706598 -0.348719 -1 0 -0 -0.29063401 0.80813199
-0.96172899 1.056512 -0.21876 -1 0 -0 -0.17074899 0.80813497
-0.96172899 1.131602 -0.25047699 -1 0 -0 -0.17074899 0.99840099
-0.96172899 1.131602 -0.25047699 -1 0 -0 -0.17074899 0.99840099
-0.96172899 1.056512 -0.21876 -1 0 -0 -0.17074899 0.80813497
-0.96172899 1.094257 -0.071314998 -1 0 -0 -0.05553 0.80813903
-0.96172899 1.174867 -0.081468999 -1 0 -0 -0.05553 0.99840498
-0.96172899 1.174867 -0.081468999 -1 0 -0 -0.05553 0.99840498
-0.96172899 1.094257 -0.071314998 -1 0 -0 -0.05553 0.80813903
-0.96172899 1.094257 0.071314998 -1 0 -0 0.052933 0.80813998
-0.96172899 1.174867 0.081468999 -1 0 -0 0.052933 0.99840599
-0.96172899 1.174867 0.081468999 -1 0 -0 0.052933 0.99840599
-0.96172899 1.094257 0.071314998 -1 0 -0 0.052933 0.80813998
-0.96172899 1.056512 0.218759 -1 0 -0 0.169394 0.80814099
-0.96172899 1.131602 0.25047699 -1 0 -0 0.169394 0.99840701
-0.96172899 1.131602 0.25047699 -1 0 -0 0.169394 0.99840701
-0.96172899 1.056512 0.218759 -1 0 -0 0.169394 0.80814099
-0.96172899 0.97706598 0.348719 -1 0 -0 0.29152101 0.80814302
-0.96172899 1.034893 0.408674 -1 0 -0 0.29152101 0.99840897
-0.96172899 1.034893 0.408674 -1 0 -0 0.29152101 0.99840897
-0.96172899 0.97706598 0.348719 -1 0 -0 0.29152101 0.80814302
-0.96172899 0.840891 0.42535001 -1 0 -0 0.42337301 0.80814397
-0.96172899 0.86205101 0.50593901 -1 0 -0 0.42337301 0.99840999
-0.96172899 0.86205101 0.50593901 -1 0 -0 0.42337301 0.99840999
-0.96172899 0.840891 0.42535001 -1 0 -0 0.42337301 0.80814397
-0.96172899 9.6000003e-05 0.42609701 -1 0 -0 0.999807 0.80814999
-0.96172899 0 0.50678599 -1 0 -0 0.999807 0.99841601
0.96172899 0 0.50678599 1 0 -0 -0.99904001 0.998824
0.96172899 9.6000003e-05 0.42609701 1 0 -0 -0.99904001 0.80855697
0.96172899 0.840891 0.42535001 1 0 -0 -0.42259201 0.80856299
0.96172899 0.86205101 0.50593901 1 0 -0 -0.42259201 0.99882901
0.96172899 0.86205101 0.50593901 1 0 -0 -0.42259201 0.99882901
0.96172899 0.840891 0.42535001 1 0 -0 -0.42259201 0.80856299
0.96172899 0.97706598 0.348719 1 0 -0 -0.29073599 0.80856401
0.96172899 1.034893 0.408674 1 0 -0 -0.29073599 0.99883097
0.96172899 1.034893 0.408674 1 0 -0 -0.29073599 0.99883097
0.96172899 0.97706598 0.348719 1 0 -0 -0.29073599 0.80856401
0.96172899 1.056512 0.218759 1 0 -0 -0.168606 0.80856502
0.96172899 1.131602 0.25047699 1 0 -0 -0.168606 0.99883199
0.96172899 1.131602 0.25047699 1 0 -0 -0.168606 0.99883199
0.96172899 1.056512 0.218759 1 0 -0 -0.168606 0.80856502
0.96172899 1.094257 0.071314998 1 0 -0 -0.052142002 0.80856699
0.96172899 1.174867 0.081468999 1 0 -0 -0.052142002 0.998833
0.96172899 1.174867 0.081468999 1 0 -0 -0.052142002 0.998833
0.96172899 1.094257 0.071314998 1 0 -0 -0.052142002 0.80856699
0.96172899 1.094257 -0.071314998 1 0 -0 0.056322999 0.80857003
0.96172899 1.174867 -0.081468999 1 0 -0 0.056322999 0.99883598
0.96172899 1.174867 -0.081468999 1 0 -0 0.056322999 0.99883598
0.96172899 1.094257 -0.071314998 1 0 -0 0.056322999 0.80857003
0.96172899 1.056512 -0.21876 1 0 -0 0.171546 0.80857199
0.96172899 1.131602 -0.25047699 1 0 -0 0.171546 0.99883801
0.96172899 1.131602 -0.25047699 1 0 -0 0.171546 0.99883801
0.96172899 1.056512 -0.21876 1 0 -0 0.171546 0.80857199
0.96172899 0.97706598 -0.348719 1 0 -0 0.29143301 0.80857497
0.96172899 1.034893 -0.40867499 1 0 -0 0.29143301 0.99884099
0.96172899 1.034893 -0.40867499 1 0 -0 0.29143301 0.99884099
0.96172899 0.97706598 -0.348719 1 0 -0 0.29143301 0.80857497
0.96172899 0.840891 -0.42535001 1 0 -0 0.420665 0.80857903
0.96172899 0.86205101 -0.50593901 1 0 -0 0.420665 0.99884498
0.96172899 0.86205101 -0.50593901 1 0 -0 0.420665 0.99884498
0.96172899 0.840891 -0.42535001 1 0 -0 0.420665 0.80857903
0.96172899 9.6000003e-05 -0.42609701 1 0 -0 0.99995202 0.80859202
0.96172899 0 -0.50678599 1 0 -0 0.99995202 0.99885798
0.774382 0 -0.480865 0.00012500001 -1 0.00089999998 1.621731 0.001075
0.774382 0 -0.50678599 0.00012500001 -1 0.00089999998 0.999955 0.81087798
0.96172899 0 -0.50678599 0.00012500001 -1 0.00089999998 0.99995202 0.99885798
0.96172899 9.6000003e-05 -0.42609701 0.00012500001 -1 0.00089999998 0.99995202 0.80859202
0.96172899 9.6000003e-05 0.42609701 0.00046800001 -1 -0.000103 -0.99904001 0.80855697
0.96172899 0 0.50678599 0.00046800001 -1 -0.000103 -0.99904001 0.998824
0.774382 0 0.50678599 0.00046800001 -1 -0.000103 -0.99903899 0.81084299
0.96172899 9.6000003e-05 -0.42609701 0.00046800001 -1 -0.000103 0.99995202 0.80859202
0.96172899 9.6000003e-05 -0.42609701 7.0000001e-06 -1 -0.000104 0.99995202 0.80859202
0.774382 0 0.50678599 7.0000001e-06 -1 -0.000104 -0.99903899 0.81084299
0.774382 0 0.480865 7.0000001e-06 -1 -0.000104 1.069869 0.00098200003
0.387036 0 0.480865 7.0000001e-06 -1 -0.000104 1.207889 0.00098300003
0.387036 0 0.480865 0 -1 -0 1.207889 0.00098300003
0.387036 0 0.49213499 0 -1 -0 0.00047299999 0.78044802
0.26344499 0 0.49213499 0 -1 -0 0.00047299999 0.68748498
0.26344499 0 0.480865 0 -1 -0 1.251927 0.00098300003
0.96172899 9.6000003e-05 -0.42609701 7.3000003e-05 -1 -4.8999998e-05 0.99995202 0.80859202
0.387036 0 0.480865 7.3000003e-05 -1 -4.8999998e-05 1.207889 0.00098300003
0.26344499 0 0.480865 7.3000003e-05 -1 -4.8999998e-05 1.251927 0.00098300003
-0.26344499 0 -0.480865 7.3000003e-05 -1 -4.8999998e-05 1.251929 0.001069
-0.26344499 0 0.480865 0 -1 -0 1.43967 0.00098500005
-0.26344499 0 0.49213499 0 -1 -0 0.000424 0.78038901
-0.387036 0 0.49213499 0 -1 -0 0.000424 0.68721002
-0.387036 0 0.480865 0 -1 -0 1.483709 0.00098500005
-0.774382 0 0.480865 -0.00012500001 -1 -0.00089999998 1.621729 0.00098699995
-0.774382 0 0.50678599 -0.00012500001 -1 -0.00089999998 0.99980801 0.81076401
-0.96172899 0 0.50678599 -0.00012500001 -1 -0.00089999998 0.999807 0.99841601
-0.96172899 9.6000003e-05 0.42609701 -0.00012500001 -1 -0.00089999998 0.999807 0.80814999
-0.387036 0 0.480865 0 -0.99999899 -0.001752 1.483709 0.00098500005
-0.774382 0 0.480865 0 -0.99999899 -0.001752 1.621729 0.00098699995
-0.96172899 9.6000003e-05 0.42609701 0 -0.99999899 -0.001752 0.999807 0.80814999
-0.26344499 0 0.480865 0 -0.99999899 -0.001752 1.43967 0.00098500005
0.26344499 0 0.480865 -7.7999997e-05 -1 -0 1.251927 0.00098300003
-0.26344499 0 0.480865 -7.7999997e-05 -1 -0 1.43967 0.00098500005
-0.96172899 9.6000003e-05 0.42609701 -7.7999997e-05 -1 -0 0.999807 0.80814999
-0.26344499 0 -0.480865 -7.7999997e-05 -1 -0 1.251929 0.001069
-0.96172899 9.6000003e-05 -0.42609701 -0.00046800001 -1 0.000103 -0.999134 0.80811501
-0.96172899 0 -0.50678599 -0.00046800001 -1 0.000103 -0.999134 0.99838102
-0.774382 0 -0.50678599 -0.00046800001 -1 0.000103 -0.99913198 0.81072998
-0.96172899 9.6000003e-05 0.42609701 -0.00046800001 -1 0.000103 0.999807 0.80814999
-0.96172899 9.6000003e-05 0.42609701 -7.0000001e-06 -1 0.000104 0.999807 0.80814999
-0.774382 0 -0.50678599 -7.0000001e-06 -1 0.000104 -0.99913198 0.81072998
-0.774382 0 -0.480865 -7.0000001e-06 -1 0.000104 1.06987 0.001066
-0.387036 0 -0.480865 -7.0000001e-06 -1 0.000104 1.207891 0.001068
-0.387036 0 -0.480865 0 -1 -0 1.207891 0.001068
-0.387036 0 -0.49213499 0 -1 -0 0.99957597 0.68722498
-0.26344499 0 -0.49213499 0 -1 -0 0.99957502 0.78040397
-0.26344499 0 -0.480865 0 -1 -0 1.251929 0.001069
-0.96172899 9.6000003e-05 0.42609701 0 -1 0.000106 0.999807 0.80814999
-0.387036 0 -0.480865 0 -1 0.000106 1.207891 0.001068
-0.26344499 0 -0.480865 0 -1 0.000106 1.251929 0.001069
0.96172899 9.6000003e-05 -0.42609701 0 -0.99999797 0.001752 0.99995202 0.80859202
-0.26344499 0 -0.480865 0 -0.99999797 0.001752 1.251929 0.001069
0.26344499 0 -0.480865 0 -0.99999797 0.001752 1.439672 0.001072
0.387036 0 -0.480865 0 -0.99999797 0.001752 1.4837101 0.001073
0.26344499 0 -0.480865 0 -1 -0 1.439672 0.001072
0.26344499 0 -0.49213499 0 -1 -0 0.99956799 0.6875
0.387036 0 -0.49213499 0 -1 -0 0.99956697 0.78046298
0.387036 0 -0.480865 0 -1 -0 1.4837101 0.001073
0.774382 0 -0.480865 0 -0.99999899 0.001752 1.621731 0.001075
0.96172899 9.6000003e-05 -0.42609701 0 -0.99999899 0.001752 0.99995202 0.80859202
0.387036 0 -0.480865 0 -0.99999899 0.001752 1.4837101 0.001073
0.104977 0.73575199 -0.47851199 1 0 -0 0.83091599 0.334934
0.089038 0.676265 -0.47851199 0.86602497 -0.5 -0 0.83091599 0.345011
0.089038 0.676265 -0.49445599 0.86602497 -0.5 -0 0.80982202 0.345011
0.104977 0.73575199 -0.49445599 1 0 -0 0.80982202 0.334934
0.089038 0.676265 -0.47851199 0.86602497 -0.5 -0 0.83091599 0.345011
0.04549 0.63271701 -0.47851199 0.5 -0.86602497 -0 0.83091599 0.355088
0.04549 0.63271701 -0.49445599 0.5 -0.86602497 -0 0.80982202 0.355088
0.089038 0.676265 -0.49445599 0.86602497 -0.5 -0 0.80982202 0.345011
0.04549 0.63271701 -0.47851199 0.5 -0.86602497 -0 0.83091599 0.355088
-0.013997 0.616777 -0.47851199 0 -1 -0 0.83091599 0.365165
-0.013997 0.616777 -0.49445599 0 -1 -0 0.80982202 0.365165
0.04549 0.63271701 -0.49445599 0.5 -0.86602497 -0 0.80982202 0.355088
-0.013997 0.616777 -0.47851199 0 -1 -0 0.83091599 0.244243
-0.073484004 0.63271701 -0.47851199 -0.5 -0.86602497 -0 0.83091599 0.25431901
-0.073484004 0.63271701 -0.49445599 -0.5 -0.86602497 -0 0.80982202 0.25431901
-0.013997 0.616777 -0.49445599 0 -1 -0 0.80982202 0.244243
-0.073484004 0.63271701 -0.47851199 -0.5 -0.86602497 -0 0.83091599 0.25431901
-0.117032 0.676265 -0.47851199 -0.86602598 -0.5 -0 0.83091599 0.26439601
-0.117032 0.676265 -0.49445599 -0.86602598 -0.5 -0 0.80982202 0.26439601
-0.073484004 0.63271701 -0.49445599 -0.5 -0.86602497 -0 0.80982202 0.25431901
-0.117032 0.676265 -0.47851199 -0.86602598 -0.5 -0 0.83091599 0.26439601
-0.132971 0.73575199 -0.47851199 -1 0 -0 0.83091599 0.27447301
-0.132971 0.73575199 -0.49445599 -1 0 -0 0.80982202 0.27447301
-0.117032 0.676265 -0.49445599 -0.86602598 -0.5 -0 0.80982202 0.26439601
-0.132971 0.73575199 -0.47851199 -1 0 -0 0.83091599 0.27447301
-0.117032 0.79523897 -0.47851199 -0.86602497 0.5 -0 0.83091599 0.28455001
-0.117032 0.79523897 -0.49445599 -0.86602497 0.5 -0 0.80982202 0.28455001
-0.132971 0.73575199 -0.49445599 -1 0 -0 0.80982202 0.27447301
-0.117032 0.79523897 -0.47851199 -0.86602497 0.5 -0 0.83091599 0.28455001
-0.073484004 0.83878702 -0.47851199 -0.5 0.86602598 -0 0.83091599 0.29462701
-0.073484004 0.83878702 -0.49445599 -0.5 0.86602598 -0 0.80982202 0.29462701
-0.117032 0.79523897 -0.49445599 -0.86602497 0.5 -0 0.80982202 0.28455001
-0.073484004 0.83878702 -0.47851199 -0.5 0.86602598 -0 0.83091599 0.29462701
-0.013997 0.85472602 -0.47851199 -0 1 -0 0.83091599 0.30470401
-0.013997 0.85472602 -0.49445599 0 1 -0 0.80982202 0.30470401
-0.073484004 0.83878702 -0.49445599 -0.5 0.86602598 -0 0.80982202 0.29462701
-0.013997 0.85472602 -0.47851199 -0 1 -0 0.83091599 0.30470401
0.04549 0.83878702 -0.47851199 0.5 0.86602497 -0 0.83091599 0.31478101
0.04549 0.83878702 -0.49445599 0.5 0.86602497 -0 0.80982202 0.31478101
-0.013997 0.85472602 -0.49445599 0 1 -0 0.80982202 0.30470401
0.04549 0.83878702 -0.47851199 0.5 0.86602497 -0 0.83091599 0.31478101
0.089038 0.79523897 -0.47851199 0.86602598 0.5 -0 0.83091599 0.324857
0.089038 0.79523897 -0.49445599 0.86602598 0.5 -0 0.80982202 0.324857
0.04549 0.83878702 -0.49445599 0.5 0.86602497 -0 0.80982202 0.31478101
0.089038 0.79523897 -0.47851199 0.86602598 0.5 -0 0.83091599 0.324857
0.104977 0.73575199 -0.47851199 1 0 -0 0.83091599 0.334934
0.104977 0.73575199 -0.49445599 1 0 -0 0.80982202 0.334934
0.089038 0.79523897 -0.49445599 0.86602598 0.5 -0 0.80982202 0.324857
0.089038 0.676265 -0.49445599 0 -0 -1 0.72882903 0.16474199
0.04549 0.63271701 -0.49445599 0 0 -1 0.76739597 0.089107998
-0.013997 0.616777 -0.49445599 -0 -0 -1 0.82007903 0.061423
0.089038 0.79523897 -0.49445599 0 -0 -1 0.72882903 0.37138
-0.013997 0.616777 -0.49445599 -0 -0 -1 0.82007903 0.061423
-0.073484004 0.63271701 -0.49445599 0 0 -1 0.87276202 0.089107998
-0.117032 0.676265 -0.49445599 -0 -0 -1 0.91132802 0.16474199
-0.117032 0.79523897 -0.49445599 0 -0 -1 0.91132802 0.37138
-0.117032 0.676265 -0.49445599 -0 -0 -1 0.91132802 0.16474199
-0.132971 0.73575199 -0.49445599 1e-06 -0 -1 0.92544502 0.26806101
-0.117032 0.79523897 -0.49445599 0 -0 -1 0.91132802 0.37138
-0.117032 0.79523897 -0.49445599 0 -0 -1 0.91132802 0.37138
-0.073484004 0.83878702 -0.49445599 0 0 -1 0.87276202 0.447014
-0.013997 0.85472602 -0.49445599 0 0 -1 0.82007903 0.47469899
0.089038 0.79523897 -0.49445599 0 -0 -1 0.72882903 0.37138
-0.013997 0.85472602 -0.49445599 0 0 -1 0.82007903 0.47469899
0.04549 0.83878702 -0.49445599 0 0 -1 0.76739597 0.447014
0.089038 0.79523897 -0.49445599 0 -0 -1 0.72882903 0.37138
-0.013997 0.616777 -0.49445599 -0 -0 -1 0.82007903 0.061423
-0.117032 0.79523897 -0.49445599 0 -0 -1 0.91132802 0.37138
0.089038 0.79523897 -0.49445599 0 -0 -1 0.72882903 0.37138
0.104977 0.73575199 -0.49445599 1e-06 -0 -1 0.71471298 0.26806101
0.089038 0.676265 -0.49445599 0 -0 -1 0.72882903 0.16474199
0.089038 0.79523897 -0.49445599 0 -0 -1 0.72882903 0.37138
4 0 1 2 3
4 4 5 6 7
4 8 9 10 11
4 12 13 14 15
4 16 17 18 19
4 20 21 22 23
4 24 25 26 27
4 28 29 30 31
4 32 33 34 35
4 36 37 38 39
4 40 41 42 43
4 44 45 46 47
4 48 49 50 51
4 52 53 54 55
4 56 57 58 59
4 60 61 62 63
4 64 65 66 67
4 68 69 70 71
4 72 73 74 75
4 76 77 78 79
4 80 81 82 83
4 84 85 86 87
4 88 89 90 91
4 92 93 94 95
4 96 97 98 99
4 100 101 102 103
4 104 105 106 107
4 108 109 110 111
4 112 113 114 115
4 116 117 118 119
4 120 121 122 123
4 124 125 126 127
4 128 129 130 131
4 132 133 134 135
4 136 137 138 139
4 140 141 142 143
4 144 145 146 147
4 148 149 150 151
4 152 153 154 155
4 156 157 158 159
4 160 161 162 163
4 164 165 166 167
4 168 169 170 171
4 172 173 174 175
4 176 177 178 179
4 180 181 182 183
4 184 185 186 187
4 188 189 190 191
4 192 193 194 195
4 196 197 198 199
4 200 201 202 203
4 204 205 206 207
4 208 209 210 211
4 212 213 214 215
4 216 217 218 219
4 220 221 222 223
4 224 225 226 227
4 228 229 230 231
4 232 233 234 235
4 236 237 238 239
4 240 241 242 243
4 244 245 246 247
4 248 249 250 251
4 252 253 254 255
4 256 257 258 259
4 260 261 262 263
4 264 265 266 267
4 268 269 270 271
4 272 273 274 275
4 276 277 278 279
4 280 281 282 283
4 284 285 286 287
4 288 289 290 291
4 292 293 294 295
4 296 297 298 299
4 300 301 302 303
4 304 305 306 307
4 308 309 310 311
4 312 313 314 315
4 316 317 318 319
4 320 321 322 323
4 324 325 326 327
4 328 329 330 331
4 332 333 334 335
4 336 337 338 339
4 340 341 342 343
4 344 345 346 347
4 348 349 350 351
4 352 353 354 355
4 356 357 358 359
4 360 361 362 363
4 364 365 366 367
4 368 369 370 371
4 372 373 374 375
4 376 377 378 379
4 380 381 382 383
4 384 385 386 387
4 388 389 390 391
4 392 393 394 395
4 396 397 398 399
4 400 401 402 403
4 404 405 406 407
4 408 409 410 411
4 412 413 414 415
4 416 417 418 419
4 420 421 422 423
4 424 425 426 427
4 428 429 430 431
4 432 433 434 435
4 436 437 438 439
4 440 441 442 443
4 444 445 446 447
4 448 449 450 451
4 452 453 454 455
4 456 457 458 459
4 460 461 462 463
4 464 465 466 467
4 468 469 470 471
4 472 473 474 475
4 476 477 478 479
4 480 481 482 483
4 484 485 486 487
4 488 489 490 491
4 492 493 494 495
4 496 497 498 499
4 500 501 502 503
4 504 505 506 507
4 508 509 510 511
4 512 513 514 515
4 516 517 518 519
4 520 521 522 523
4 524 525 526 527
4 528 529 530 531
4 532 533 534 535
4 536 537 538 539
4 540 541 542 543
4 544 545 546 547
4 548 549 550 551
4 552 553 554 555
4 556 557 558 559
4 560 561 562 563
4 564 565 566 567
4 568 569 570 571
4 572 573 574 575
4 576 577 578 579
4 580 581 582 583
4 584 585 586 587
4 588 589 590 591
4 592 593 594 595
4 596 597 598 599
4 600 601 602 603
4 604 605 606 607
4 608 609 610 611
4 612 613 614 615
4 616 617 618 619
3 620 621 622
4 623 624 625 626
4 627 628 629 630
3 631 632 633
4 634 635 636 637
4 638 639 640 641
4 642 643 644 645
4 646 647 648 649
4 650 651 652 653
4 654 655 656 657
4 658 659 660 661
4 662 663 664 665
4 666 667 668 669
4 670 671 672 673
4 674 675 676 677
4 678 679 680 681
4 682 683 684 685
4 686 687 688 689
3 690 691 692
4 693 694 695 696
3 697 698 699
3 700 701 702
3 703 704 705
