ply
format ascii 1.0
comment Created by Blender 2.91.0 - www.blender.org
element vertex 230
property float x
property float y
property float z
property float nx
property float ny
property float nz
property float s
property float t
element face 178
property list uchar uint vertex_indices
end_header
1.619591 3.014936 -2.196875 -0.817377 0.527085 -0.232429 0.291523 0.810757
1.824418 3.316706 -1.776886 -0.725089 0.688620 0.003906 0.169396 0.810756
2.333290 3.302845 -2.015101 0.497452 0.655293 -0.568377 0.169394 0.998407
2.128463 3.001074 -2.435090 0.367840 0.494827 -0.787286 0.291521 0.998409
1.458149 -0.095167 -2.360771 -0.774590 -0.577074 -0.258766 0.999808 0.810764
1.489654 2.489460 -2.443867 -0.900571 0.189825 -0.391003 0.423375 0.810758
1.998527 2.475598 -2.682082 0.284280 0.157567 -0.945677 0.423373 0.998410
1.967021 -0.109029 -2.598987 0.270760 -0.605640 -0.748222 0.999807 0.998416
-1.458149 0.095167 2.360771 0.761010 -0.576769 0.296884 0.999955 0.810878
-1.428801 2.679668 2.273076 0.905087 0.194006 0.378338 0.420667 0.810864
-1.937673 2.693529 2.511291 -0.279763 0.226264 0.933012 0.420665 0.998845
-1.967021 0.109029 2.598987 -0.284341 -0.548387 0.786370 0.999952 0.998858
-2.253408 3.482595 1.790906 -0.481460 0.702902 0.523515 0.171546 0.998838
-1.744536 3.468733 1.552691 0.741081 0.669607 -0.048799 0.171548 0.810857
-1.958187 3.585818 1.089480 0.663137 0.712485 -0.229286 0.056325 0.810855
-2.467059 3.599680 1.327695 -0.568224 0.746025 0.347118 0.056323 0.998836
-2.674509 3.587503 0.885253 -0.646016 0.741478 0.181249 -0.052142 0.998833
-2.165636 3.573642 0.647037 0.585345 0.707907 -0.395154 -0.052140 0.810852
-2.382341 3.431297 0.192398 0.497452 0.655293 -0.568377 -0.168605 0.810851
-2.891214 3.445158 0.430614 -0.725089 0.688620 0.003906 -0.168606 0.998832
-2.055407 3.204468 2.230058 -0.355480 0.554216 0.752617 0.291433 0.998841
-1.546535 3.190606 1.991843 0.829707 0.521928 0.197790 0.291435 0.810860
-3.096041 3.143388 0.010625 -0.817377 0.527085 -0.232429 -0.290736 0.998831
-2.587168 3.129526 -0.227591 0.367840 0.494827 -0.787286 -0.290735 0.810850
-3.257483 0.033285 -0.153272 -0.774529 -0.576952 -0.259163 -0.999040 0.998824
-3.225977 2.617912 -0.236367 -0.900571 0.189825 -0.391003 -0.422592 0.998829
-2.717105 2.604050 -0.474583 0.284280 0.157567 -0.945677 -0.422590 0.810848
-2.748610 0.019423 -0.391487 0.270577 -0.605457 -0.748436 -0.999039 0.810843
3.257483 -0.033285 0.153272 0.760949 -0.576647 0.297281 -0.999134 0.998381
3.286831 2.551216 0.065576 0.905087 0.194006 0.378338 -0.419862 0.998395
2.777958 2.565078 0.303792 -0.279763 0.226264 0.933012 -0.419860 0.810744
2.748610 -0.019423 0.391487 -0.284158 -0.548204 0.786554 -0.999132 0.810730
2.971096 3.340281 -0.654808 0.741081 0.669607 -0.048799 -0.170749 0.998401
2.757445 3.457366 -1.118019 0.663137 0.712485 -0.229286 -0.055530 0.998405
2.248572 3.471228 -0.879804 -0.568224 0.746025 0.347118 -0.055528 0.810753
2.462223 3.354143 -0.416593 -0.481460 0.702902 0.523515 -0.170747 0.810749
2.549995 3.445190 -1.560462 0.585345 0.707907 -0.395154 0.052933 0.998406
2.041123 3.459052 -1.322247 -0.646016 0.741478 0.181249 0.052934 0.810755
3.169097 3.062155 -0.215657 0.829707 0.521928 0.197790 -0.290634 0.998398
2.660224 3.076016 0.022559 -0.355480 0.554216 0.752617 -0.290632 0.810747
0.590562 2.990948 -1.651986 0.506302 0.413892 -0.756493 1.483708 0.490579
0.784253 3.274469 -1.254724 0.568590 0.593066 -0.570025 1.483708 0.574998
1.836363 3.245810 -1.747242 -0.774621 0.629658 0.058748 1.621728 0.574999
1.642673 2.962289 -2.144504 -0.885922 0.451827 -0.104740 1.621728 0.490580
0.439040 -0.064571 -1.797867 0.134861 -0.919187 -0.369976 1.483709 0.000985
0.469235 2.500295 -1.882612 0.435530 0.127598 -0.891079 1.483708 0.399438
1.521346 2.471636 -2.375130 -0.956694 0.165532 -0.239326 1.621728 0.399439
1.491151 -0.093230 -2.290385 -0.411145 -0.904355 -0.114139 1.621729 0.000987
-0.439040 0.064571 1.797867 -0.156163 -0.889340 0.429731 1.483710 0.001073
-0.408845 2.629437 1.713122 -0.431684 0.196356 0.880367 1.483707 0.401487
-1.460956 2.658096 2.205641 0.960509 0.158422 0.228614 1.621727 0.401489
-1.491151 0.093230 2.290385 0.389874 -0.904294 0.173894 1.621731 0.001075
-0.706058 3.367676 1.035264 -0.554033 0.642598 0.529191 1.483705 0.573683
-0.911101 3.479808 0.590728 -0.622913 0.691214 0.366283 1.483705 0.653327
-1.963212 3.508467 1.083246 0.710349 0.654897 -0.257820 1.621725 0.653330
-1.758169 3.396335 1.527782 0.789148 0.606006 -0.099582 1.621725 0.573686
-1.110316 3.468115 0.165849 -0.694540 0.687002 0.213477 1.207888 0.655497
-1.318285 3.331742 -0.270477 -0.774621 0.629658 0.058748 1.207888 0.574995
-2.370396 3.360400 0.222042 0.568590 0.593066 -0.570025 1.069868 0.574994
-2.162427 3.496774 0.658367 0.638691 0.650685 -0.410627 1.069868 0.655496
-0.518780 3.106516 1.450522 -0.495834 0.474715 0.727134 1.483706 0.490815
-1.570890 3.135175 1.943040 0.896359 0.436811 0.075381 1.621726 0.490817
-0.911101 3.479808 0.590728 -0.622913 0.691214 0.366283 1.483705 0.592951
-1.110316 3.468115 0.165849 -0.694540 0.687002 0.213477 1.483704 0.667924
-2.162427 3.496774 0.658367 0.638691 0.650685 -0.410627 1.621724 0.667927
-1.963212 3.508467 1.083246 0.710349 0.654897 -0.257820 1.621725 0.592953
-2.564086 3.076879 -0.175220 0.506302 0.413892 -0.756493 1.069868 0.490575
-1.511976 3.048220 -0.667738 -0.885922 0.451827 -0.104740 1.207888 0.490576
-2.715608 0.021360 -0.321101 0.270943 -0.605609 -0.748161 1.069869 0.000982
-2.685413 2.586226 -0.405846 0.435530 0.127598 -0.891079 1.069868 0.399434
-1.633302 2.557567 -0.898364 -0.956694 0.165532 -0.239326 1.207889 0.399435
-1.663497 -0.007299 -0.813619 -0.411573 -0.904050 -0.115177 1.207889 0.000983
2.715608 -0.021360 0.321101 -0.284524 -0.548387 0.786309 1.069870 0.001066
2.745803 2.543506 0.236357 -0.431715 0.196356 0.880367 1.069867 0.401480
1.693692 2.572165 0.728875 0.960509 0.158422 0.228614 1.207887 0.401482
1.663497 0.007299 0.813619 0.390271 -0.903897 0.174902 1.207891 0.001068
2.448590 3.281745 -0.441502 -0.554033 0.642598 0.529191 1.069866 0.573676
2.243547 3.393877 -0.886038 -0.622913 0.691214 0.366283 1.069865 0.653321
1.191436 3.422536 -0.393520 0.710349 0.654897 -0.257820 1.207885 0.653323
1.396479 3.310404 0.051016 0.789148 0.606037 -0.099582 1.207886 0.573679
2.044332 3.382184 -1.310917 -0.694540 0.687002 0.213477 1.621728 0.655501
0.992221 3.410843 -0.818399 0.638691 0.650685 -0.410627 1.483708 0.655500
2.635869 3.020585 -0.026244 -0.495834 0.474715 0.727134 1.069866 0.490808
1.583758 3.049244 0.466274 0.896359 0.436811 0.075381 1.207886 0.490810
2.243547 3.393877 -0.886038 -0.622913 0.691214 0.366283 1.069865 0.592944
2.044332 3.382184 -1.310917 -0.694540 0.687002 0.213477 1.069864 0.667918
0.992221 3.410843 -0.818399 0.638691 0.650685 -0.410627 1.207884 0.667920
1.191436 3.422536 -0.393520 0.710349 0.654897 -0.257820 1.207885 0.592946
0.254864 3.000092 -1.494837 -0.885922 0.451827 -0.104740 1.439670 0.490579
-1.176277 3.039076 -0.824886 0.506302 0.413892 -0.756493 1.251927 0.490577
-0.982587 3.322597 -0.427625 0.568590 0.593066 -0.569994 1.251927 0.574995
0.448554 3.283613 -1.097576 -0.774621 0.629658 0.058748 1.439669 0.574997
0.103342 -0.055427 -1.640719 -0.411542 -0.904050 -0.115238 1.439670 0.000985
-1.327799 -0.016443 -0.970768 0.134373 -0.918912 -0.370800 1.251927 0.000983
-1.297604 2.548423 -1.055512 0.435530 0.127598 -0.891079 1.251927 0.399436
0.133537 2.509439 -1.725463 -0.956694 0.165532 -0.239326 1.439670 0.399437
-0.103342 0.055427 1.640719 0.389966 -0.904202 0.174078 1.439672 0.001072
1.327799 0.016443 0.970768 -0.155675 -0.889035 0.430525 1.251929 0.001069
1.357994 2.581309 0.886023 -0.431715 0.196356 0.880367 1.251926 0.401483
-0.073147 2.620293 1.555974 0.960509 0.158422 0.228614 1.439669 0.401486
-0.370360 3.358532 0.878116 0.789148 0.606006 -0.099582 1.439667 0.573683
1.060781 3.319548 0.208165 -0.554033 0.642598 0.529191 1.251924 0.573679
0.855738 3.431680 -0.236371 -0.622913 0.691214 0.366283 1.251923 0.653323
-0.575403 3.470664 0.433580 0.710349 0.654897 -0.257820 1.439666 0.653327
-0.774618 3.458971 0.008700 0.638691 0.650685 -0.410627 1.251927 0.655498
0.656523 3.419987 -0.661251 -0.694540 0.687002 0.213477 1.439669 0.655500
-0.183081 3.097372 1.293374 0.896359 0.436781 0.075381 1.439668 0.490814
1.248060 3.058388 0.623423 -0.495834 0.474715 0.727134 1.251925 0.490811
-0.575403 3.470664 0.433580 0.710349 0.654897 -0.257820 1.439666 0.592950
0.855738 3.431680 -0.236371 -0.622913 0.691214 0.366283 1.251923 0.592947
0.656523 3.419987 -0.661251 -0.694540 0.687002 0.213477 1.251923 0.667920
-0.774618 3.458971 0.008700 0.638691 0.650685 -0.410627 1.439666 0.667924
0.580526 3.013839 -1.674757 0.367840 0.495376 -0.786920 0.354454 0.687211
0.244827 3.022983 -1.517609 -0.817072 0.527665 -0.232215 0.354454 0.780390
0.443361 3.314438 -1.110463 -0.724937 0.688772 0.004608 0.415498 0.780390
0.779059 3.305294 -1.267612 0.497879 0.655477 -0.567797 0.415498 0.687212
0.424692 -0.065413 -1.828470 0.270821 -0.605487 -0.748314 0.000424 0.687210
0.088993 -0.056269 -1.671321 -0.774560 -0.577013 -0.258919 0.000424 0.780389
0.119757 2.517187 -1.755350 -0.900571 0.189642 -0.391125 0.288549 0.780390
0.455456 2.508042 -1.912498 0.284188 0.157353 -0.945738 0.288549 0.687211
-0.424692 0.065413 1.828470 -0.284402 -0.548235 0.786431 0.999567 0.780463
-0.088993 0.056269 1.671321 0.760979 -0.576708 0.297067 0.999568 0.687500
-0.059166 2.629670 1.585294 0.905087 0.193793 0.378430 0.710041 0.687493
-0.394864 2.638814 1.742443 -0.279672 0.226081 0.933073 0.710040 0.780456
-0.700131 3.399154 1.046093 -0.481887 0.703055 0.522935 0.585530 0.780452
-0.364433 3.390009 0.888945 0.740928 0.669729 -0.049501 0.585531 0.687490
-0.573218 3.504294 0.436290 0.663106 0.712455 -0.229377 0.527943 0.687488
-0.908917 3.513439 0.593438 -0.568316 0.746025 0.347056 0.527942 0.780451
-1.111711 3.501535 0.160923 -0.645985 0.741447 0.181341 0.473732 0.780450
-0.776013 3.492391 0.003775 0.585406 0.707907 -0.395093 0.473732 0.687487
-0.987780 3.353422 -0.440512 0.497879 0.655477 -0.567797 0.415523 0.687486
-1.323478 3.362566 -0.283364 -0.724937 0.688772 0.004608 0.415523 0.780450
-0.508190 3.130618 1.471741 -0.355480 0.554735 0.752220 0.645450 0.780454
-0.172492 3.121474 1.314592 0.829432 0.522477 0.197516 0.645451 0.687491
-1.186313 3.061967 -0.847658 0.367840 0.495376 -0.786920 0.354483 0.687486
-1.522012 3.071111 -0.690509 -0.817072 0.527665 -0.232215 0.354483 0.780450
-1.342147 -0.017285 -1.001370 0.270821 -0.605487 -0.748314 0.000473 0.687485
-1.677846 -0.008141 -0.844222 -0.774560 -0.577013 -0.258919 0.000473 0.780448
-1.647081 2.565315 -0.928250 -0.900571 0.189642 -0.391125 0.288581 0.780449
-1.311383 2.556170 -1.085399 0.284188 0.157353 -0.945738 0.288581 0.687486
1.342147 0.017285 1.001370 -0.284402 -0.548235 0.786431 0.999575 0.780404
1.677846 0.008141 0.844222 0.760979 -0.576708 0.297067 0.999576 0.687225
1.707673 2.581542 0.758195 0.905087 0.193793 0.378430 0.710032 0.687218
1.371974 2.590686 0.915344 -0.279672 0.226081 0.933073 0.710032 0.780396
1.066708 3.351026 0.218994 -0.481887 0.703055 0.522935 0.585515 0.780394
1.402406 3.341881 0.061845 0.740928 0.669729 -0.049501 0.585515 0.687215
1.193621 3.456166 -0.390810 0.663106 0.712485 -0.229377 0.527924 0.687213
0.857923 3.465311 -0.233661 -0.568316 0.746025 0.347056 0.527923 0.780392
0.655128 3.453407 -0.666176 -0.645985 0.741447 0.181341 0.473710 0.780391
0.990826 3.444263 -0.823325 0.585406 0.707907 -0.395093 0.473710 0.687212
1.258649 3.082490 0.644641 -0.355480 0.554735 0.752220 0.645438 0.780394
1.594347 3.073346 0.487493 0.829432 0.522477 0.197516 0.645438 0.687216
2.928063 3.112779 -0.733494 0.905393 -0.024659 -0.423811 0.029498 0.126780
3.090721 2.884300 -0.372733 0.905393 -0.024659 -0.423811 0.079271 0.043647
3.183480 2.481752 -0.151159 0.905393 -0.024659 -0.423811 0.164586 -0.005372
2.371022 3.080083 -1.921536 0.905393 -0.024659 -0.423811 0.029498 0.406652
3.154754 -0.039027 -0.065841 0.632252 -0.723685 -0.276589 0.691354 -0.005850
2.069757 -0.102711 -2.379893 0.632191 -0.723930 -0.276131 0.691354 0.539281
2.100384 2.418180 -2.461154 0.905393 -0.024659 -0.423811 0.164586 0.538804
2.202756 2.832180 -2.266560 0.905393 -0.024659 -0.423811 0.079271 0.489784
2.741672 3.214926 -1.137606 0.905393 -0.024659 -0.423811 0.005850 0.221097
2.560078 3.204268 -1.524904 0.905393 -0.024659 -0.423811 0.005850 0.312335
-2.853482 3.222397 0.524179 -0.905393 0.024659 0.423811 0.029498 0.406652
-3.021748 2.974494 0.179155 -0.905393 0.024659 0.423811 0.079272 0.489784
-3.124120 2.560493 -0.015440 -0.905393 0.024659 0.423811 0.164587 0.538804
-2.296441 3.255093 1.712220 -0.905393 0.024659 0.423811 0.029498 0.126780
-3.154747 0.039602 0.065822 -0.648885 -0.688772 0.323252 0.691354 0.539281
-2.069750 0.103287 2.379874 -0.648823 -0.689047 0.322794 0.691354 -0.005850
-2.041024 2.624066 2.294556 -0.905393 0.024659 0.423811 0.164587 -0.005372
-2.133783 3.026613 2.072982 -0.905393 0.024659 0.423811 0.079272 0.043647
-2.664426 3.346581 0.920810 -0.905393 0.024659 0.423811 0.005850 0.312335
-2.482832 3.357240 1.308108 -0.905393 0.024659 0.423811 0.005850 0.221097
3.154754 -0.039027 -0.065841 0.632252 -0.723685 -0.276589 -0.999134 0.808115
3.183480 2.481752 -0.151159 0.905393 -0.024659 -0.423811 -0.419862 0.808129
3.090721 2.884300 -0.372733 0.905393 -0.024659 -0.423811 -0.290634 0.808132
2.928063 3.112779 -0.733494 0.905393 -0.024659 -0.423811 -0.170749 0.808135
2.741672 3.214926 -1.137606 0.905393 -0.024659 -0.423811 -0.055530 0.808139
2.560078 3.204268 -1.524904 0.905393 -0.024659 -0.423811 0.052933 0.808140
2.371022 3.080083 -1.921536 0.905393 -0.024659 -0.423811 0.169394 0.808141
2.202756 2.832180 -2.266560 0.905393 -0.024659 -0.423811 0.291521 0.808143
2.100384 2.418180 -2.461154 0.905393 -0.024659 -0.423811 0.423373 0.808144
2.069757 -0.102711 -2.379893 0.632191 -0.723930 -0.276131 0.999807 0.808150
-3.154747 0.039602 0.065822 -0.648885 -0.688772 0.323252 -0.999040 0.808557
-3.124120 2.560493 -0.015440 -0.905393 0.024659 0.423811 -0.422592 0.808563
-3.021748 2.974494 0.179155 -0.905393 0.024659 0.423811 -0.290736 0.808564
-2.853482 3.222397 0.524179 -0.905393 0.024659 0.423811 -0.168606 0.808565
-2.664426 3.346581 0.920810 -0.905393 0.024659 0.423811 -0.052142 0.808567
-2.482832 3.357240 1.308108 -0.905393 0.024659 0.423811 0.056323 0.808570
-2.296441 3.255093 1.712220 -0.905393 0.024659 0.423811 0.171546 0.808572
-2.133783 3.026613 2.072982 -0.905393 0.024659 0.423811 0.291433 0.808575
-2.041024 2.624066 2.294556 -0.905393 0.024659 0.423811 0.420665 0.808579
-2.069750 0.103287 2.379874 -0.648823 -0.689047 0.322794 0.999952 0.808592
0.350063 2.249426 1.359950 -0.905393 0.024659 0.423811 0.830916 0.334934
0.391256 2.069895 1.345576 -0.789972 -0.478317 0.383557 0.830916 0.345011
0.411556 2.071086 1.388870 -0.320902 -0.345897 0.881680 0.809822 0.345011
0.370362 2.250617 1.403244 -0.408307 0.034944 0.912168 0.809822 0.334934
0.508005 1.936109 1.294518 -0.462874 -0.853145 0.240516 0.830916 0.355088
0.528304 1.937301 1.337812 -0.073244 -0.629688 0.773370 0.809822 0.355088
0.669021 1.883917 1.220458 -0.011750 -0.999359 0.032991 0.830916 0.365165
0.689321 1.885109 1.263752 0.268288 -0.740410 0.616230 0.809822 0.365165
0.669021 1.883917 1.220458 -0.011750 -0.999359 0.032991 0.830916 0.244243
0.831162 1.927307 1.143240 0.442488 -0.877804 -0.183325 0.830916 0.254319
0.851462 1.928498 1.186534 0.612262 -0.648366 0.452437 0.809822 0.254319
0.689321 1.885109 1.263752 0.268288 -0.740410 0.616230 0.809822 0.244243
0.950985 2.054648 1.083554 0.778191 -0.521043 -0.350536 0.830916 0.264396
0.971284 2.055840 1.126848 0.866451 -0.378246 0.325816 0.809822 0.264396
0.996378 2.231820 1.057394 0.905393 -0.024659 -0.423811 0.830916 0.274473
1.016677 2.233012 1.100689 0.962737 -0.002380 0.270333 0.809822 0.274473
0.955184 2.411351 1.071768 0.789972 0.478317 -0.383557 0.830916 0.284550
0.975484 2.412542 1.115063 0.875362 0.378430 0.300821 0.809822 0.284550
0.838436 2.545137 1.122827 0.462874 0.853145 -0.240486 0.830916 0.294627
0.858735 2.546328 1.166121 0.627705 0.662252 0.409131 0.809822 0.294627
0.677419 2.597326 1.196887 0.011750 0.999359 -0.032991 0.830916 0.304704
0.697719 2.598517 1.240181 0.286111 0.772942 0.566240 0.809822 0.304704
0.515278 2.553940 1.274104 -0.442488 0.877804 0.183294 0.830916 0.314781
0.535578 2.555131 1.317399 -0.057802 0.680898 0.730033 0.809822 0.314781
0.395456 2.426598 1.333790 -0.778191 0.521043 0.350536 0.830916 0.324857
0.415755 2.427789 1.377085 -0.311991 0.410779 0.856655 0.809822 0.324857
0.411556 2.071086 1.388870 -0.320902 -0.345897 0.881680 0.728829 0.164742
0.528304 1.937301 1.337812 -0.073244 -0.629688 0.773370 0.767396 0.089108
0.689321 1.885109 1.263752 0.268288 -0.740410 0.616230 0.820079 0.061423
0.415755 2.427789 1.377085 -0.311991 0.410779 0.856655 0.728829 0.371380
0.851462 1.928498 1.186534 0.612262 -0.648366 0.452437 0.872762 0.089108
0.971284 2.055840 1.126848 0.866451 -0.378246 0.325816 0.911328 0.164742
0.975484 2.412542 1.115063 0.875362 0.378430 0.300821 0.911328 0.371380
1.016677 2.233012 1.100689 0.962737 -0.002380 0.270333 0.925445 0.268061
0.858735 2.546328 1.166121 0.627705 0.662252 0.409131 0.872762 0.447014
0.697719 2.598517 1.240181 0.286111 0.772942 0.566240 0.820079 0.474699
0.535578 2.555131 1.317399 -0.057802 0.680898 0.730033 0.767396 0.447014
0.370362 2.250617 1.403244 -0.408307 0.034944 0.912168 0.714713 0.268061
4 0 1 2 3
4 4 5 6 7
4 8 9 10 11
4 12 13 14 15
4 16 17 18 19
4 20 21 13 12
4 6 5 0 3
4 10 9 21 20
4 15 14 17 16
4 22 19 18 23
4 24 25 26 27
4 28 29 30 31
4 32 33 34 35
4 36 2 1 37
4 38 32 35 39
4 25 22 23 26
4 29 38 39 30
4 33 36 37 34
4 40 41 42 43
4 44 45 46 47
4 48 49 50 51
4 52 53 54 55
4 56 57 58 59
4 60 52 55 61
4 45 40 43 46
4 49 60 61 50
4 62 63 64 65
4 66 58 57 67
4 68 69 70 71
4 72 73 74 75
4 76 77 78 79
4 80 42 41 81
4 82 76 79 83
4 69 66 67 70
4 73 82 83 74
4 84 85 86 87
4 88 89 90 91
4 92 93 94 95
4 96 97 98 99
4 100 101 102 103
4 104 105 91 90
4 106 107 101 100
4 95 94 89 88
4 99 98 107 106
4 108 109 110 111
4 112 113 114 115
4 116 117 118 119
4 120 121 122 123
4 124 125 126 127
4 128 129 130 131
4 132 133 125 124
4 119 118 113 112
4 123 122 133 132
4 127 126 129 128
4 134 135 131 130
4 136 137 138 139
4 140 141 142 143
4 144 145 146 147
4 148 149 115 114
4 150 151 145 144
4 139 138 135 134
4 143 142 151 150
4 147 146 149 148
4 41 40 112 115
4 40 45 119 112
4 45 44 116 119
4 92 95 118 117
4 95 88 113 118
4 88 91 114 113
4 91 105 148 114
4 110 109 147 148
4 102 101 144 147
4 101 107 150 144
4 107 98 143 150
4 98 97 140 143
4 75 74 142 141
4 74 83 151 142
4 83 79 145 151
4 79 78 146 145
4 87 86 149 146
4 81 41 115 149
4 49 48 120 123
4 96 99 122 121
4 99 106 133 122
4 106 100 125 133
4 100 103 126 125
4 108 111 129 126
4 104 90 130 129
4 90 89 134 130
4 89 94 139 134
4 94 93 136 139
4 71 70 138 137
4 70 67 135 138
4 67 57 131 135
4 57 56 128 131
4 63 62 127 128
4 53 52 124 127
4 52 60 132 124
4 60 49 123 132
4 152 153 154 155
4 154 156 157 155
4 157 158 159 155
4 160 152 155 161
4 47 46 5 4
4 46 43 0 5
4 43 42 1 0
4 42 80 37 1
4 85 84 34 37
4 77 76 35 34
4 76 82 39 35
4 82 73 30 39
4 73 72 31 30
4 162 163 164 165
4 164 166 167 165
4 167 168 169 165
4 170 162 165 171
4 51 50 9 8
4 50 61 21 9
4 61 55 13 21
4 55 54 14 13
4 65 64 17 14
4 59 58 18 17
4 58 66 23 18
4 66 69 26 23
4 69 68 27 26
4 28 172 173 29
4 29 173 174 38
4 38 174 175 32
4 32 175 176 33
4 33 176 177 36
4 36 177 178 2
4 2 178 179 3
4 3 179 180 6
4 6 180 181 7
4 24 182 183 25
4 25 183 184 22
4 22 184 185 19
4 19 185 186 16
4 16 186 187 15
4 15 187 188 12
4 12 188 189 20
4 20 189 190 10
4 10 190 191 11
4 51 8 11 191
4 182 24 27 191
4 191 27 68 71
4 71 137 136 93
4 191 71 93 97
4 92 117 116 44
4 47 4 7 181
4 44 47 181 92
4 93 92 181 97
4 172 28 31 181
4 181 31 72 75
4 75 141 140 97
3 181 75 97
4 191 97 96 48
4 96 121 120 48
3 51 191 48
4 192 193 194 195
4 193 196 197 194
4 196 198 199 197
4 200 201 202 203
4 201 204 205 202
4 204 206 207 205
4 206 208 209 207
4 208 210 211 209
4 210 212 213 211
4 212 214 215 213
4 214 216 217 215
4 216 192 195 217
4 218 219 220 221
4 220 222 223 224
3 223 225 224
4 224 226 227 221
3 227 228 221
3 220 224 221
3 229 218 221
