ply
format ascii 1.0
comment VCGLIB generated
element vertex 184
property float x
property float y
property float z
element face 350
property list uchar int vertex_indices
end_header
-0.774382 0 -0.480865 
-0.774382 0 0.480865 
-0.774382 1.016869 0.390045 
-0.774382 1.016869 -0.390045 
0.774382 1.149148 0.078235 
0.774382 1.107705 0.240432 
-0.774382 1.107705 -0.240432 
-0.774382 0.855481 0.480865 
-0.774382 0.855481 -0.480865 
-0.774382 1.149148 -0.078235 
0.774382 0 -0.480865 
0.774382 0 0.480865 
0.774382 1.016869 0.390045 
0.774382 1.016869 -0.390045 
-0.774382 1.149148 0.078235 
-0.774382 1.107705 0.240432 
0.774382 1.107705 -0.240432 
0.774382 0.855481 0.480865 
0.774382 0.855481 -0.480865 
0.774382 1.149148 -0.078235 
-0.387036 0 -0.480865 
-0.387036 0 0.480865 
-0.387036 1.016869 0.390045 
-0.387036 1.016869 -0.390045 
0.387036 1.149148 0.078235 
0.387036 1.107705 0.240432 
-0.387036 1.107705 -0.240432 
-0.387036 0.855481 0.480865 
-0.387036 0.855481 -0.480865 
-0.387036 1.149148 -0.078235 
0.387036 0 -0.480865 
0.387036 0 0.480865 
0.387036 1.016869 0.390045 
0.387036 1.016869 -0.390045 
-0.387036 1.149148 0.078235 
-0.387036 1.107705 0.240432 
0.387036 1.107705 -0.240432 
0.387036 0.855481 0.480865 
0.387036 0.855481 -0.480865 
0.387036 1.149148 -0.078235 
-0.263445 0 -0.480865 
-0.263445 0 0.480865 
-0.263445 1.016869 0.390045 
-0.263445 1.016869 -0.390045 
0.263445 1.149148 0.078235 
0.263445 1.107705 0.240432 
-0.263445 1.107705 -0.240432 
-0.263445 0.855481 0.480865 
-0.263445 0.855481 -0.480865 
-0.263445 1.149148 -0.078235 
0.263445 0 -0.480865 
0.263445 0 0.480865 
0.263445 1.016869 0.390045 
0.263445 1.016869 -0.390045 
-0.263445 1.149148 0.078235 
-0.263445 1.107705 0.240432 
0.263445 1.107705 -0.240432 
0.263445 0.855481 0.480865 
0.263445 0.855481 -0.480865 
0.263445 1.149148 -0.078235 
-0.387036 1.118095 0.244799 
-0.387036 1.024706 0.398145 
-0.387036 0.858337 0.491767 
-0.387036 0 0.492135 
-0.263445 0 0.492135 
-0.263445 0.858337 0.491767 
-0.263445 1.024706 0.398145 
-0.263445 1.118095 0.244799 
-0.263445 1.16033 0.079641 
-0.263445 1.16033 -0.079641 
-0.263445 1.118095 -0.244799 
-0.263445 1.024706 -0.398145 
-0.263445 0.858337 -0.491767 
-0.263445 0 -0.492135 
-0.387036 0 -0.492135 
-0.387036 0.858337 -0.491767 
-0.387036 1.024706 -0.398145 
-0.387036 1.118095 -0.244799 
-0.387036 1.16033 -0.079641 
-0.387036 1.16033 0.079641 
0.387036 0.858337 -0.491767 
0.387036 0 -0.492135 
0.263445 0 -0.492135 
0.263445 0.858337 -0.491767 
0.263445 1.024706 -0.398145 
0.263445 1.118095 -0.244799 
0.263445 1.16033 -0.079641 
0.263445 1.16033 0.079641 
0.263445 1.118095 0.244799 
0.263445 1.024706 0.398145 
0.263445 0.858337 0.491767 
0.263445 0 0.492135 
0.387036 0 0.492135 
0.387036 0.858337 0.491767 
0.387036 1.024706 0.398145 
0.387036 1.118095 0.244799 
0.387036 1.16033 0.079641 
0.387036 1.16033 -0.079641 
0.387036 1.118095 -0.244799 
0.387036 1.024706 -0.398145 
-0.774382 0 -0.506786 
-0.961729 0 -0.506786 
-0.961729 0.840891 -0.42535 
-0.961729 0.977066 -0.348719 
-0.961729 1.056512 -0.21876 
-0.961729 1.094257 -0.071315 
-0.961729 1.094257 0.071315 
-0.961729 1.056512 0.218759 
-0.961729 0.977066 0.348719 
-0.961729 0.840891 0.42535 
-0.774382 0 0.506786 
-0.774382 0.862051 0.505939 
-0.774382 1.034893 0.408674 
-0.774382 1.131602 0.250477 
-0.774382 1.174867 0.081469 
-0.774382 1.174867 -0.081469 
-0.774382 1.131602 -0.250477 
-0.774382 1.034893 -0.408675 
-0.774382 0.862051 -0.505939 
0.774382 0 0.506786 
0.961729 0 0.506786 
0.961729 0.840891 0.42535 
0.961729 0.977066 0.348719 
0.961729 1.056512 0.218759 
0.961729 1.094257 0.071315 
0.961729 1.094257 -0.071315 
0.961729 1.056512 -0.21876 
0.961729 0.977066 -0.348719 
0.961729 0.840891 -0.42535 
0.774382 0 -0.506786 
0.774382 0.862051 -0.505939 
0.774382 1.034893 -0.408675 
0.774382 1.131602 -0.250477 
0.774382 1.174867 -0.081469 
0.774382 1.174867 0.081469 
0.774382 1.131602 0.250477 
0.774382 1.034893 0.408674 
0.774382 0.862051 0.505939 
-0.961729 9.6e-05 -0.426097 
-0.961729 0.862051 -0.505939 
-0.961729 1.034893 -0.408675 
-0.961729 1.131602 -0.250477 
-0.961729 1.174867 -0.081469 
-0.961729 1.174867 0.081469 
-0.961729 1.131602 0.250477 
-0.961729 1.034893 0.408674 
-0.961729 0.862051 0.505939 
-0.961729 0 0.506786 
0.961729 9.6e-05 0.426097 
0.961729 0.862051 0.505939 
0.961729 1.034893 0.408674 
0.961729 1.131602 0.250477 
0.961729 1.174867 0.081469 
0.961729 1.174867 -0.081469 
0.961729 1.131602 -0.250477 
0.961729 1.034893 -0.408675 
0.961729 0.862051 -0.505939 
0.961729 0 -0.506786 
-0.961729 9.6e-05 0.426097 
0.961729 9.6e-05 -0.426097 
0.104977 0.735752 -0.478512 
0.089038 0.676265 -0.478512 
0.04549 0.632717 -0.478512 
-0.013997 0.616777 -0.478512 
-0.073484 0.632717 -0.478512 
-0.117032 0.676265 -0.478512 
-0.132971 0.735752 -0.478512 
-0.117032 0.795239 -0.478512 
-0.073484 0.838787 -0.478512 
-0.013997 0.854726 -0.478512 
0.04549 0.838787 -0.478512 
0.089038 0.795239 -0.478512 
0.104977 0.735752 -0.494456 
0.089038 0.676265 -0.494456 
0.04549 0.632717 -0.494456 
-0.013997 0.616777 -0.494456 
-0.073484 0.632717 -0.494456 
-0.117032 0.676265 -0.494456 
-0.132971 0.735752 -0.494456 
-0.117032 0.795239 -0.494456 
-0.073484 0.838787 -0.494456 
-0.013997 0.854726 -0.494456 
0.04549 0.838787 -0.494456 
0.089038 0.795239 -0.494456 
3 112 113 144 
3 112 144 145 
3 110 111 146 
3 110 146 147 
3 129 130 156 
3 129 156 157 
3 154 132 133 
3 154 133 153 
3 152 134 135 
3 152 135 151 
3 155 131 132 
3 155 132 154 
3 146 111 112 
3 146 112 145 
3 156 130 131 
3 156 131 155 
3 153 133 134 
3 153 134 152 
3 150 151 135 
3 150 135 136 
3 120 149 137 
3 120 137 119 
3 101 139 118 
3 101 118 100 
3 141 142 115 
3 141 115 116 
3 143 144 113 
3 143 113 114 
3 140 141 116 
3 140 116 117 
3 149 150 136 
3 149 136 137 
3 139 140 117 
3 139 117 118 
3 142 143 114 
3 142 114 115 
3 22 35 15 
3 22 15 2 
3 21 27 7 
3 21 7 1 
3 30 38 18 
3 30 18 10 
3 36 39 19 
3 36 19 16 
3 24 25 5 
3 24 5 4 
3 33 36 16 
3 33 16 13 
3 27 22 2 
3 27 2 7 
3 38 33 13 
3 38 13 18 
3 39 24 4 
3 39 4 19 
3 12 5 25 
3 12 25 32 
3 11 17 37 
3 11 37 31 
3 0 8 28 
3 0 28 20 
3 6 9 29 
3 6 29 26 
3 14 15 35 
3 14 35 34 
3 3 6 26 
3 3 26 23 
3 17 12 32 
3 17 32 37 
3 8 3 23 
3 8 23 28 
3 9 14 34 
3 9 34 29 
3 42 52 45 
3 42 45 55 
3 41 51 57 
3 41 57 47 
3 50 40 48 
3 50 48 58 
3 56 46 49 
3 56 49 59 
3 44 54 55 
3 44 55 45 
3 53 43 46 
3 53 46 56 
3 47 57 52 
3 47 52 42 
3 58 48 43 
3 58 43 53 
3 59 49 54 
3 59 54 44 
3 61 66 67 
3 61 67 60 
3 63 64 65 
3 63 65 62 
3 81 82 83 
3 81 83 80 
3 98 85 86 
3 98 86 97 
3 96 87 88 
3 96 88 95 
3 99 84 85 
3 99 85 98 
3 62 65 66 
3 62 66 61 
3 80 83 84 
3 80 84 99 
3 97 86 87 
3 97 87 96 
3 89 94 95 
3 89 95 88 
3 91 92 93 
3 91 93 90 
3 73 74 75 
3 73 75 72 
3 70 77 78 
3 70 78 69 
3 68 79 60 
3 68 60 67 
3 71 76 77 
3 71 77 70 
3 90 93 94 
3 90 94 89 
3 72 75 76 
3 72 76 71 
3 69 78 79 
3 69 79 68 
3 35 22 61 
3 35 61 60 
3 22 27 62 
3 22 62 61 
3 27 21 63 
3 27 63 62 
3 41 47 65 
3 41 65 64 
3 47 42 66 
3 47 66 65 
3 42 55 67 
3 42 67 66 
3 55 54 68 
3 55 68 67 
3 54 49 69 
3 54 69 68 
3 49 46 70 
3 49 70 69 
3 46 43 71 
3 46 71 70 
3 43 48 72 
3 43 72 71 
3 48 40 73 
3 48 73 72 
3 20 28 75 
3 20 75 74 
3 28 23 76 
3 28 76 75 
3 23 26 77 
3 23 77 76 
3 26 29 78 
3 26 78 77 
3 29 34 79 
3 29 79 78 
3 34 35 60 
3 34 60 79 
3 38 30 81 
3 38 81 80 
3 50 58 83 
3 50 83 82 
3 58 53 84 
3 58 84 83 
3 53 56 85 
3 53 85 84 
3 56 59 86 
3 56 86 85 
3 59 44 87 
3 59 87 86 
3 44 45 88 
3 44 88 87 
3 45 52 89 
3 45 89 88 
3 52 57 90 
3 52 90 89 
3 57 51 91 
3 57 91 90 
3 31 37 93 
3 31 93 92 
3 37 32 94 
3 37 94 93 
3 32 25 95 
3 32 95 94 
3 25 24 96 
3 25 96 95 
3 24 39 97 
3 24 97 96 
3 39 36 98 
3 39 98 97 
3 36 33 99 
3 36 99 98 
3 33 38 80 
3 33 80 99 
3 104 103 102 
3 104 102 107 
3 102 138 158 
3 102 158 107 
3 158 109 108 
3 158 108 107 
3 105 104 107 
3 105 107 106 
3 1 7 111 
3 1 111 110 
3 7 2 112 
3 7 112 111 
3 2 15 113 
3 2 113 112 
3 15 14 114 
3 15 114 113 
3 14 9 115 
3 14 115 114 
3 9 6 116 
3 9 116 115 
3 6 3 117 
3 6 117 116 
3 3 8 118 
3 3 118 117 
3 8 0 100 
3 8 100 118 
3 123 122 121 
3 123 121 126 
3 121 148 159 
3 121 159 126 
3 159 128 127 
3 159 127 126 
3 124 123 126 
3 124 126 125 
3 10 18 130 
3 10 130 129 
3 18 13 131 
3 18 131 130 
3 13 16 132 
3 13 132 131 
3 16 19 133 
3 16 133 132 
3 19 4 134 
3 19 134 133 
3 4 5 135 
3 4 135 134 
3 5 12 136 
3 5 136 135 
3 12 17 137 
3 12 137 136 
3 17 11 119 
3 17 119 137 
3 101 138 102 
3 101 102 139 
3 139 102 103 
3 139 103 140 
3 140 103 104 
3 140 104 141 
3 141 104 105 
3 141 105 142 
3 142 105 106 
3 142 106 143 
3 143 106 107 
3 143 107 144 
3 144 107 108 
3 144 108 145 
3 145 108 109 
3 145 109 146 
3 146 109 158 
3 146 158 147 
3 120 148 121 
3 120 121 149 
3 149 121 122 
3 149 122 150 
3 150 122 123 
3 150 123 151 
3 151 123 124 
3 151 124 152 
3 152 124 125 
3 152 125 153 
3 153 125 126 
3 153 126 154 
3 154 126 127 
3 154 127 155 
3 155 127 128 
3 155 128 156 
3 156 128 159 
3 156 159 157 
3 10 129 157 
3 10 157 159 
3 148 120 119 
3 148 119 159 
3 159 119 11 
3 159 11 31 
3 31 92 91 
3 31 91 51 
3 159 31 51 
3 159 51 40 
3 41 64 63 
3 41 63 21 
3 1 110 147 
3 1 147 158 
3 21 1 158 
3 21 158 41 
3 51 41 158 
3 51 158 40 
3 138 101 100 
3 138 100 158 
3 158 100 0 
3 158 0 20 
3 20 74 73 
3 20 73 40 
3 158 20 40 
3 159 40 50 
3 159 50 30 
3 50 82 81 
3 50 81 30 
3 10 159 30 
3 160 161 173 
3 160 173 172 
3 161 162 174 
3 161 174 173 
3 162 163 175 
3 162 175 174 
3 163 164 176 
3 163 176 175 
3 164 165 177 
3 164 177 176 
3 165 166 178 
3 165 178 177 
3 166 167 179 
3 166 179 178 
3 167 168 180 
3 167 180 179 
3 168 169 181 
3 168 181 180 
3 169 170 182 
3 169 182 181 
3 170 171 183 
3 170 183 182 
3 171 160 172 
3 171 172 183 
3 173 174 175 
3 173 175 183 
3 175 176 177 
3 175 177 179 
3 177 178 179 
3 179 180 181 
3 179 181 183 
3 181 182 183 
3 175 179 183 
3 172 173 183 
