ply
format ascii 1.0
comment VCGLIB generated
element vertex 230
property float x
property float y
property float z
property float texture_u
property float texture_v
element face 350
property list uchar int vertex_indices
end_header
0.7765111 1.034893 -0.4046139 0.291523 0.810757
0.7756828 1.131602 -0.2464191 0.169396 0.810756
0.9630272 1.131602 -0.2454382 0.169394 0.998407
0.9638555 1.034893 -0.403633 0.291521 0.998409
0.7770248 0 -0.5027245 0.999808 0.810764
0.7770203 0.862051 -0.5018776 0.423375 0.810758
0.9643648 0.862051 -0.5008968 0.423373 0.998410
0.9643692 0 -0.5017437 0.999807 0.998416
-0.7770248 0 0.5027245 0.999955 0.810878
-0.7770203 0.862051 0.5018776 0.420667 0.810864
-0.9643648 0.862051 0.5008968 0.420665 0.998845
-0.9643692 0 0.5017437 0.999952 0.998858
-0.9630272 1.131602 0.2454382 0.171546 0.998838
-0.7756828 1.131602 0.2464191 0.171548 0.810857
-0.7747979 1.174867 0.07741342 0.056325 0.810855
-0.9621423 1.174867 0.07643253 0.056323 0.998836
-0.9612893 1.174867 -0.08650324 -0.052142 0.998833
-0.7739449 1.174867 -0.08552234 -0.052140 0.810852
-0.77306 1.131602 -0.254528 -0.168605 0.810851
-0.9604044 1.131602 -0.2555089 -0.168606 0.998832
-0.9638555 1.034893 0.403634 0.291433 0.998841
-0.7765111 1.034893 0.4046149 0.291435 0.810860
-0.9595761 1.034893 -0.4137038 -0.290736 0.998831
-0.7722317 1.034893 -0.4127229 -0.290735 0.810850
-0.9590624 0 -0.5118144 -0.999040 0.998824
-0.9590669 0.862051 -0.5109674 -0.422592 0.998829
-0.7717224 0.862051 -0.5099866 -0.422590 0.810848
-0.771718 0 -0.5108335 -0.999039 0.810843
0.9590624 0 0.5118144 -0.999134 0.998381
0.9590669 0.862051 0.5109674 -0.419862 0.998395
0.7717224 0.862051 0.5099866 -0.419860 0.810744
0.771718 0 0.5108335 -0.999132 0.810730
0.9604044 1.131602 0.2555089 -0.170749 0.998401
0.9612893 1.174867 0.08650324 -0.055530 0.998405
0.7739449 1.174867 0.08552234 -0.055528 0.810753
0.77306 1.131602 0.254528 -0.170747 0.810749
0.9621423 1.174867 -0.07643253 0.052933 0.998406
0.7747979 1.174867 -0.07741342 0.052934 0.810755
0.9595761 1.034893 0.4137048 -0.290634 0.998398
0.7722317 1.034893 0.4127238 -0.290632 0.810747
0.3890729 1.016869 -0.3880132 1.483708 0.490579
0.3882895 1.107705 -0.2384023 1.483708 0.574998
0.7756302 1.107705 -0.2363742 1.621728 0.574999
0.7764136 1.016869 -0.3859852 1.621728 0.490580
0.3895484 0 -0.478832 1.483709 0.000985
0.3895484 0.855481 -0.478832 1.483708 0.399438
0.7768891 0.855481 -0.476804 1.621728 0.399439
0.7768891 0 -0.476804 1.621729 0.000987
-0.3895484 0 0.478832 1.483710 0.001073
-0.3895484 0.855481 0.478832 1.483707 0.401487
-0.7768891 0.855481 0.476804 1.621727 0.401489
-0.7768891 0 0.476804 1.621731 0.001075
-0.3882895 1.107705 0.2384023 1.483705 0.573683
-0.3874403 1.149148 0.07620751 1.483705 0.653327
-0.774781 1.149148 0.07417947 1.621725 0.653330
-0.7756302 1.107705 0.2363742 1.621725 0.573686
-0.3866211 1.149148 -0.08026034 1.207888 0.655497
-0.3857718 1.107705 -0.2424551 1.207888 0.574995
-0.7731125 1.107705 -0.2444832 1.069868 0.574994
-0.7739618 1.149148 -0.08228838 1.069868 0.655496
-0.3890729 1.016869 0.3880132 1.483706 0.490815
-0.7764136 1.016869 0.3859852 1.621726 0.490817
-0.3874403 1.149148 0.07620751 1.483705 0.592951
-0.3866211 1.149148 -0.08026034 1.483704 0.667924
-0.7739618 1.149148 -0.08228838 1.621724 0.667927
-0.774781 1.149148 0.07417947 1.621725 0.592953
-0.7723292 1.016869 -0.3940941 1.069868 0.490575
-0.3849885 1.016869 -0.3920661 1.207888 0.490576
-0.7718537 0 -0.4849129 1.069869 0.000982
-0.7718537 0.855481 -0.4849129 1.069868 0.399434
-0.384513 0.855481 -0.4828848 1.207889 0.399435
-0.384513 0 -0.4828848 1.207889 0.000983
0.7718537 0 0.4849129 1.069870 0.001066
0.7718537 0.855481 0.4849129 1.069867 0.401480
0.384513 0.855481 0.4828848 1.207887 0.401482
0.384513 0 0.4828848 1.207891 0.001068
0.7731125 1.107705 0.2444832 1.069866 0.573676
0.7739618 1.149148 0.08228838 1.069865 0.653321
0.3866211 1.149148 0.08026034 1.207885 0.653323
0.3857718 1.107705 0.2424551 1.207886 0.573679
0.774781 1.149148 -0.07417947 1.621728 0.655501
0.3874403 1.149148 -0.07620751 1.483708 0.655500
0.7723292 1.016869 0.3940941 1.069866 0.490808
0.3849885 1.016869 0.3920661 1.207886 0.490810
0.7739618 1.149148 0.08228838 1.069865 0.592944
0.774781 1.149148 -0.07417947 1.069864 0.667918
0.3874403 1.149148 -0.07620751 1.207884 0.667920
0.3866211 1.149148 0.08026034 1.207885 0.592946
0.2654836 1.016869 -0.3886603 1.439670 0.490579
-0.2613992 1.016869 -0.391419 1.251927 0.490577
-0.2621825 1.107705 -0.241808 1.251927 0.574995
0.2647002 1.107705 -0.2390494 1.439669 0.574997
0.2659591 0 -0.4794791 1.439670 0.000985
-0.2609237 0 -0.4822378 1.251927 0.000983
-0.2609237 0.855481 -0.4822378 1.251927 0.399436
0.2659591 0.855481 -0.4794791 1.439670 0.399437
-0.2659591 0 0.4794791 1.439672 0.001072
0.2609237 0 0.4822378 1.251929 0.001069
0.2609237 0.855481 0.4822378 1.251926 0.401483
-0.2659591 0.855481 0.4794791 1.439669 0.401486
-0.2647002 1.107705 0.2390494 1.439667 0.573683
0.2621825 1.107705 0.241808 1.251924 0.573679
0.2630318 1.149148 0.07961325 1.251923 0.653323
-0.263851 1.149148 0.0768546 1.439666 0.653327
-0.2630318 1.149148 -0.07961325 1.251927 0.655498
0.263851 1.149148 -0.0768546 1.439669 0.655500
-0.2654836 1.016869 0.3886603 1.439668 0.490814
0.2613992 1.016869 0.391419 1.251925 0.490811
-0.263851 1.149148 0.0768546 1.439666 0.592950
0.2630318 1.149148 0.07961325 1.251923 0.592947
0.263851 1.149148 -0.0768546 1.251923 0.667920
-0.2630318 1.149148 -0.07961325 1.439666 0.667924
0.3891153 1.024706 -0.3961131 0.354454 0.687211
0.265526 1.024706 -0.3967602 0.354454 0.780390
0.2647231 1.118095 -0.2434163 0.415498 0.780390
0.3883124 1.118095 -0.2427692 0.415498 0.687212
0.3896074 0 -0.4901018 0.000424 0.687210
0.2660181 0 -0.4907489 0.000424 0.780389
0.2660162 0.858337 -0.4903809 0.288549 0.780390
0.3896055 0.858337 -0.4897338 0.288549 0.687211
-0.3896074 0 0.4901018 0.999567 0.780463
-0.2660181 0 0.4907489 0.999568 0.687500
-0.2660162 0.858337 0.4903809 0.710041 0.687493
-0.3896055 0.858337 0.4897338 0.710040 0.780456
-0.3883124 1.118095 0.2427692 0.585530 0.780452
-0.2647231 1.118095 0.2434163 0.585531 0.687490
-0.2638584 1.16033 0.07826058 0.527943 0.687488
-0.3874477 1.16033 0.07761349 0.527942 0.780451
-0.3866137 1.16033 -0.08166632 0.473732 0.780450
-0.2630244 1.16033 -0.08101923 0.473732 0.687487
-0.2621597 1.118095 -0.246175 0.415523 0.687486
-0.385749 1.118095 -0.2468221 0.415523 0.780450
-0.3891153 1.024706 0.3961131 0.645450 0.780454
-0.265526 1.024706 0.3967602 0.645451 0.687491
-0.2613568 1.024706 -0.3995189 0.354483 0.687486
-0.3849461 1.024706 -0.4001659 0.354483 0.780450
-0.2608647 0 -0.4935076 0.000473 0.687485
-0.384454 0 -0.4941547 0.000473 0.780448
-0.3844559 0.858337 -0.4937867 0.288581 0.780449
-0.2608666 0.858337 -0.4931396 0.288581 0.687486
0.2608647 0 0.4935076 0.999575 0.780404
0.384454 0 0.4941547 0.999576 0.687225
0.3844559 0.858337 0.4937867 0.710032 0.687218
0.2608666 0.858337 0.4931396 0.710032 0.780396
0.2621597 1.118095 0.246175 0.585515 0.780394
0.385749 1.118095 0.2468221 0.585515 0.687215
0.3866137 1.16033 0.08166632 0.527924 0.687213
0.2630244 1.16033 0.08101923 0.527923 0.780392
0.2638584 1.16033 -0.07826058 0.473710 0.780391
0.3874477 1.16033 -0.07761349 0.473710 0.687212
0.2613568 1.024706 0.3995189 0.645438 0.780394
0.3849461 1.024706 0.4001659 0.645438 0.687216
0.9605705 1.056512 0.2237924 0.029498 0.126780
0.95989 0.977066 0.3537496 0.079271 0.043647
0.9594888 0.840891 0.4303795 0.164586 -0.005372
0.9628612 1.056512 -0.2137206 0.029498 0.406652
0.9594849 9.6e-05 0.4311265 0.691354 -0.005850
0.9639468 9.6e-05 -0.4210558 0.691354 0.539281
0.9639428 0.840891 -0.4203088 0.164586 0.538804
0.9635416 0.977066 -0.3436789 0.079271 0.489784
0.9613425 1.094257 0.07634938 0.005850 0.221097
0.9620892 1.094257 -0.06627867 0.005850 0.312335
-0.9605705 1.056512 -0.2237914 0.029498 0.406652
-0.95989 0.977066 -0.3537496 0.079272 0.489784
-0.9594888 0.840891 -0.4303795 0.164587 0.538804
-0.9628612 1.056512 0.2137216 0.029498 0.126780
-0.9594849 9.6e-05 -0.4311265 0.691354 0.539281
-0.9639468 9.6e-05 0.4210558 0.691354 -0.005850
-0.9639428 0.840891 0.4203088 0.164587 -0.005372
-0.9635416 0.977066 0.3436789 0.079272 0.043647
-0.9613425 1.094257 -0.07634938 0.005850 0.312335
-0.9620892 1.094257 0.06627867 0.005850 0.221097
0.9594849 9.6e-05 0.4311265 -0.999134 0.808115
0.9594888 0.840891 0.4303795 -0.419862 0.808129
0.95989 0.977066 0.3537496 -0.290634 0.808132
0.9605705 1.056512 0.2237924 -0.170749 0.808135
0.9613425 1.094257 0.07634938 -0.055530 0.808139
0.9620892 1.094257 -0.06627867 0.052933 0.808140
0.9628612 1.056512 -0.2137206 0.169394 0.808141
0.9635416 0.977066 -0.3436789 0.291521 0.808143
0.9639428 0.840891 -0.4203088 0.423373 0.808144
0.9639468 9.6e-05 -0.4210558 0.999807 0.808150
-0.9594849 9.6e-05 -0.4311265 -0.999040 0.808557
-0.9594888 0.840891 -0.4303795 -0.422592 0.808563
-0.95989 0.977066 -0.3537496 -0.290736 0.808564
-0.9605705 1.056512 -0.2237914 -0.168606 0.808565
-0.9613425 1.094257 -0.07634938 -0.052142 0.808567
-0.9620892 1.094257 0.06627867 0.056323 0.808570
-0.9628612 1.056512 0.2137216 0.171546 0.808572
-0.9635416 0.977066 0.3436789 0.291433 0.808575
-0.9639428 0.840891 0.4203088 0.420665 0.808579
-0.9639468 9.6e-05 0.4210558 0.999952 0.808592
-0.1074809 0.735752 0.4779558 0.830916 0.334934
-0.09154214 0.676265 0.4780393 0.830916 0.345011
-0.09162562 0.676265 0.4939831 0.809822 0.345011
-0.1075644 0.735752 0.4938996 0.809822 0.334934
-0.04799474 0.632717 0.4782673 0.830916 0.355088
-0.04807822 0.632717 0.494211 0.809822 0.355088
0.01149145 0.616777 0.4785787 0.830916 0.365165
0.01140797 0.616777 0.4945225 0.809822 0.365165
0.01149145 0.616777 0.4785787 0.830916 0.244243
0.07097764 0.632717 0.4788902 0.830916 0.254319
0.07089416 0.632717 0.494834 0.809822 0.254319
0.01140797 0.616777 0.4945225 0.809822 0.244243
0.114525 0.676265 0.4791182 0.830916 0.264396
0.1144416 0.676265 0.495062 0.809822 0.264396
0.1304638 0.735752 0.4792016 0.830916 0.274473
0.1303803 0.735752 0.4951454 0.809822 0.274473
0.114525 0.795239 0.4791182 0.830916 0.284550
0.1144416 0.795239 0.495062 0.809822 0.284550
0.07097764 0.838787 0.4788902 0.830916 0.294627
0.07089416 0.838787 0.494834 0.809822 0.294627
0.01149145 0.854726 0.4785787 0.830916 0.304704
0.01140797 0.854726 0.4945225 0.809822 0.304704
-0.04799474 0.838787 0.4782673 0.830916 0.314781
-0.04807822 0.838787 0.494211 0.809822 0.314781
-0.09154214 0.795239 0.4780393 0.830916 0.324857
-0.09162562 0.795239 0.4939831 0.809822 0.324857
-0.09162562 0.676265 0.4939831 0.728829 0.164742
-0.04807822 0.632717 0.494211 0.767396 0.089108
0.01140797 0.616777 0.4945225 0.820079 0.061423
-0.09162562 0.795239 0.4939831 0.728829 0.371380
0.07089416 0.632717 0.494834 0.872762 0.089108
0.1144416 0.676265 0.495062 0.911328 0.164742
0.1144416 0.795239 0.495062 0.911328 0.371380
0.1303803 0.735752 0.4951454 0.925445 0.268061
0.07089416 0.838787 0.494834 0.872762 0.447014
0.01140797 0.854726 0.4945225 0.820079 0.474699
-0.04807822 0.838787 0.494211 0.767396 0.447014
-0.1075644 0.735752 0.4938996 0.714713 0.268061
3 0 1 2 
3 0 2 3 
3 4 5 6 
3 4 6 7 
3 8 9 10 
3 8 10 11 
3 12 13 14 
3 12 14 15 
3 16 17 18 
3 16 18 19 
3 20 21 13 
3 20 13 12 
3 6 5 0 
3 6 0 3 
3 10 9 21 
3 10 21 20 
3 15 14 17 
3 15 17 16 
3 22 19 18 
3 22 18 23 
3 24 25 26 
3 24 26 27 
3 28 29 30 
3 28 30 31 
3 32 33 34 
3 32 34 35 
3 36 2 1 
3 36 1 37 
3 38 32 35 
3 38 35 39 
3 25 22 23 
3 25 23 26 
3 29 38 39 
3 29 39 30 
3 33 36 37 
3 33 37 34 
3 40 41 42 
3 40 42 43 
3 44 45 46 
3 44 46 47 
3 48 49 50 
3 48 50 51 
3 52 53 54 
3 52 54 55 
3 56 57 58 
3 56 58 59 
3 60 52 55 
3 60 55 61 
3 45 40 43 
3 45 43 46 
3 49 60 61 
3 49 61 50 
3 62 63 64 
3 62 64 65 
3 66 58 57 
3 66 57 67 
3 68 69 70 
3 68 70 71 
3 72 73 74 
3 72 74 75 
3 76 77 78 
3 76 78 79 
3 80 42 41 
3 80 41 81 
3 82 76 79 
3 82 79 83 
3 69 66 67 
3 69 67 70 
3 73 82 83 
3 73 83 74 
3 84 85 86 
3 84 86 87 
3 88 89 90 
3 88 90 91 
3 92 93 94 
3 92 94 95 
3 96 97 98 
3 96 98 99 
3 100 101 102 
3 100 102 103 
3 104 105 91 
3 104 91 90 
3 106 107 101 
3 106 101 100 
3 95 94 89 
3 95 89 88 
3 99 98 107 
3 99 107 106 
3 108 109 110 
3 108 110 111 
3 112 113 114 
3 112 114 115 
3 116 117 118 
3 116 118 119 
3 120 121 122 
3 120 122 123 
3 124 125 126 
3 124 126 127 
3 128 129 130 
3 128 130 131 
3 132 133 125 
3 132 125 124 
3 119 118 113 
3 119 113 112 
3 123 122 133 
3 123 133 132 
3 127 126 129 
3 127 129 128 
3 134 135 131 
3 134 131 130 
3 136 137 138 
3 136 138 139 
3 140 141 142 
3 140 142 143 
3 144 145 146 
3 144 146 147 
3 148 149 115 
3 148 115 114 
3 150 151 145 
3 150 145 144 
3 139 138 135 
3 139 135 134 
3 143 142 151 
3 143 151 150 
3 147 146 149 
3 147 149 148 
3 41 40 112 
3 41 112 115 
3 40 45 119 
3 40 119 112 
3 45 44 116 
3 45 116 119 
3 92 95 118 
3 92 118 117 
3 95 88 113 
3 95 113 118 
3 88 91 114 
3 88 114 113 
3 91 105 148 
3 91 148 114 
3 110 109 147 
3 110 147 148 
3 102 101 144 
3 102 144 147 
3 101 107 150 
3 101 150 144 
3 107 98 143 
3 107 143 150 
3 98 97 140 
3 98 140 143 
3 75 74 142 
3 75 142 141 
3 74 83 151 
3 74 151 142 
3 83 79 145 
3 83 145 151 
3 79 78 146 
3 79 146 145 
3 87 86 149 
3 87 149 146 
3 81 41 115 
3 81 115 149 
3 49 48 120 
3 49 120 123 
3 96 99 122 
3 96 122 121 
3 99 106 133 
3 99 133 122 
3 106 100 125 
3 106 125 133 
3 100 103 126 
3 100 126 125 
3 108 111 129 
3 108 129 126 
3 104 90 130 
3 104 130 129 
3 90 89 134 
3 90 134 130 
3 89 94 139 
3 89 139 134 
3 94 93 136 
3 94 136 139 
3 71 70 138 
3 71 138 137 
3 70 67 135 
3 70 135 138 
3 67 57 131 
3 67 131 135 
3 57 56 128 
3 57 128 131 
3 63 62 127 
3 63 127 128 
3 53 52 124 
3 53 124 127 
3 52 60 132 
3 52 132 124 
3 60 49 123 
3 60 123 132 
3 152 153 154 
3 152 154 155 
3 154 156 157 
3 154 157 155 
3 157 158 159 
3 157 159 155 
3 160 152 155 
3 160 155 161 
3 47 46 5 
3 47 5 4 
3 46 43 0 
3 46 0 5 
3 43 42 1 
3 43 1 0 
3 42 80 37 
3 42 37 1 
3 85 84 34 
3 85 34 37 
3 77 76 35 
3 77 35 34 
3 76 82 39 
3 76 39 35 
3 82 73 30 
3 82 30 39 
3 73 72 31 
3 73 31 30 
3 162 163 164 
3 162 164 165 
3 164 166 167 
3 164 167 165 
3 167 168 169 
3 167 169 165 
3 170 162 165 
3 170 165 171 
3 51 50 9 
3 51 9 8 
3 50 61 21 
3 50 21 9 
3 61 55 13 
3 61 13 21 
3 55 54 14 
3 55 14 13 
3 65 64 17 
3 65 17 14 
3 59 58 18 
3 59 18 17 
3 58 66 23 
3 58 23 18 
3 66 69 26 
3 66 26 23 
3 69 68 27 
3 69 27 26 
3 28 172 173 
3 28 173 29 
3 29 173 174 
3 29 174 38 
3 38 174 175 
3 38 175 32 
3 32 175 176 
3 32 176 33 
3 33 176 177 
3 33 177 36 
3 36 177 178 
3 36 178 2 
3 2 178 179 
3 2 179 3 
3 3 179 180 
3 3 180 6 
3 6 180 181 
3 6 181 7 
3 24 182 183 
3 24 183 25 
3 25 183 184 
3 25 184 22 
3 22 184 185 
3 22 185 19 
3 19 185 186 
3 19 186 16 
3 16 186 187 
3 16 187 15 
3 15 187 188 
3 15 188 12 
3 12 188 189 
3 12 189 20 
3 20 189 190 
3 20 190 10 
3 10 190 191 
3 10 191 11 
3 51 8 11 
3 51 11 191 
3 182 24 27 
3 182 27 191 
3 191 27 68 
3 191 68 71 
3 71 137 136 
3 71 136 93 
3 191 71 93 
3 191 93 97 
3 92 117 116 
3 92 116 44 
3 47 4 7 
3 47 7 181 
3 44 47 181 
3 44 181 92 
3 93 92 181 
3 93 181 97 
3 172 28 31 
3 172 31 181 
3 181 31 72 
3 181 72 75 
3 75 141 140 
3 75 140 97 
3 181 75 97 
3 191 97 96 
3 191 96 48 
3 96 121 120 
3 96 120 48 
3 51 191 48 
3 192 193 194 
3 192 194 195 
3 193 196 197 
3 193 197 194 
3 196 198 199 
3 196 199 197 
3 200 201 202 
3 200 202 203 
3 201 204 205 
3 201 205 202 
3 204 206 207 
3 204 207 205 
3 206 208 209 
3 206 209 207 
3 208 210 211 
3 208 211 209 
3 210 212 213 
3 210 213 211 
3 212 214 215 
3 212 215 213 
3 214 216 217 
3 214 217 215 
3 216 192 195 
3 216 195 217 
3 218 219 220 
3 218 220 221 
3 220 222 223 
3 220 223 224 
3 223 225 224 
3 224 226 227 
3 224 227 221 
3 227 228 221 
3 220 224 221 
3 229 218 221 
