ply
format ascii 1.0
comment VCGLIB generated
element vertex 184
property float x
property float y
property float z
element face 350
property list uchar int vertex_indices
property list uchar float texcoord
property uchar red
property uchar green
property uchar blue
property uchar alpha
property float materialIndex
end_header
-0.774382 0 -0.480865 
-0.774382 0 0.480865 
-0.774382 1.016869 0.390045 
-0.774382 1.016869 -0.390045 
0.774382 1.149148 0.078235 
0.774382 1.107705 0.240432 
-0.774382 1.107705 -0.240432 
-0.774382 0.855481 0.480865 
-0.774382 0.855481 -0.480865 
-0.774382 1.149148 -0.078235 
0.774382 0 -0.480865 
0.774382 0 0.480865 
0.774382 1.016869 0.390045 
0.774382 1.016869 -0.390045 
-0.774382 1.149148 0.078235 
-0.774382 1.107705 0.240432 
0.774382 1.107705 -0.240432 
0.774382 0.855481 0.480865 
0.774382 0.855481 -0.480865 
0.774382 1.149148 -0.078235 
-0.387036 0 -0.480865 
-0.387036 0 0.480865 
-0.387036 1.016869 0.390045 
-0.387036 1.016869 -0.390045 
0.387036 1.149148 0.078235 
0.387036 1.107705 0.240432 
-0.387036 1.107705 -0.240432 
-0.387036 0.855481 0.480865 
-0.387036 0.855481 -0.480865 
-0.387036 1.149148 -0.078235 
0.387036 0 -0.480865 
0.387036 0 0.480865 
0.387036 1.016869 0.390045 
0.387036 1.016869 -0.390045 
-0.387036 1.149148 0.078235 
-0.387036 1.107705 0.240432 
0.387036 1.107705 -0.240432 
0.387036 0.855481 0.480865 
0.387036 0.855481 -0.480865 
0.387036 1.149148 -0.078235 
-0.263445 0 -0.480865 
-0.263445 0 0.480865 
-0.263445 1.016869 0.390045 
-0.263445 1.016869 -0.390045 
0.263445 1.149148 0.078235 
0.263445 1.107705 0.240432 
-0.263445 1.107705 -0.240432 
-0.263445 0.855481 0.480865 
-0.263445 0.855481 -0.480865 
-0.263445 1.149148 -0.078235 
0.263445 0 -0.480865 
0.263445 0 0.480865 
0.263445 1.016869 0.390045 
0.263445 1.016869 -0.390045 
-0.263445 1.149148 0.078235 
-0.263445 1.107705 0.240432 
0.263445 1.107705 -0.240432 
0.263445 0.855481 0.480865 
0.263445 0.855481 -0.480865 
0.263445 1.149148 -0.078235 
-0.387036 1.118095 0.244799 
-0.387036 1.024706 0.398145 
-0.387036 0.858337 0.491767 
-0.387036 0 0.492135 
-0.263445 0 0.492135 
-0.263445 0.858337 0.491767 
-0.263445 1.024706 0.398145 
-0.263445 1.118095 0.244799 
-0.263445 1.16033 0.079641 
-0.263445 1.16033 -0.079641 
-0.263445 1.118095 -0.244799 
-0.263445 1.024706 -0.398145 
-0.263445 0.858337 -0.491767 
-0.263445 0 -0.492135 
-0.387036 0 -0.492135 
-0.387036 0.858337 -0.491767 
-0.387036 1.024706 -0.398145 
-0.387036 1.118095 -0.244799 
-0.387036 1.16033 -0.079641 
-0.387036 1.16033 0.079641 
0.387036 0.858337 -0.491767 
0.387036 0 -0.492135 
0.263445 0 -0.492135 
0.263445 0.858337 -0.491767 
0.263445 1.024706 -0.398145 
0.263445 1.118095 -0.244799 
0.263445 1.16033 -0.079641 
0.263445 1.16033 0.079641 
0.263445 1.118095 0.244799 
0.263445 1.024706 0.398145 
0.263445 0.858337 0.491767 
0.263445 0 0.492135 
0.387036 0 0.492135 
0.387036 0.858337 0.491767 
0.387036 1.024706 0.398145 
0.387036 1.118095 0.244799 
0.387036 1.16033 0.079641 
0.387036 1.16033 -0.079641 
0.387036 1.118095 -0.244799 
0.387036 1.024706 -0.398145 
-0.774382 0 -0.506786 
-0.961729 0 -0.506786 
-0.961729 0.840891 -0.42535 
-0.961729 0.977066 -0.348719 
-0.961729 1.056512 -0.21876 
-0.961729 1.094257 -0.071315 
-0.961729 1.094257 0.071315 
-0.961729 1.056512 0.218759 
-0.961729 0.977066 0.348719 
-0.961729 0.840891 0.42535 
-0.774382 0 0.506786 
-0.774382 0.862051 0.505939 
-0.774382 1.034893 0.408674 
-0.774382 1.131602 0.250477 
-0.774382 1.174867 0.081469 
-0.774382 1.174867 -0.081469 
-0.774382 1.131602 -0.250477 
-0.774382 1.034893 -0.408675 
-0.774382 0.862051 -0.505939 
0.774382 0 0.506786 
0.961729 0 0.506786 
0.961729 0.840891 0.42535 
0.961729 0.977066 0.348719 
0.961729 1.056512 0.218759 
0.961729 1.094257 0.071315 
0.961729 1.094257 -0.071315 
0.961729 1.056512 -0.21876 
0.961729 0.977066 -0.348719 
0.961729 0.840891 -0.42535 
0.774382 0 -0.506786 
0.774382 0.862051 -0.505939 
0.774382 1.034893 -0.408675 
0.774382 1.131602 -0.250477 
0.774382 1.174867 -0.081469 
0.774382 1.174867 0.081469 
0.774382 1.131602 0.250477 
0.774382 1.034893 0.408674 
0.774382 0.862051 0.505939 
-0.961729 9.6e-05 -0.426097 
-0.961729 0.862051 -0.505939 
-0.961729 1.034893 -0.408675 
-0.961729 1.131602 -0.250477 
-0.961729 1.174867 -0.081469 
-0.961729 1.174867 0.081469 
-0.961729 1.131602 0.250477 
-0.961729 1.034893 0.408674 
-0.961729 0.862051 0.505939 
-0.961729 0 0.506786 
0.961729 9.6e-05 0.426097 
0.961729 0.862051 0.505939 
0.961729 1.034893 0.408674 
0.961729 1.131602 0.250477 
0.961729 1.174867 0.081469 
0.961729 1.174867 -0.081469 
0.961729 1.131602 -0.250477 
0.961729 1.034893 -0.408675 
0.961729 0.862051 -0.505939 
0.961729 0 -0.506786 
-0.961729 9.6e-05 0.426097 
0.961729 9.6e-05 -0.426097 
0.104977 0.735752 -0.478512 
0.089038 0.676265 -0.478512 
0.04549 0.632717 -0.478512 
-0.013997 0.616777 -0.478512 
-0.073484 0.632717 -0.478512 
-0.117032 0.676265 -0.478512 
-0.132971 0.735752 -0.478512 
-0.117032 0.795239 -0.478512 
-0.073484 0.838787 -0.478512 
-0.013997 0.854726 -0.478512 
0.04549 0.838787 -0.478512 
0.089038 0.795239 -0.478512 
0.104977 0.735752 -0.494456 
0.089038 0.676265 -0.494456 
0.04549 0.632717 -0.494456 
-0.013997 0.616777 -0.494456 
-0.073484 0.632717 -0.494456 
-0.117032 0.676265 -0.494456 
-0.132971 0.735752 -0.494456 
-0.117032 0.795239 -0.494456 
-0.073484 0.838787 -0.494456 
-0.013997 0.854726 -0.494456 
0.04549 0.838787 -0.494456 
0.089038 0.795239 -0.494456 
3 112 113 144 6 0.291523 0.810757 0.169396 0.810756 0.169394 0.998407 192 192 192 255 0.000000 
3 112 144 145 6 0.291523 0.810757 0.169394 0.998407 0.291521 0.998409 192 192 192 255 0.000000 
3 110 111 146 6 0.999808 0.810764 0.423375 0.810758 0.423373 0.998410 192 192 192 255 0.000000 
3 110 146 147 6 0.999808 0.810764 0.423373 0.998410 0.999807 0.998416 192 192 192 255 0.000000 
3 129 130 156 6 0.999955 0.810878 0.420667 0.810864 0.420665 0.998845 192 192 192 255 0.000000 
3 129 156 157 6 0.999955 0.810878 0.420665 0.998845 0.999952 0.998858 192 192 192 255 0.000000 
3 154 132 133 6 0.171546 0.998838 0.171548 0.810857 0.056325 0.810855 192 192 192 255 0.000000 
3 154 133 153 6 0.171546 0.998838 0.056325 0.810855 0.056323 0.998836 192 192 192 255 0.000000 
3 152 134 135 6 -0.052142 0.998833 -0.052140 0.810852 -0.168605 0.810851 192 192 192 255 0.000000 
3 152 135 151 6 -0.052142 0.998833 -0.168605 0.810851 -0.168606 0.998832 192 192 192 255 0.000000 
3 155 131 132 6 0.291433 0.998841 0.291435 0.810860 0.171548 0.810857 192 192 192 255 0.000000 
3 155 132 154 6 0.291433 0.998841 0.171548 0.810857 0.171546 0.998838 192 192 192 255 0.000000 
3 146 111 112 6 0.423373 0.998410 0.423375 0.810758 0.291523 0.810757 192 192 192 255 0.000000 
3 146 112 145 6 0.423373 0.998410 0.291523 0.810757 0.291521 0.998409 192 192 192 255 0.000000 
3 156 130 131 6 0.420665 0.998845 0.420667 0.810864 0.291435 0.810860 192 192 192 255 0.000000 
3 156 131 155 6 0.420665 0.998845 0.291435 0.810860 0.291433 0.998841 192 192 192 255 0.000000 
3 153 133 134 6 0.056323 0.998836 0.056325 0.810855 -0.052140 0.810852 192 192 192 255 0.000000 
3 153 134 152 6 0.056323 0.998836 -0.052140 0.810852 -0.052142 0.998833 192 192 192 255 0.000000 
3 150 151 135 6 -0.290736 0.998831 -0.168606 0.998832 -0.168605 0.810851 192 192 192 255 0.000000 
3 150 135 136 6 -0.290736 0.998831 -0.168605 0.810851 -0.290735 0.810850 192 192 192 255 0.000000 
3 120 149 137 6 -0.999040 0.998824 -0.422592 0.998829 -0.422590 0.810848 192 192 192 255 0.000000 
3 120 137 119 6 -0.999040 0.998824 -0.422590 0.810848 -0.999039 0.810843 192 192 192 255 0.000000 
3 101 139 118 6 -0.999134 0.998381 -0.419862 0.998395 -0.419860 0.810744 192 192 192 255 0.000000 
3 101 118 100 6 -0.999134 0.998381 -0.419860 0.810744 -0.999132 0.810730 192 192 192 255 0.000000 
3 141 142 115 6 -0.170749 0.998401 -0.055530 0.998405 -0.055528 0.810753 192 192 192 255 0.000000 
3 141 115 116 6 -0.170749 0.998401 -0.055528 0.810753 -0.170747 0.810749 192 192 192 255 0.000000 
3 143 144 113 6 0.052933 0.998406 0.169394 0.998407 0.169396 0.810756 192 192 192 255 0.000000 
3 143 113 114 6 0.052933 0.998406 0.169396 0.810756 0.052934 0.810755 192 192 192 255 0.000000 
3 140 141 116 6 -0.290634 0.998398 -0.170749 0.998401 -0.170747 0.810749 192 192 192 255 0.000000 
3 140 116 117 6 -0.290634 0.998398 -0.170747 0.810749 -0.290632 0.810747 192 192 192 255 0.000000 
3 149 150 136 6 -0.422592 0.998829 -0.290736 0.998831 -0.290735 0.810850 192 192 192 255 0.000000 
3 149 136 137 6 -0.422592 0.998829 -0.290735 0.810850 -0.422590 0.810848 192 192 192 255 0.000000 
3 139 140 117 6 -0.419862 0.998395 -0.290634 0.998398 -0.290632 0.810747 192 192 192 255 0.000000 
3 139 117 118 6 -0.419862 0.998395 -0.290632 0.810747 -0.419860 0.810744 192 192 192 255 0.000000 
3 142 143 114 6 -0.055530 0.998405 0.052933 0.998406 0.052934 0.810755 192 192 192 255 0.000000 
3 142 114 115 6 -0.055530 0.998405 0.052934 0.810755 -0.055528 0.810753 192 192 192 255 0.000000 
3 22 35 15 6 1.483708 0.490579 1.483708 0.574998 1.621728 0.574999 192 192 192 255 0.000000 
3 22 15 2 6 1.483708 0.490579 1.621728 0.574999 1.621728 0.490580 192 192 192 255 0.000000 
3 21 27 7 6 1.483709 0.000985 1.483708 0.399438 1.621728 0.399439 192 192 192 255 0.000000 
3 21 7 1 6 1.483709 0.000985 1.621728 0.399439 1.621729 0.000987 192 192 192 255 0.000000 
3 30 38 18 6 1.483710 0.001073 1.483707 0.401487 1.621727 0.401489 192 192 192 255 0.000000 
3 30 18 10 6 1.483710 0.001073 1.621727 0.401489 1.621731 0.001075 192 192 192 255 0.000000 
3 36 39 19 6 1.483705 0.573683 1.483705 0.653327 1.621725 0.653330 192 192 192 255 0.000000 
3 36 19 16 6 1.483705 0.573683 1.621725 0.653330 1.621725 0.573686 192 192 192 255 0.000000 
3 24 25 5 6 1.207888 0.655497 1.207888 0.574995 1.069868 0.574994 192 192 192 255 0.000000 
3 24 5 4 6 1.207888 0.655497 1.069868 0.574994 1.069868 0.655496 192 192 192 255 0.000000 
3 33 36 16 6 1.483706 0.490815 1.483705 0.573683 1.621725 0.573686 192 192 192 255 0.000000 
3 33 16 13 6 1.483706 0.490815 1.621725 0.573686 1.621726 0.490817 192 192 192 255 0.000000 
3 27 22 2 6 1.483708 0.399438 1.483708 0.490579 1.621728 0.490580 192 192 192 255 0.000000 
3 27 2 7 6 1.483708 0.399438 1.621728 0.490580 1.621728 0.399439 192 192 192 255 0.000000 
3 38 33 13 6 1.483707 0.401487 1.483706 0.490815 1.621726 0.490817 192 192 192 255 0.000000 
3 38 13 18 6 1.483707 0.401487 1.621726 0.490817 1.621727 0.401489 192 192 192 255 0.000000 
3 39 24 4 6 1.483705 0.592951 1.483704 0.667924 1.621724 0.667927 192 192 192 255 0.000000 
3 39 4 19 6 1.483705 0.592951 1.621724 0.667927 1.621725 0.592953 192 192 192 255 0.000000 
3 12 5 25 6 1.069868 0.490575 1.069868 0.574994 1.207888 0.574995 192 192 192 255 0.000000 
3 12 25 32 6 1.069868 0.490575 1.207888 0.574995 1.207888 0.490576 192 192 192 255 0.000000 
3 11 17 37 6 1.069869 0.000982 1.069868 0.399434 1.207889 0.399435 192 192 192 255 0.000000 
3 11 37 31 6 1.069869 0.000982 1.207889 0.399435 1.207889 0.000983 192 192 192 255 0.000000 
3 0 8 28 6 1.069870 0.001066 1.069867 0.401480 1.207887 0.401482 192 192 192 255 0.000000 
3 0 28 20 6 1.069870 0.001066 1.207887 0.401482 1.207891 0.001068 192 192 192 255 0.000000 
3 6 9 29 6 1.069866 0.573676 1.069865 0.653321 1.207885 0.653323 192 192 192 255 0.000000 
3 6 29 26 6 1.069866 0.573676 1.207885 0.653323 1.207886 0.573679 192 192 192 255 0.000000 
3 14 15 35 6 1.621728 0.655501 1.621728 0.574999 1.483708 0.574998 192 192 192 255 0.000000 
3 14 35 34 6 1.621728 0.655501 1.483708 0.574998 1.483708 0.655500 192 192 192 255 0.000000 
3 3 6 26 6 1.069866 0.490808 1.069866 0.573676 1.207886 0.573679 192 192 192 255 0.000000 
3 3 26 23 6 1.069866 0.490808 1.207886 0.573679 1.207886 0.490810 192 192 192 255 0.000000 
3 17 12 32 6 1.069868 0.399434 1.069868 0.490575 1.207888 0.490576 192 192 192 255 0.000000 
3 17 32 37 6 1.069868 0.399434 1.207888 0.490576 1.207889 0.399435 192 192 192 255 0.000000 
3 8 3 23 6 1.069867 0.401480 1.069866 0.490808 1.207886 0.490810 192 192 192 255 0.000000 
3 8 23 28 6 1.069867 0.401480 1.207886 0.490810 1.207887 0.401482 192 192 192 255 0.000000 
3 9 14 34 6 1.069865 0.592944 1.069864 0.667918 1.207884 0.667920 192 192 192 255 0.000000 
3 9 34 29 6 1.069865 0.592944 1.207884 0.667920 1.207885 0.592946 192 192 192 255 0.000000 
3 42 52 45 6 1.439670 0.490579 1.251927 0.490577 1.251927 0.574995 192 192 192 255 0.000000 
3 42 45 55 6 1.439670 0.490579 1.251927 0.574995 1.439669 0.574997 192 192 192 255 0.000000 
3 41 51 57 6 1.439670 0.000985 1.251927 0.000983 1.251927 0.399436 192 192 192 255 0.000000 
3 41 57 47 6 1.439670 0.000985 1.251927 0.399436 1.439670 0.399437 192 192 192 255 0.000000 
3 50 40 48 6 1.439672 0.001072 1.251929 0.001069 1.251926 0.401483 192 192 192 255 0.000000 
3 50 48 58 6 1.439672 0.001072 1.251926 0.401483 1.439669 0.401486 192 192 192 255 0.000000 
3 56 46 49 6 1.439667 0.573683 1.251924 0.573679 1.251923 0.653323 192 192 192 255 0.000000 
3 56 49 59 6 1.439667 0.573683 1.251923 0.653323 1.439666 0.653327 192 192 192 255 0.000000 
3 44 54 55 6 1.251927 0.655498 1.439669 0.655500 1.439669 0.574997 192 192 192 255 0.000000 
3 44 55 45 6 1.251927 0.655498 1.439669 0.574997 1.251927 0.574995 192 192 192 255 0.000000 
3 53 43 46 6 1.439668 0.490814 1.251925 0.490811 1.251924 0.573679 192 192 192 255 0.000000 
3 53 46 56 6 1.439668 0.490814 1.251924 0.573679 1.439667 0.573683 192 192 192 255 0.000000 
3 47 57 52 6 1.439670 0.399437 1.251927 0.399436 1.251927 0.490577 192 192 192 255 0.000000 
3 47 52 42 6 1.439670 0.399437 1.251927 0.490577 1.439670 0.490579 192 192 192 255 0.000000 
3 58 48 43 6 1.439669 0.401486 1.251926 0.401483 1.251925 0.490811 192 192 192 255 0.000000 
3 58 43 53 6 1.439669 0.401486 1.251925 0.490811 1.439668 0.490814 192 192 192 255 0.000000 
3 59 49 54 6 1.439666 0.592950 1.251923 0.592947 1.251923 0.667920 192 192 192 255 0.000000 
3 59 54 44 6 1.439666 0.592950 1.251923 0.667920 1.439666 0.667924 192 192 192 255 0.000000 
3 61 66 67 6 0.354454 0.687211 0.354454 0.780390 0.415498 0.780390 192 192 192 255 0.000000 
3 61 67 60 6 0.354454 0.687211 0.415498 0.780390 0.415498 0.687212 192 192 192 255 0.000000 
3 63 64 65 6 0.000424 0.687210 0.000424 0.780389 0.288549 0.780390 192 192 192 255 0.000000 
3 63 65 62 6 0.000424 0.687210 0.288549 0.780390 0.288549 0.687211 192 192 192 255 0.000000 
3 81 82 83 6 0.999567 0.780463 0.999568 0.687500 0.710041 0.687493 192 192 192 255 0.000000 
3 81 83 80 6 0.999567 0.780463 0.710041 0.687493 0.710040 0.780456 192 192 192 255 0.000000 
3 98 85 86 6 0.585530 0.780452 0.585531 0.687490 0.527943 0.687488 192 192 192 255 0.000000 
3 98 86 97 6 0.585530 0.780452 0.527943 0.687488 0.527942 0.780451 192 192 192 255 0.000000 
3 96 87 88 6 0.473732 0.780450 0.473732 0.687487 0.415523 0.687486 192 192 192 255 0.000000 
3 96 88 95 6 0.473732 0.780450 0.415523 0.687486 0.415523 0.780450 192 192 192 255 0.000000 
3 99 84 85 6 0.645450 0.780454 0.645451 0.687491 0.585531 0.687490 192 192 192 255 0.000000 
3 99 85 98 6 0.645450 0.780454 0.585531 0.687490 0.585530 0.780452 192 192 192 255 0.000000 
3 62 65 66 6 0.288549 0.687211 0.288549 0.780390 0.354454 0.780390 192 192 192 255 0.000000 
3 62 66 61 6 0.288549 0.687211 0.354454 0.780390 0.354454 0.687211 192 192 192 255 0.000000 
3 80 83 84 6 0.710040 0.780456 0.710041 0.687493 0.645451 0.687491 192 192 192 255 0.000000 
3 80 84 99 6 0.710040 0.780456 0.645451 0.687491 0.645450 0.780454 192 192 192 255 0.000000 
3 97 86 87 6 0.527942 0.780451 0.527943 0.687488 0.473732 0.687487 192 192 192 255 0.000000 
3 97 87 96 6 0.527942 0.780451 0.473732 0.687487 0.473732 0.780450 192 192 192 255 0.000000 
3 89 94 95 6 0.354483 0.687486 0.354483 0.780450 0.415523 0.780450 192 192 192 255 0.000000 
3 89 95 88 6 0.354483 0.687486 0.415523 0.780450 0.415523 0.687486 192 192 192 255 0.000000 
3 91 92 93 6 0.000473 0.687485 0.000473 0.780448 0.288581 0.780449 192 192 192 255 0.000000 
3 91 93 90 6 0.000473 0.687485 0.288581 0.780449 0.288581 0.687486 192 192 192 255 0.000000 
3 73 74 75 6 0.999575 0.780404 0.999576 0.687225 0.710032 0.687218 192 192 192 255 0.000000 
3 73 75 72 6 0.999575 0.780404 0.710032 0.687218 0.710032 0.780396 192 192 192 255 0.000000 
3 70 77 78 6 0.585515 0.780394 0.585515 0.687215 0.527924 0.687213 192 192 192 255 0.000000 
3 70 78 69 6 0.585515 0.780394 0.527924 0.687213 0.527923 0.780392 192 192 192 255 0.000000 
3 68 79 60 6 0.473710 0.780391 0.473710 0.687212 0.415498 0.687212 192 192 192 255 0.000000 
3 68 60 67 6 0.473710 0.780391 0.415498 0.687212 0.415498 0.780390 192 192 192 255 0.000000 
3 71 76 77 6 0.645438 0.780394 0.645438 0.687216 0.585515 0.687215 192 192 192 255 0.000000 
3 71 77 70 6 0.645438 0.780394 0.585515 0.687215 0.585515 0.780394 192 192 192 255 0.000000 
3 90 93 94 6 0.288581 0.687486 0.288581 0.780449 0.354483 0.780450 192 192 192 255 0.000000 
3 90 94 89 6 0.288581 0.687486 0.354483 0.780450 0.354483 0.687486 192 192 192 255 0.000000 
3 72 75 76 6 0.710032 0.780396 0.710032 0.687218 0.645438 0.687216 192 192 192 255 0.000000 
3 72 76 71 6 0.710032 0.780396 0.645438 0.687216 0.645438 0.780394 192 192 192 255 0.000000 
3 69 78 79 6 0.527923 0.780392 0.527924 0.687213 0.473710 0.687212 192 192 192 255 0.000000 
3 69 79 68 6 0.527923 0.780392 0.473710 0.687212 0.473710 0.780391 192 192 192 255 0.000000 
3 35 22 61 6 1.483708 0.574998 1.483708 0.490579 0.354454 0.687211 192 192 192 255 0.000000 
3 35 61 60 6 1.483708 0.574998 0.354454 0.687211 0.415498 0.687212 192 192 192 255 0.000000 
3 22 27 62 6 1.483708 0.490579 1.483708 0.399438 0.288549 0.687211 192 192 192 255 0.000000 
3 22 62 61 6 1.483708 0.490579 0.288549 0.687211 0.354454 0.687211 192 192 192 255 0.000000 
3 27 21 63 6 1.483708 0.399438 1.483709 0.000985 0.000424 0.687210 192 192 192 255 0.000000 
3 27 63 62 6 1.483708 0.399438 0.000424 0.687210 0.288549 0.687211 192 192 192 255 0.000000 
3 41 47 65 6 1.439670 0.000985 1.439670 0.399437 0.288549 0.780390 192 192 192 255 0.000000 
3 41 65 64 6 1.439670 0.000985 0.288549 0.780390 0.000424 0.780389 192 192 192 255 0.000000 
3 47 42 66 6 1.439670 0.399437 1.439670 0.490579 0.354454 0.780390 192 192 192 255 0.000000 
3 47 66 65 6 1.439670 0.399437 0.354454 0.780390 0.288549 0.780390 192 192 192 255 0.000000 
3 42 55 67 6 1.439670 0.490579 1.439669 0.574997 0.415498 0.780390 192 192 192 255 0.000000 
3 42 67 66 6 1.439670 0.490579 0.415498 0.780390 0.354454 0.780390 192 192 192 255 0.000000 
3 55 54 68 6 1.439669 0.574997 1.439669 0.655500 0.473710 0.780391 192 192 192 255 0.000000 
3 55 68 67 6 1.439669 0.574997 0.473710 0.780391 0.415498 0.780390 192 192 192 255 0.000000 
3 54 49 69 6 1.251923 0.667920 1.251923 0.592947 0.527923 0.780392 192 192 192 255 0.000000 
3 54 69 68 6 1.251923 0.667920 0.527923 0.780392 0.473710 0.780391 192 192 192 255 0.000000 
3 49 46 70 6 1.251923 0.653323 1.251924 0.573679 0.585515 0.780394 192 192 192 255 0.000000 
3 49 70 69 6 1.251923 0.653323 0.585515 0.780394 0.527923 0.780392 192 192 192 255 0.000000 
3 46 43 71 6 1.251924 0.573679 1.251925 0.490811 0.645438 0.780394 192 192 192 255 0.000000 
3 46 71 70 6 1.251924 0.573679 0.645438 0.780394 0.585515 0.780394 192 192 192 255 0.000000 
3 43 48 72 6 1.251925 0.490811 1.251926 0.401483 0.710032 0.780396 192 192 192 255 0.000000 
3 43 72 71 6 1.251925 0.490811 0.710032 0.780396 0.645438 0.780394 192 192 192 255 0.000000 
3 48 40 73 6 1.251926 0.401483 1.251929 0.001069 0.999575 0.780404 192 192 192 255 0.000000 
3 48 73 72 6 1.251926 0.401483 0.999575 0.780404 0.710032 0.780396 192 192 192 255 0.000000 
3 20 28 75 6 1.207891 0.001068 1.207887 0.401482 0.710032 0.687218 192 192 192 255 0.000000 
3 20 75 74 6 1.207891 0.001068 0.710032 0.687218 0.999576 0.687225 192 192 192 255 0.000000 
3 28 23 76 6 1.207887 0.401482 1.207886 0.490810 0.645438 0.687216 192 192 192 255 0.000000 
3 28 76 75 6 1.207887 0.401482 0.645438 0.687216 0.710032 0.687218 192 192 192 255 0.000000 
3 23 26 77 6 1.207886 0.490810 1.207886 0.573679 0.585515 0.687215 192 192 192 255 0.000000 
3 23 77 76 6 1.207886 0.490810 0.585515 0.687215 0.645438 0.687216 192 192 192 255 0.000000 
3 26 29 78 6 1.207886 0.573679 1.207885 0.653323 0.527924 0.687213 192 192 192 255 0.000000 
3 26 78 77 6 1.207886 0.573679 0.527924 0.687213 0.585515 0.687215 192 192 192 255 0.000000 
3 29 34 79 6 1.207885 0.592946 1.207884 0.667920 0.473710 0.687212 192 192 192 255 0.000000 
3 29 79 78 6 1.207885 0.592946 0.473710 0.687212 0.527924 0.687213 192 192 192 255 0.000000 
3 34 35 60 6 1.483708 0.655500 1.483708 0.574998 0.415498 0.687212 192 192 192 255 0.000000 
3 34 60 79 6 1.483708 0.655500 0.415498 0.687212 0.473710 0.687212 192 192 192 255 0.000000 
3 38 30 81 6 1.483707 0.401487 1.483710 0.001073 0.999567 0.780463 192 192 192 255 0.000000 
3 38 81 80 6 1.483707 0.401487 0.999567 0.780463 0.710040 0.780456 192 192 192 255 0.000000 
3 50 58 83 6 1.439672 0.001072 1.439669 0.401486 0.710041 0.687493 192 192 192 255 0.000000 
3 50 83 82 6 1.439672 0.001072 0.710041 0.687493 0.999568 0.687500 192 192 192 255 0.000000 
3 58 53 84 6 1.439669 0.401486 1.439668 0.490814 0.645451 0.687491 192 192 192 255 0.000000 
3 58 84 83 6 1.439669 0.401486 0.645451 0.687491 0.710041 0.687493 192 192 192 255 0.000000 
3 53 56 85 6 1.439668 0.490814 1.439667 0.573683 0.585531 0.687490 192 192 192 255 0.000000 
3 53 85 84 6 1.439668 0.490814 0.585531 0.687490 0.645451 0.687491 192 192 192 255 0.000000 
3 56 59 86 6 1.439667 0.573683 1.439666 0.653327 0.527943 0.687488 192 192 192 255 0.000000 
3 56 86 85 6 1.439667 0.573683 0.527943 0.687488 0.585531 0.687490 192 192 192 255 0.000000 
3 59 44 87 6 1.439666 0.592950 1.439666 0.667924 0.473732 0.687487 192 192 192 255 0.000000 
3 59 87 86 6 1.439666 0.592950 0.473732 0.687487 0.527943 0.687488 192 192 192 255 0.000000 
3 44 45 88 6 1.251927 0.655498 1.251927 0.574995 0.415523 0.687486 192 192 192 255 0.000000 
3 44 88 87 6 1.251927 0.655498 0.415523 0.687486 0.473732 0.687487 192 192 192 255 0.000000 
3 45 52 89 6 1.251927 0.574995 1.251927 0.490577 0.354483 0.687486 192 192 192 255 0.000000 
3 45 89 88 6 1.251927 0.574995 0.354483 0.687486 0.415523 0.687486 192 192 192 255 0.000000 
3 52 57 90 6 1.251927 0.490577 1.251927 0.399436 0.288581 0.687486 192 192 192 255 0.000000 
3 52 90 89 6 1.251927 0.490577 0.288581 0.687486 0.354483 0.687486 192 192 192 255 0.000000 
3 57 51 91 6 1.251927 0.399436 1.251927 0.000983 0.000473 0.687485 192 192 192 255 0.000000 
3 57 91 90 6 1.251927 0.399436 0.000473 0.687485 0.288581 0.687486 192 192 192 255 0.000000 
3 31 37 93 6 1.207889 0.000983 1.207889 0.399435 0.288581 0.780449 192 192 192 255 0.000000 
3 31 93 92 6 1.207889 0.000983 0.288581 0.780449 0.000473 0.780448 192 192 192 255 0.000000 
3 37 32 94 6 1.207889 0.399435 1.207888 0.490576 0.354483 0.780450 192 192 192 255 0.000000 
3 37 94 93 6 1.207889 0.399435 0.354483 0.780450 0.288581 0.780449 192 192 192 255 0.000000 
3 32 25 95 6 1.207888 0.490576 1.207888 0.574995 0.415523 0.780450 192 192 192 255 0.000000 
3 32 95 94 6 1.207888 0.490576 0.415523 0.780450 0.354483 0.780450 192 192 192 255 0.000000 
3 25 24 96 6 1.207888 0.574995 1.207888 0.655497 0.473732 0.780450 192 192 192 255 0.000000 
3 25 96 95 6 1.207888 0.574995 0.473732 0.780450 0.415523 0.780450 192 192 192 255 0.000000 
3 24 39 97 6 1.483704 0.667924 1.483705 0.592951 0.527942 0.780451 192 192 192 255 0.000000 
3 24 97 96 6 1.483704 0.667924 0.527942 0.780451 0.473732 0.780450 192 192 192 255 0.000000 
3 39 36 98 6 1.483705 0.653327 1.483705 0.573683 0.585530 0.780452 192 192 192 255 0.000000 
3 39 98 97 6 1.483705 0.653327 0.585530 0.780452 0.527942 0.780451 192 192 192 255 0.000000 
3 36 33 99 6 1.483705 0.573683 1.483706 0.490815 0.645450 0.780454 192 192 192 255 0.000000 
3 36 99 98 6 1.483705 0.573683 0.645450 0.780454 0.585530 0.780452 192 192 192 255 0.000000 
3 33 38 80 6 1.483706 0.490815 1.483707 0.401487 0.710040 0.780456 192 192 192 255 0.000000 
3 33 80 99 6 1.483706 0.490815 0.710040 0.780456 0.645450 0.780454 192 192 192 255 0.000000 
3 104 103 102 6 0.029498 0.126780 0.079271 0.043647 0.164586 -0.005372 192 192 192 255 0.000000 
3 104 102 107 6 0.029498 0.126780 0.164586 -0.005372 0.029498 0.406652 192 192 192 255 0.000000 
3 102 138 158 6 0.164586 -0.005372 0.691354 -0.005850 0.691354 0.539281 192 192 192 255 0.000000 
3 102 158 107 6 0.164586 -0.005372 0.691354 0.539281 0.029498 0.406652 192 192 192 255 0.000000 
3 158 109 108 6 0.691354 0.539281 0.164586 0.538804 0.079271 0.489784 192 192 192 255 0.000000 
3 158 108 107 6 0.691354 0.539281 0.079271 0.489784 0.029498 0.406652 192 192 192 255 0.000000 
3 105 104 107 6 0.005850 0.221097 0.029498 0.126780 0.029498 0.406652 192 192 192 255 0.000000 
3 105 107 106 6 0.005850 0.221097 0.029498 0.406652 0.005850 0.312335 192 192 192 255 0.000000 
3 1 7 111 6 1.621729 0.000987 1.621728 0.399439 0.423375 0.810758 192 192 192 255 0.000000 
3 1 111 110 6 1.621729 0.000987 0.423375 0.810758 0.999808 0.810764 192 192 192 255 0.000000 
3 7 2 112 6 1.621728 0.399439 1.621728 0.490580 0.291523 0.810757 192 192 192 255 0.000000 
3 7 112 111 6 1.621728 0.399439 0.291523 0.810757 0.423375 0.810758 192 192 192 255 0.000000 
3 2 15 113 6 1.621728 0.490580 1.621728 0.574999 0.169396 0.810756 192 192 192 255 0.000000 
3 2 113 112 6 1.621728 0.490580 0.169396 0.810756 0.291523 0.810757 192 192 192 255 0.000000 
3 15 14 114 6 1.621728 0.574999 1.621728 0.655501 0.052934 0.810755 192 192 192 255 0.000000 
3 15 114 113 6 1.621728 0.574999 0.052934 0.810755 0.169396 0.810756 192 192 192 255 0.000000 
3 14 9 115 6 1.069864 0.667918 1.069865 0.592944 -0.055528 0.810753 192 192 192 255 0.000000 
3 14 115 114 6 1.069864 0.667918 -0.055528 0.810753 0.052934 0.810755 192 192 192 255 0.000000 
3 9 6 116 6 1.069865 0.653321 1.069866 0.573676 -0.170747 0.810749 192 192 192 255 0.000000 
3 9 116 115 6 1.069865 0.653321 -0.170747 0.810749 -0.055528 0.810753 192 192 192 255 0.000000 
3 6 3 117 6 1.069866 0.573676 1.069866 0.490808 -0.290632 0.810747 192 192 192 255 0.000000 
3 6 117 116 6 1.069866 0.573676 -0.290632 0.810747 -0.170747 0.810749 192 192 192 255 0.000000 
3 3 8 118 6 1.069866 0.490808 1.069867 0.401480 -0.419860 0.810744 192 192 192 255 0.000000 
3 3 118 117 6 1.069866 0.490808 -0.419860 0.810744 -0.290632 0.810747 192 192 192 255 0.000000 
3 8 0 100 6 1.069867 0.401480 1.069870 0.001066 -0.999132 0.810730 192 192 192 255 0.000000 
3 8 100 118 6 1.069867 0.401480 -0.999132 0.810730 -0.419860 0.810744 192 192 192 255 0.000000 
3 123 122 121 6 0.029498 0.406652 0.079272 0.489784 0.164587 0.538804 192 192 192 255 0.000000 
3 123 121 126 6 0.029498 0.406652 0.164587 0.538804 0.029498 0.126780 192 192 192 255 0.000000 
3 121 148 159 6 0.164587 0.538804 0.691354 0.539281 0.691354 -0.005850 192 192 192 255 0.000000 
3 121 159 126 6 0.164587 0.538804 0.691354 -0.005850 0.029498 0.126780 192 192 192 255 0.000000 
3 159 128 127 6 0.691354 -0.005850 0.164587 -0.005372 0.079272 0.043647 192 192 192 255 0.000000 
3 159 127 126 6 0.691354 -0.005850 0.079272 0.043647 0.029498 0.126780 192 192 192 255 0.000000 
3 124 123 126 6 0.005850 0.312335 0.029498 0.406652 0.029498 0.126780 192 192 192 255 0.000000 
3 124 126 125 6 0.005850 0.312335 0.029498 0.126780 0.005850 0.221097 192 192 192 255 0.000000 
3 10 18 130 6 1.621731 0.001075 1.621727 0.401489 0.420667 0.810864 192 192 192 255 0.000000 
3 10 130 129 6 1.621731 0.001075 0.420667 0.810864 0.999955 0.810878 192 192 192 255 0.000000 
3 18 13 131 6 1.621727 0.401489 1.621726 0.490817 0.291435 0.810860 192 192 192 255 0.000000 
3 18 131 130 6 1.621727 0.401489 0.291435 0.810860 0.420667 0.810864 192 192 192 255 0.000000 
3 13 16 132 6 1.621726 0.490817 1.621725 0.573686 0.171548 0.810857 192 192 192 255 0.000000 
3 13 132 131 6 1.621726 0.490817 0.171548 0.810857 0.291435 0.810860 192 192 192 255 0.000000 
3 16 19 133 6 1.621725 0.573686 1.621725 0.653330 0.056325 0.810855 192 192 192 255 0.000000 
3 16 133 132 6 1.621725 0.573686 0.056325 0.810855 0.171548 0.810857 192 192 192 255 0.000000 
3 19 4 134 6 1.621725 0.592953 1.621724 0.667927 -0.052140 0.810852 192 192 192 255 0.000000 
3 19 134 133 6 1.621725 0.592953 -0.052140 0.810852 0.056325 0.810855 192 192 192 255 0.000000 
3 4 5 135 6 1.069868 0.655496 1.069868 0.574994 -0.168605 0.810851 192 192 192 255 0.000000 
3 4 135 134 6 1.069868 0.655496 -0.168605 0.810851 -0.052140 0.810852 192 192 192 255 0.000000 
3 5 12 136 6 1.069868 0.574994 1.069868 0.490575 -0.290735 0.810850 192 192 192 255 0.000000 
3 5 136 135 6 1.069868 0.574994 -0.290735 0.810850 -0.168605 0.810851 192 192 192 255 0.000000 
3 12 17 137 6 1.069868 0.490575 1.069868 0.399434 -0.422590 0.810848 192 192 192 255 0.000000 
3 12 137 136 6 1.069868 0.490575 -0.422590 0.810848 -0.290735 0.810850 192 192 192 255 0.000000 
3 17 11 119 6 1.069868 0.399434 1.069869 0.000982 -0.999039 0.810843 192 192 192 255 0.000000 
3 17 119 137 6 1.069868 0.399434 -0.999039 0.810843 -0.422590 0.810848 192 192 192 255 0.000000 
3 101 138 102 6 -0.999134 0.998381 -0.999134 0.808115 -0.419862 0.808129 192 192 192 255 0.000000 
3 101 102 139 6 -0.999134 0.998381 -0.419862 0.808129 -0.419862 0.998395 192 192 192 255 0.000000 
3 139 102 103 6 -0.419862 0.998395 -0.419862 0.808129 -0.290634 0.808132 192 192 192 255 0.000000 
3 139 103 140 6 -0.419862 0.998395 -0.290634 0.808132 -0.290634 0.998398 192 192 192 255 0.000000 
3 140 103 104 6 -0.290634 0.998398 -0.290634 0.808132 -0.170749 0.808135 192 192 192 255 0.000000 
3 140 104 141 6 -0.290634 0.998398 -0.170749 0.808135 -0.170749 0.998401 192 192 192 255 0.000000 
3 141 104 105 6 -0.170749 0.998401 -0.170749 0.808135 -0.055530 0.808139 192 192 192 255 0.000000 
3 141 105 142 6 -0.170749 0.998401 -0.055530 0.808139 -0.055530 0.998405 192 192 192 255 0.000000 
3 142 105 106 6 -0.055530 0.998405 -0.055530 0.808139 0.052933 0.808140 192 192 192 255 0.000000 
3 142 106 143 6 -0.055530 0.998405 0.052933 0.808140 0.052933 0.998406 192 192 192 255 0.000000 
3 143 106 107 6 0.052933 0.998406 0.052933 0.808140 0.169394 0.808141 192 192 192 255 0.000000 
3 143 107 144 6 0.052933 0.998406 0.169394 0.808141 0.169394 0.998407 192 192 192 255 0.000000 
3 144 107 108 6 0.169394 0.998407 0.169394 0.808141 0.291521 0.808143 192 192 192 255 0.000000 
3 144 108 145 6 0.169394 0.998407 0.291521 0.808143 0.291521 0.998409 192 192 192 255 0.000000 
3 145 108 109 6 0.291521 0.998409 0.291521 0.808143 0.423373 0.808144 192 192 192 255 0.000000 
3 145 109 146 6 0.291521 0.998409 0.423373 0.808144 0.423373 0.998410 192 192 192 255 0.000000 
3 146 109 158 6 0.423373 0.998410 0.423373 0.808144 0.999807 0.808150 192 192 192 255 0.000000 
3 146 158 147 6 0.423373 0.998410 0.999807 0.808150 0.999807 0.998416 192 192 192 255 0.000000 
3 120 148 121 6 -0.999040 0.998824 -0.999040 0.808557 -0.422592 0.808563 192 192 192 255 0.000000 
3 120 121 149 6 -0.999040 0.998824 -0.422592 0.808563 -0.422592 0.998829 192 192 192 255 0.000000 
3 149 121 122 6 -0.422592 0.998829 -0.422592 0.808563 -0.290736 0.808564 192 192 192 255 0.000000 
3 149 122 150 6 -0.422592 0.998829 -0.290736 0.808564 -0.290736 0.998831 192 192 192 255 0.000000 
3 150 122 123 6 -0.290736 0.998831 -0.290736 0.808564 -0.168606 0.808565 192 192 192 255 0.000000 
3 150 123 151 6 -0.290736 0.998831 -0.168606 0.808565 -0.168606 0.998832 192 192 192 255 0.000000 
3 151 123 124 6 -0.168606 0.998832 -0.168606 0.808565 -0.052142 0.808567 192 192 192 255 0.000000 
3 151 124 152 6 -0.168606 0.998832 -0.052142 0.808567 -0.052142 0.998833 192 192 192 255 0.000000 
3 152 124 125 6 -0.052142 0.998833 -0.052142 0.808567 0.056323 0.808570 192 192 192 255 0.000000 
3 152 125 153 6 -0.052142 0.998833 0.056323 0.808570 0.056323 0.998836 192 192 192 255 0.000000 
3 153 125 126 6 0.056323 0.998836 0.056323 0.808570 0.171546 0.808572 192 192 192 255 0.000000 
3 153 126 154 6 0.056323 0.998836 0.171546 0.808572 0.171546 0.998838 192 192 192 255 0.000000 
3 154 126 127 6 0.171546 0.998838 0.171546 0.808572 0.291433 0.808575 192 192 192 255 0.000000 
3 154 127 155 6 0.171546 0.998838 0.291433 0.808575 0.291433 0.998841 192 192 192 255 0.000000 
3 155 127 128 6 0.291433 0.998841 0.291433 0.808575 0.420665 0.808579 192 192 192 255 0.000000 
3 155 128 156 6 0.291433 0.998841 0.420665 0.808579 0.420665 0.998845 192 192 192 255 0.000000 
3 156 128 159 6 0.420665 0.998845 0.420665 0.808579 0.999952 0.808592 192 192 192 255 0.000000 
3 156 159 157 6 0.420665 0.998845 0.999952 0.808592 0.999952 0.998858 192 192 192 255 0.000000 
3 10 129 157 6 1.621731 0.001075 0.999955 0.810878 0.999952 0.998858 192 192 192 255 0.000000 
3 10 157 159 6 1.621731 0.001075 0.999952 0.998858 0.999952 0.808592 192 192 192 255 0.000000 
3 148 120 119 6 -0.999040 0.808557 -0.999040 0.998824 -0.999039 0.810843 192 192 192 255 0.000000 
3 148 119 159 6 -0.999040 0.808557 -0.999039 0.810843 0.999952 0.808592 192 192 192 255 0.000000 
3 159 119 11 6 0.999952 0.808592 -0.999039 0.810843 1.069869 0.000982 192 192 192 255 0.000000 
3 159 11 31 6 0.999952 0.808592 1.069869 0.000982 1.207889 0.000983 192 192 192 255 0.000000 
3 31 92 91 6 1.207889 0.000983 0.000473 0.780448 0.000473 0.687485 192 192 192 255 0.000000 
3 31 91 51 6 1.207889 0.000983 0.000473 0.687485 1.251927 0.000983 192 192 192 255 0.000000 
3 159 31 51 6 0.999952 0.808592 1.207889 0.000983 1.251927 0.000983 192 192 192 255 0.000000 
3 159 51 40 6 0.999952 0.808592 1.251927 0.000983 1.251929 0.001069 192 192 192 255 0.000000 
3 41 64 63 6 1.439670 0.000985 0.000424 0.780389 0.000424 0.687210 192 192 192 255 0.000000 
3 41 63 21 6 1.439670 0.000985 0.000424 0.687210 1.483709 0.000985 192 192 192 255 0.000000 
3 1 110 147 6 1.621729 0.000987 0.999808 0.810764 0.999807 0.998416 192 192 192 255 0.000000 
3 1 147 158 6 1.621729 0.000987 0.999807 0.998416 0.999807 0.808150 192 192 192 255 0.000000 
3 21 1 158 6 1.483709 0.000985 1.621729 0.000987 0.999807 0.808150 192 192 192 255 0.000000 
3 21 158 41 6 1.483709 0.000985 0.999807 0.808150 1.439670 0.000985 192 192 192 255 0.000000 
3 51 41 158 6 1.251927 0.000983 1.439670 0.000985 0.999807 0.808150 192 192 192 255 0.000000 
3 51 158 40 6 1.251927 0.000983 0.999807 0.808150 1.251929 0.001069 192 192 192 255 0.000000 
3 138 101 100 6 -0.999134 0.808115 -0.999134 0.998381 -0.999132 0.810730 192 192 192 255 0.000000 
3 138 100 158 6 -0.999134 0.808115 -0.999132 0.810730 0.999807 0.808150 192 192 192 255 0.000000 
3 158 100 0 6 0.999807 0.808150 -0.999132 0.810730 1.069870 0.001066 192 192 192 255 0.000000 
3 158 0 20 6 0.999807 0.808150 1.069870 0.001066 1.207891 0.001068 192 192 192 255 0.000000 
3 20 74 73 6 1.207891 0.001068 0.999576 0.687225 0.999575 0.780404 192 192 192 255 0.000000 
3 20 73 40 6 1.207891 0.001068 0.999575 0.780404 1.251929 0.001069 192 192 192 255 0.000000 
3 158 20 40 6 0.999807 0.808150 1.207891 0.001068 1.251929 0.001069 192 192 192 255 0.000000 
3 159 40 50 6 0.999952 0.808592 1.251929 0.001069 1.439672 0.001072 192 192 192 255 0.000000 
3 159 50 30 6 0.999952 0.808592 1.439672 0.001072 1.483710 0.001073 192 192 192 255 0.000000 
3 50 82 81 6 1.439672 0.001072 0.999568 0.687500 0.999567 0.780463 192 192 192 255 0.000000 
3 50 81 30 6 1.439672 0.001072 0.999567 0.780463 1.483710 0.001073 192 192 192 255 0.000000 
3 10 159 30 6 1.621731 0.001075 0.999952 0.808592 1.483710 0.001073 192 192 192 255 0.000000 
3 160 161 173 6 0.830916 0.334934 0.830916 0.345011 0.809822 0.345011 192 192 192 255 0.000000 
3 160 173 172 6 0.830916 0.334934 0.809822 0.345011 0.809822 0.334934 192 192 192 255 0.000000 
3 161 162 174 6 0.830916 0.345011 0.830916 0.355088 0.809822 0.355088 192 192 192 255 0.000000 
3 161 174 173 6 0.830916 0.345011 0.809822 0.355088 0.809822 0.345011 192 192 192 255 0.000000 
3 162 163 175 6 0.830916 0.355088 0.830916 0.365165 0.809822 0.365165 192 192 192 255 0.000000 
3 162 175 174 6 0.830916 0.355088 0.809822 0.365165 0.809822 0.355088 192 192 192 255 0.000000 
3 163 164 176 6 0.830916 0.244243 0.830916 0.254319 0.809822 0.254319 192 192 192 255 0.000000 
3 163 176 175 6 0.830916 0.244243 0.809822 0.254319 0.809822 0.244243 192 192 192 255 0.000000 
3 164 165 177 6 0.830916 0.254319 0.830916 0.264396 0.809822 0.264396 192 192 192 255 0.000000 
3 164 177 176 6 0.830916 0.254319 0.809822 0.264396 0.809822 0.254319 192 192 192 255 0.000000 
3 165 166 178 6 0.830916 0.264396 0.830916 0.274473 0.809822 0.274473 192 192 192 255 0.000000 
3 165 178 177 6 0.830916 0.264396 0.809822 0.274473 0.809822 0.264396 192 192 192 255 0.000000 
3 166 167 179 6 0.830916 0.274473 0.830916 0.284550 0.809822 0.284550 192 192 192 255 0.000000 
3 166 179 178 6 0.830916 0.274473 0.809822 0.284550 0.809822 0.274473 192 192 192 255 0.000000 
3 167 168 180 6 0.830916 0.284550 0.830916 0.294627 0.809822 0.294627 192 192 192 255 0.000000 
3 167 180 179 6 0.830916 0.284550 0.809822 0.294627 0.809822 0.284550 192 192 192 255 0.000000 
3 168 169 181 6 0.830916 0.294627 0.830916 0.304704 0.809822 0.304704 192 192 192 255 0.000000 
3 168 181 180 6 0.830916 0.294627 0.809822 0.304704 0.809822 0.294627 192 192 192 255 0.000000 
3 169 170 182 6 0.830916 0.304704 0.830916 0.314781 0.809822 0.314781 192 192 192 255 0.000000 
3 169 182 181 6 0.830916 0.304704 0.809822 0.314781 0.809822 0.304704 192 192 192 255 0.000000 
3 170 171 183 6 0.830916 0.314781 0.830916 0.324857 0.809822 0.324857 192 192 192 255 0.000000 
3 170 183 182 6 0.830916 0.314781 0.809822 0.324857 0.809822 0.314781 192 192 192 255 0.000000 
3 171 160 172 6 0.830916 0.324857 0.830916 0.334934 0.809822 0.334934 192 192 192 255 0.000000 
3 171 172 183 6 0.830916 0.324857 0.809822 0.334934 0.809822 0.324857 192 192 192 255 0.000000 
3 173 174 175 6 0.728829 0.164742 0.767396 0.089108 0.820079 0.061423 192 192 192 255 0.000000 
3 173 175 183 6 0.728829 0.164742 0.820079 0.061423 0.728829 0.371380 192 192 192 255 0.000000 
3 175 176 177 6 0.820079 0.061423 0.872762 0.089108 0.911328 0.164742 192 192 192 255 0.000000 
3 175 177 179 6 0.820079 0.061423 0.911328 0.164742 0.911328 0.371380 192 192 192 255 0.000000 
3 177 178 179 6 0.911328 0.164742 0.925445 0.268061 0.911328 0.371380 192 192 192 255 0.000000 
3 179 180 181 6 0.911328 0.371380 0.872762 0.447014 0.820079 0.474699 192 192 192 255 0.000000 
3 179 181 183 6 0.911328 0.371380 0.820079 0.474699 0.728829 0.371380 192 192 192 255 0.000000 
3 181 182 183 6 0.820079 0.474699 0.767396 0.447014 0.728829 0.371380 192 192 192 255 0.000000 
3 175 179 183 6 0.820079 0.061423 0.911328 0.371380 0.728829 0.371380 192 192 192 255 0.000000 
3 172 173 183 6 0.714713 0.268061 0.728829 0.164742 0.728829 0.371380 192 192 192 255 0.000000 
